{
.appVersion = "1147";
DisplayStrings = (
"THE QUICK BROWN FOX JUMPS \012OVER THE LAZY DOG\012\012AMAZINGLY FEW DISCOTHEQUES \012PROVIDE JUKEBOXES\012\012the quick brown fox jumps over the lazy dog!\012 \012League Spartan\012Amazingly few discotheques\012provide jukeboxes\012\012Allison Usavage\012Instagram\012Facebook\012SNAPCHAT\0120123456789",

glyphs = (
{
glyphname = A;
lastChange = "2018-06-08 12:41:32 +0000";
layers = (
{
anchors = (
{
name = bottom;
position = "{392, 0}";
},
{
name = ogonek;
position = "{706, 10}";
},
{
name = top;
position = "{392, 825}";
}
);
layerId = "A4E552E4-62BE-43BB-A58F-34F0EE3B77B8";
paths = (
{
closed = 1;
nodes = (
"-28 0 LINE",
"174 0 LINE",
"235 165 LINE",
"549 165 LINE",
"610 0 LINE",
"812 0 LINE",
"479 825 LINE",
"305 825 LINE"
);
},
{
closed = 1;
nodes = (
"391 570 LINE",
"393 570 LINE",
"485 330 LINE",
"299 330 LINE"
);
}
);
width = 784;
},
{
anchors = (
{
name = bottom;
position = "{322, 0}";
},
{
name = ogonek;
position = "{580, 10}";
},
{
name = top;
position = "{322, 825}";
}
);
layerId = "7B60DD57-6012-4D0F-BD38-A72A4BAC0E9D";
paths = (
{
closed = 1;
nodes = (
"-12 0 LINE",
"64 0 LINE",
"143 214 LINE",
"501 214 LINE",
"580 0 LINE",
"656 0 LINE",
"357 825 LINE",
"287 825 LINE"
);
},
{
closed = 1;
nodes = (
"321 723 LINE",
"323 723 LINE",
"482 279 LINE",
"162 279 LINE"
);
}
);
width = 644;
}
);
leftKerningGroup = A;
rightKerningGroup = A;
unicode = 0041;
},
{
glyphname = AE;
lastChange = "2017-03-21 23:17:47 +0000";
layers = (
{
components = (
{
alignment = -1;
name = E;
transform = "{1, 0, 0, 1, 442, 0}";
}
);
layerId = "A4E552E4-62BE-43BB-A58F-34F0EE3B77B8";
paths = (
{
closed = 1;
nodes = (
"-5 0 LINE",
"207 0 LINE",
"287 165 LINE",
"599 165 LINE",
"636 825 LINE",
"442 825 LINE"
);
},
{
closed = 1;
nodes = (
"504 570 LINE",
"506 570 LINE",
"506 330 LINE",
"380 330 LINE"
);
}
);
width = 1039;
},
{
components = (
{
alignment = -1;
name = E;
transform = "{1, 0, 0, 1, 407, 0}";
}
);
layerId = "7B60DD57-6012-4D0F-BD38-A72A4BAC0E9D";
paths = (
{
closed = 1;
nodes = (
"-5 0 LINE",
"71 0 LINE",
"194 214 LINE",
"536 214 LINE",
"536 825 LINE",
"466 825 LINE"
);
},
{
closed = 1;
nodes = (
"479 723 LINE",
"481 723 LINE",
"482 279 LINE",
"227 279 LINE"
);
}
);
width = 944;
}
);
rightKerningGroup = d;
unicode = 00C6;
},
{
glyphname = B;
lastChange = "2018-06-08 12:41:45 +0000";
layers = (
{
anchors = (
{
name = bottom;
position = "{333, 0}";
},
{
name = top;
position = "{333, 825}";
}
);
layerId = "A4E552E4-62BE-43BB-A58F-34F0EE3B77B8";
paths = (
{
closed = 1;
nodes = (
"60 0 LINE",
"377 0 LINE SMOOTH",
"548 0 OFFCURVE",
"643 94 OFFCURVE",
"643 230 CURVE SMOOTH",
"643 363 OFFCURVE",
"580 420 OFFCURVE",
"477 438 CURVE",
"548 455 OFFCURVE",
"608 518 OFFCURVE",
"608 615 CURVE SMOOTH",
"608 772 OFFCURVE",
"486 825 OFFCURVE",
"344 825 CURVE SMOOTH",
"60 825 LINE"
);
},
{
closed = 1;
nodes = (
"248 340 LINE",
"307 340 LINE SMOOTH",
"396 340 OFFCURVE",
"445 313 OFFCURVE",
"445 237 CURVE SMOOTH",
"445 172 OFFCURVE",
"396 145 OFFCURVE",
"307 145 CURVE SMOOTH",
"248 145 LINE"
);
},
{
closed = 1;
nodes = (
"248 680 LINE",
"301 680 LINE SMOOTH",
"383 680 OFFCURVE",
"422 655 OFFCURVE",
"422 596 CURVE SMOOTH",
"422 527 OFFCURVE",
"382 502 OFFCURVE",
"301 502 CURVE SMOOTH",
"248 502 LINE"
);
}
);
width = 666;
},
{
anchors = (
{
name = bottom;
position = "{297, 0}";
},
{
name = top;
position = "{297, 825}";
}
);
layerId = "7B60DD57-6012-4D0F-BD38-A72A4BAC0E9D";
paths = (
{
closed = 1;
nodes = (
"60 0 LINE",
"317 0 LINE SMOOTH",
"488 0 OFFCURVE",
"560 104 OFFCURVE",
"560 230 CURVE SMOOTH",
"560 357 OFFCURVE",
"451 419 OFFCURVE",
"392 424 CURVE",
"445 434 OFFCURVE",
"518 518 OFFCURVE",
"518 625 CURVE SMOOTH",
"518 782 OFFCURVE",
"396 825 OFFCURVE",
"264 825 CURVE SMOOTH",
"60 825 LINE"
);
},
{
closed = 1;
nodes = (
"128 390 LINE",
"307 390 LINE SMOOTH",
"436 390 OFFCURVE",
"492 313 OFFCURVE",
"492 227 CURVE SMOOTH",
"492 152 OFFCURVE",
"456 65 OFFCURVE",
"317 65 CURVE SMOOTH",
"128 65 LINE"
);
},
{
closed = 1;
nodes = (
"128 760 LINE",
"271 760 LINE SMOOTH",
"393 760 OFFCURVE",
"452 715 OFFCURVE",
"452 616 CURVE SMOOTH",
"452 537 OFFCURVE",
"402 452 OFFCURVE",
"291 452 CURVE SMOOTH",
"128 452 LINE"
);
}
);
width = 593;
}
);
rightKerningGroup = d;
unicode = 0042;
},
{
glyphname = C;
lastChange = "2018-06-08 12:41:56 +0000";
layers = (
{
anchors = (
{
name = bottom;
position = "{429, 0}";
},
{
name = top;
position = "{429, 825}";
}
);
layerId = "A4E552E4-62BE-43BB-A58F-34F0EE3B77B8";
paths = (
{
closed = 1;
nodes = (
"658 808 LINE",
"599 835 OFFCURVE",
"554 840 OFFCURVE",
"475 840 CURVE SMOOTH",
"234 840 OFFCURVE",
"23 654 OFFCURVE",
"23 413 CURVE SMOOTH",
"23 172 OFFCURVE",
"216 -15 OFFCURVE",
"475 -15 CURVE SMOOTH",
"545 -15 OFFCURVE",
"600 -11 OFFCURVE",
"658 15 CURVE",
"658 220 LINE",
"633 198 OFFCURVE",
"591 167 OFFCURVE",
"475 167 CURVE SMOOTH",
"312 167 OFFCURVE",
"234 290 OFFCURVE",
"234 413 CURVE SMOOTH",
"234 536 OFFCURVE",
"321 659 OFFCURVE",
"475 659 CURVE SMOOTH",
"590 659 OFFCURVE",
"633 626 OFFCURVE",
"658 603 CURVE"
);
}
);
width = 697;
},
{
anchors = (
{
name = bottom;
position = "{394, 0}";
},
{
name = top;
position = "{394, 825}";
}
);
layerId = "7B60DD57-6012-4D0F-BD38-A72A4BAC0E9D";
paths = (
{
closed = 1;
nodes = (
"588 803 LINE",
"552 825 OFFCURVE",
"502 840 OFFCURVE",
"415 840 CURVE SMOOTH",
"184 840 OFFCURVE",
"23 654 OFFCURVE",
"23 413 CURVE SMOOTH",
"23 172 OFFCURVE",
"166 -15 OFFCURVE",
"415 -15 CURVE SMOOTH",
"495 -15 OFFCURVE",
"558 5 OFFCURVE",
"588 25 CURVE",
"588 101 LINE",
"567 86 OFFCURVE",
"517 53 OFFCURVE",
"415 53 CURVE SMOOTH",
"262 53 OFFCURVE",
"98 170 OFFCURVE",
"98 413 CURVE SMOOTH",
"98 656 OFFCURVE",
"271 773 OFFCURVE",
"415 773 CURVE SMOOTH",
"520 773 OFFCURVE",
"569 740 OFFCURVE",
"588 727 CURVE"
);
}
);
width = 627;
}
);
leftKerningGroup = C;
rightKerningGroup = C;
unicode = 0043;
},
{
glyphname = C.ss01;
lastChange = "2017-03-25 14:21:04 +0000";
layers = (
{
layerId = "7B60DD57-6012-4D0F-BD38-A72A4BAC0E9D";
paths = (
{
closed = 1;
nodes = (
"254 48 OFFCURVE",
"97 202 OFFCURVE",
"97 413 CURVE SMOOTH",
"97 623 OFFCURVE",
"254 777 OFFCURVE",
"443 777 CURVE SMOOTH",
"599 777 OFFCURVE",
"681 704 OFFCURVE",
"681 704 CURVE",
"711 764 LINE",
"711 764 OFFCURVE",
"619 840 OFFCURVE",
"440 840 CURVE SMOOTH",
"206 840 OFFCURVE",
"23 648 OFFCURVE",
"23 411 CURVE SMOOTH",
"23 175 OFFCURVE",
"207 -15 OFFCURVE",
"440 -15 CURVE SMOOTH",
"619 -15 OFFCURVE",
"711 61 OFFCURVE",
"711 61 CURVE",
"681 121 LINE",
"681 121 OFFCURVE",
"599 48 OFFCURVE",
"443 48 CURVE SMOOTH"
);
}
);
width = 731;
},
{
layerId = "A4E552E4-62BE-43BB-A58F-34F0EE3B77B8";
paths = (
{
closed = 1;
nodes = (
"310 170 OFFCURVE",
"227 302 OFFCURVE",
"227 413 CURVE SMOOTH",
"227 523 OFFCURVE",
"310 655 OFFCURVE",
"499 655 CURVE SMOOTH",
"595 655 OFFCURVE",
"661 604 OFFCURVE",
"661 604 CURVE",
"741 764 LINE",
"741 764 OFFCURVE",
"649 840 OFFCURVE",
"470 840 CURVE SMOOTH",
"236 840 OFFCURVE",
"23 648 OFFCURVE",
"23 411 CURVE SMOOTH",
"23 175 OFFCURVE",
"237 -15 OFFCURVE",
"470 -15 CURVE SMOOTH",
"649 -15 OFFCURVE",
"741 61 OFFCURVE",
"741 61 CURVE",
"661 221 LINE",
"661 221 OFFCURVE",
"595 170 OFFCURVE",
"499 170 CURVE SMOOTH"
);
}
);
width = 761;
}
);
},
{
glyphname = D;
lastChange = "2018-06-08 12:42:04 +0000";
layers = (
{
anchors = (
{
name = bottom;
position = "{361, 0}";
},
{
name = center;
position = "{204, 413}";
},
{
name = top;
position = "{361, 825}";
}
);
layerId = "A4E552E4-62BE-43BB-A58F-34F0EE3B77B8";
paths = (
{
closed = 1;
nodes = (
"60 0 LINE",
"309 0 LINE SMOOTH",
"536 0 OFFCURVE",
"700 172 OFFCURVE",
"700 413 CURVE SMOOTH",
"700 653 OFFCURVE",
"535 825 OFFCURVE",
"309 825 CURVE SMOOTH",
"60 825 LINE"
);
},
{
closed = 1;
nodes = (
"287 657 LINE SMOOTH",
"427 657 OFFCURVE",
"502 550 OFFCURVE",
"502 412 CURVE SMOOTH",
"501 274 OFFCURVE",
"426 168 OFFCURVE",
"287 168 CURVE SMOOTH",
"248 168 LINE",
"248 657 LINE"
);
}
);
width = 722;
},
{
anchors = (
{
name = bottom;
position = "{318, 0}";
},
{
name = center;
position = "{110, 413}";
},
{
name = top;
position = "{318, 825}";
}
);
layerId = "7B60DD57-6012-4D0F-BD38-A72A4BAC0E9D";
paths = (
{
closed = 1;
nodes = (
"60 0 LINE",
"229 0 LINE SMOOTH",
"486 0 OFFCURVE",
"610 172 OFFCURVE",
"610 413 CURVE SMOOTH",
"610 653 OFFCURVE",
"485 825 OFFCURVE",
"229 825 CURVE SMOOTH",
"60 825 LINE"
);
},
{
closed = 1;
nodes = (
"207 757 LINE SMOOTH",
"427 757 OFFCURVE",
"543 630 OFFCURVE",
"542 412 CURVE SMOOTH",
"541 194 OFFCURVE",
"426 68 OFFCURVE",
"207 68 CURVE SMOOTH",
"128 68 LINE",
"128 757 LINE"
);
}
);
width = 635;
}
);
rightKerningGroup = d;
unicode = 0044;
},
{
glyphname = Eth;
lastChange = "2017-03-21 23:20:14 +0000";
layers = (
{
layerId = "A4E552E4-62BE-43BB-A58F-34F0EE3B77B8";
paths = (
{
closed = 1;
nodes = (
"98 825 LINE",
"98 489 LINE",
"16 489 LINE",
"16 336 LINE",
"98 336 LINE",
"98 0 LINE",
"337 0 LINE SMOOTH",
"563 0 OFFCURVE",
"752 171 OFFCURVE",
"753 412 CURVE SMOOTH",
"753 653 OFFCURVE",
"564 825 OFFCURVE",
"337 825 CURVE SMOOTH"
);
},
{
closed = 1;
nodes = (
"286 168 LINE",
"286 336 LINE",
"395 336 LINE",
"395 489 LINE",
"286 489 LINE",
"286 657 LINE",
"315 657 LINE SMOOTH",
"454 657 OFFCURVE",
"549 550 OFFCURVE",
"550 413 CURVE SMOOTH",
"550 275 OFFCURVE",
"455 168 OFFCURVE",
"315 168 CURVE SMOOTH"
);
}
);
width = 776;
},
{
layerId = "7B60DD57-6012-4D0F-BD38-A72A4BAC0E9D";
paths = (
{
closed = 1;
nodes = (
"150 825 LINE",
"150 439 LINE",
"16 439 LINE",
"16 386 LINE",
"150 386 LINE",
"150 0 LINE",
"319 0 LINE SMOOTH",
"576 0 OFFCURVE",
"700 172 OFFCURVE",
"700 413 CURVE SMOOTH",
"700 653 OFFCURVE",
"575 825 OFFCURVE",
"319 825 CURVE SMOOTH"
);
},
{
closed = 1;
nodes = (
"218 68 LINE",
"218 386 LINE",
"365 386 LINE",
"365 439 LINE",
"218 439 LINE",
"218 757 LINE",
"297 757 LINE SMOOTH",
"517 757 OFFCURVE",
"633 630 OFFCURVE",
"632 412 CURVE SMOOTH",
"631 194 OFFCURVE",
"516 68 OFFCURVE",
"297 68 CURVE SMOOTH"
);
}
);
width = 723;
}
);
rightKerningGroup = d;
unicode = 00D0;
},
{
glyphname = Dcroat;
lastChange = "2017-03-21 23:20:22 +0000";
layers = (
{
layerId = "A4E552E4-62BE-43BB-A58F-34F0EE3B77B8";
paths = (
{
closed = 1;
nodes = (
"337 0 LINE SMOOTH",
"564 0 OFFCURVE",
"753 172 OFFCURVE",
"753 413 CURVE SMOOTH",
"753 653 OFFCURVE",
"563 825 OFFCURVE",
"337 825 CURVE SMOOTH",
"98 825 LINE",
"98 489 LINE",
"16 489 LINE",
"16 336 LINE",
"98 336 LINE",
"98 0 LINE"
);
},
{
closed = 1;
nodes = (
"286 336 LINE",
"395 336 LINE",
"395 489 LINE",
"286 489 LINE",
"286 657 LINE",
"315 657 LINE SMOOTH",
"455 657 OFFCURVE",
"550 550 OFFCURVE",
"550 412 CURVE SMOOTH",
"549 274 OFFCURVE",
"454 168 OFFCURVE",
"315 168 CURVE SMOOTH",
"286 168 LINE"
);
}
);
width = 776;
},
{
layerId = "7B60DD57-6012-4D0F-BD38-A72A4BAC0E9D";
paths = (
{
closed = 1;
nodes = (
"319 0 LINE SMOOTH",
"576 0 OFFCURVE",
"700 172 OFFCURVE",
"700 413 CURVE SMOOTH",
"700 653 OFFCURVE",
"575 825 OFFCURVE",
"319 825 CURVE SMOOTH",
"150 825 LINE",
"150 439 LINE",
"16 439 LINE",
"16 386 LINE",
"150 386 LINE",
"150 0 LINE"
);
},
{
closed = 1;
nodes = (
"218 386 LINE",
"365 386 LINE",
"365 439 LINE",
"218 439 LINE",
"218 757 LINE",
"297 757 LINE SMOOTH",
"517 757 OFFCURVE",
"633 630 OFFCURVE",
"632 412 CURVE SMOOTH",
"631 194 OFFCURVE",
"516 68 OFFCURVE",
"297 68 CURVE SMOOTH",
"218 68 LINE"
);
}
);
width = 723;
}
);
rightKerningGroup = d;
unicode = 0110;
},
{
glyphname = E;
lastChange = "2018-06-08 12:42:07 +0000";
layers = (
{
anchors = (
{
name = bottom;
position = "{300, 0}";
},
{
name = ogonek;
position = "{540, 10}";
},
{
name = top;
position = "{300, 825}";
},
{
name = topleft;
position = "{20, 825}";
}
);
layerId = "A4E552E4-62BE-43BB-A58F-34F0EE3B77B8";
paths = (
{
closed = 1;
nodes = (
"60 0 LINE",
"552 0 LINE",
"552 165 LINE",
"248 165 LINE",
"248 331 LINE",
"540 331 LINE",
"540 496 LINE",
"248 496 LINE",
"248 660 LINE",
"552 660 LINE",
"552 825 LINE",
"60 825 LINE"
);
}
);
width = 600;
},
{
anchors = (
{
name = bottom;
position = "{276, 0}";
},
{
name = ogonek;
position = "{497, 10}";
},
{
name = top;
position = "{276, 825}";
},
{
name = topleft;
position = "{20, 825}";
}
);
layerId = "7B60DD57-6012-4D0F-BD38-A72A4BAC0E9D";
paths = (
{
closed = 1;
nodes = (
"70 0 LINE",
"492 0 LINE",
"492 65 LINE",
"138 65 LINE",
"138 381 LINE",
"480 381 LINE",
"480 446 LINE",
"138 446 LINE",
"138 760 LINE",
"492 760 LINE",
"492 825 LINE",
"70 825 LINE"
);
}
);
width = 552;
}
);
rightKerningGroup = E;
unicode = 0045;
},
{
glyphname = F;
lastChange = "2018-06-08 12:42:10 +0000";
layers = (
{
anchors = (
{
name = bottom;
position = "{284, 0}";
},
{
name = top;
position = "{284, 825}";
}
);
layerId = "A4E552E4-62BE-43BB-A58F-34F0EE3B77B8";
paths = (
{
closed = 1;
nodes = (
"60 0 LINE",
"248 0 LINE",
"248 331 LINE",
"515 331 LINE",
"515 496 LINE",
"248 496 LINE",
"248 660 LINE",
"537 660 LINE",
"537 825 LINE",
"60 825 LINE"
);
}
);
width = 567;
},
{
anchors = (
{
name = bottom;
position = "{249, 0}";
},
{
name = top;
position = "{249, 825}";
}
);
layerId = "7B60DD57-6012-4D0F-BD38-A72A4BAC0E9D";
paths = (
{
closed = 1;
nodes = (
"60 0 LINE",
"128 0 LINE",
"128 381 LINE",
"445 381 LINE",
"445 446 LINE",
"128 446 LINE",
"128 760 LINE",
"467 760 LINE",
"467 825 LINE",
"60 825 LINE"
);
}
);
width = 497;
}
);
rightKerningGroup = d;
unicode = 0046;
},
{
glyphname = G;
lastChange = "2018-06-08 12:42:14 +0000";
layers = (
{
anchors = (
{
name = bottom;
position = "{415, 0}";
},
{
name = top;
position = "{415, 825}";
}
);
layerId = "A4E552E4-62BE-43BB-A58F-34F0EE3B77B8";
paths = (
{
closed = 1;
nodes = (
"425 317 LINE",
"615 317 LINE",
"615 216 OFFCURVE",
"539 161 OFFCURVE",
"436 161 CURVE SMOOTH",
"320 161 OFFCURVE",
"226 272 OFFCURVE",
"226 412 CURVE SMOOTH",
"226 555 OFFCURVE",
"320 667 OFFCURVE",
"436 667 CURVE SMOOTH",
"509 667 OFFCURVE",
"572 641 OFFCURVE",
"620 564 CURVE",
"743 699 LINE",
"671 786 OFFCURVE",
"570 840 OFFCURVE",
"425 840 CURVE SMOOTH",
"193 840 OFFCURVE",
"23 649 OFFCURVE",
"23 412 CURVE SMOOTH",
"23 176 OFFCURVE",
"203 -15 OFFCURVE",
"425 -15 CURVE SMOOTH",
"774 -15 OFFCURVE",
"802 290 OFFCURVE",
"810 324 CURVE",
"810 462 LINE",
"425 462 LINE"
);
}
);
width = 829;
},
{
anchors = (
{
name = bottom;
position = "{385, 0}";
},
{
name = top;
position = "{385, 825}";
}
);
layerId = "7B60DD57-6012-4D0F-BD38-A72A4BAC0E9D";
paths = (
{
closed = 1;
nodes = (
"395 377 LINE",
"675 377 LINE",
"675 174 OFFCURVE",
"568 53 OFFCURVE",
"395 53 CURVE SMOOTH",
"216 53 OFFCURVE",
"96 202 OFFCURVE",
"96 412 CURVE SMOOTH",
"96 625 OFFCURVE",
"231 774 OFFCURVE",
"397 774 CURVE SMOOTH",
"536 774 OFFCURVE",
"598 710 OFFCURVE",
"626 683 CURVE",
"679 732 LINE",
"641 768 OFFCURVE",
"562 840 OFFCURVE",
"397 840 CURVE SMOOTH",
"175 840 OFFCURVE",
"23 649 OFFCURVE",
"23 412 CURVE SMOOTH",
"23 176 OFFCURVE",
"163 -15 OFFCURVE",
"395 -15 CURVE SMOOTH",
"744 -15 OFFCURVE",
"750 350 OFFCURVE",
"750 384 CURVE",
"750 442 LINE",
"395 442 LINE"
);
}
);
width = 769;
}
);
leftKerningGroup = G;
rightKerningGroup = d;
unicode = 0047;
},
{
glyphname = H;
lastChange = "2018-06-08 12:42:30 +0000";
layers = (
{
anchors = (
{
name = bottom;
position = "{381, 0}";
},
{
name = center;
position = "{381, 413}";
},
{
name = top;
position = "{381, 825}";
},
{
name = topleft;
position = "{20, 825}";
}
);
layerId = "A4E552E4-62BE-43BB-A58F-34F0EE3B77B8";
paths = (
{
closed = 1;
nodes = (
"514 0 LINE",
"702 0 LINE",
"702 825 LINE",
"514 825 LINE",
"514 496 LINE",
"248 496 LINE",
"248 825 LINE",
"60 825 LINE",
"60 0 LINE",
"248 0 LINE",
"248 331 LINE",
"514 331 LINE"
);
}
);
width = 762;
},
{
anchors = (
{
name = bottom;
position = "{326, 0}";
},
{
name = center;
position = "{326, 413}";
},
{
name = top;
position = "{326, 825}";
},
{
name = topleft;
position = "{20, 825}";
}
);
layerId = "7B60DD57-6012-4D0F-BD38-A72A4BAC0E9D";
paths = (
{
closed = 1;
nodes = (
"524 0 LINE",
"592 0 LINE",
"592 825 LINE",
"524 825 LINE",
"524 446 LINE",
"128 446 LINE",
"128 825 LINE",
"60 825 LINE",
"60 0 LINE",
"128 0 LINE",
"128 381 LINE",
"524 381 LINE"
);
}
);
width = 652;
}
);
rightKerningGroup = d;
unicode = 0048;
},
{
glyphname = Hbar;
lastChange = "2017-03-21 23:54:07 +0000";
layers = (
{
components = (
{
name = H;
}
);
layerId = "7B60DD57-6012-4D0F-BD38-A72A4BAC0E9D";
paths = (
{
closed = 1;
nodes = (
"-1 628 LINE",
"661 628 LINE",
"661 678 LINE",
"-1 678 LINE"
);
}
);
width = 652;
},
{
components = (
{
name = H;
}
);
layerId = "A4E552E4-62BE-43BB-A58F-34F0EE3B77B8";
paths = (
{
closed = 1;
nodes = (
"-1 578 LINE",
"761 578 LINE",
"761 718 LINE",
"-1 718 LINE"
);
}
);
width = 762;
}
);
unicode = 0126;
},
{
glyphname = I;
lastChange = "2018-06-08 12:42:37 +0000";
layers = (
{
anchors = (
{
name = bottom;
position = "{154, 0}";
},
{
name = ogonek;
position = "{277, 10}";
},
{
name = top;
position = "{154, 825}";
},
{
name = topleft;
position = "{20, 825}";
}
);
layerId = "A4E552E4-62BE-43BB-A58F-34F0EE3B77B8";
paths = (
{
closed = 1;
nodes = (
"60 0 LINE",
"248 0 LINE",
"248 825 LINE",
"60 825 LINE"
);
}
);
width = 308;
},
{
anchors = (
{
name = bottom;
position = "{104, 0}";
},
{
name = ogonek;
position = "{187, 10}";
},
{
name = top;
position = "{104, 825}";
},
{
name = topleft;
position = "{20, 825}";
}
);
layerId = "7B60DD57-6012-4D0F-BD38-A72A4BAC0E9D";
paths = (
{
closed = 1;
nodes = (
"70 0 LINE",
"138 0 LINE",
"138 825 LINE",
"70 825 LINE"
);
}
);
width = 208;
}
);
leftKerningGroup = i;
rightKerningGroup = d;
unicode = 0049;
},
{
glyphname = J;
lastChange = "2018-06-08 12:42:59 +0000";
layers = (
{
anchors = (
{
name = bottom;
position = "{235, 0}";
},
{
name = top;
position = "{235, 825}";
}
);
layerId = "A4E552E4-62BE-43BB-A58F-34F0EE3B77B8";
paths = (
{
closed = 1;
nodes = (
"419 825 LINE",
"231 825 LINE",
"231 281 LINE SMOOTH",
"231 198 OFFCURVE",
"190 165 OFFCURVE",
"136 165 CURVE SMOOTH",
"88 165 OFFCURVE",
"29 221 OFFCURVE",
"29 221 CURVE",
"-31 64 LINE",
"-31 64 OFFCURVE",
"44 -15 OFFCURVE",
"162 -15 CURVE SMOOTH",
"327 -15 OFFCURVE",
"419 71 OFFCURVE",
"419 233 CURVE SMOOTH"
);
}
);
width = 469;
},
{
anchors = (
{
name = bottom;
position = "{210, 0}";
},
{
name = top;
position = "{210, 825}";
}
);
layerId = "7B60DD57-6012-4D0F-BD38-A72A4BAC0E9D";
paths = (
{
closed = 1;
nodes = (
"369 825 LINE",
"301 825 LINE",
"301 241 LINE SMOOTH",
"301 158 OFFCURVE",
"296 45 OFFCURVE",
"166 45 CURVE SMOOTH",
"54 45 OFFCURVE",
"-4 129 OFFCURVE",
"-4 129 CURVE",
"-33 61 LINE",
"-33 61 OFFCURVE",
"34 -15 OFFCURVE",
"164 -15 CURVE SMOOTH",
"329 -15 OFFCURVE",
"369 91 OFFCURVE",
"369 253 CURVE SMOOTH"
);
}
);
width = 419;
}
);
rightKerningGroup = d;
unicode = 004A;
},
{
glyphname = K;
lastChange = "2018-06-08 12:43:01 +0000";
layers = (
{
anchors = (
{
name = bottom;
position = "{381, 0}";
},
{
name = top;
position = "{381, 825}";
}
);
layerId = "A4E552E4-62BE-43BB-A58F-34F0EE3B77B8";
paths = (
{
closed = 1;
nodes = (
"729 825 LINE",
"501 825 LINE",
"248 488 LINE",
"248 825 LINE",
"60 825 LINE",
"60 0 LINE",
"248 0 LINE",
"248 360 LINE",
"522 0 LINE",
"761 0 LINE",
"417 434 LINE"
);
}
);
width = 761;
},
{
anchors = (
{
name = bottom;
position = "{276, 0}";
},
{
name = top;
position = "{276, 825}";
}
);
layerId = "7B60DD57-6012-4D0F-BD38-A72A4BAC0E9D";
paths = (
{
closed = 1;
nodes = (
"529 825 LINE",
"441 825 LINE",
"128 428 LINE",
"128 825 LINE",
"60 825 LINE",
"60 0 LINE",
"128 0 LINE",
"128 390 LINE",
"462 0 LINE",
"551 0 LINE",
"197 414 LINE"
);
}
);
width = 551;
}
);
rightKerningGroup = d;
unicode = 004B;
},
{
glyphname = L;
lastChange = "2018-06-08 12:43:10 +0000";
layers = (
{
anchors = (
{
name = bottom;
position = "{283, 0}";
},
{
name = center;
position = "{186, 413}";
},
{
name = top;
position = "{283, 825}";
},
{
name = topright;
position = "{545, 825}";
}
);
layerId = "A4E552E4-62BE-43BB-A58F-34F0EE3B77B8";
paths = (
{
closed = 1;
nodes = (
"60 0 LINE",
"532 0 LINE",
"532 165 LINE",
"248 165 LINE",
"248 825 LINE",
"60 825 LINE"
);
}
);
width = 565;
},
{
anchors = (
{
name = bottom;
position = "{248, 0}";
},
{
name = center;
position = "{107, 413}";
},
{
name = top;
position = "{248, 825}";
},
{
name = topright;
position = "{475, 825}";
}
);
layerId = "7B60DD57-6012-4D0F-BD38-A72A4BAC0E9D";
paths = (
{
closed = 1;
nodes = (
"60 0 LINE",
"462 0 LINE",
"462 65 LINE",
"128 65 LINE",
"128 825 LINE",
"60 825 LINE"
);
}
);
width = 495;
}
);
rightKerningGroup = L;
unicode = 004C;
},
{
glyphname = Lslash;
lastChange = "2017-03-21 23:36:11 +0000";
layers = (
{
layerId = "A4E552E4-62BE-43BB-A58F-34F0EE3B77B8";
paths = (
{
closed = 1;
nodes = (
"568 0 LINE",
"568 165 LINE",
"284 165 LINE",
"284 457 LINE",
"389 540 LINE",
"389 693 LINE",
"284 610 LINE",
"284 825 LINE",
"96 825 LINE",
"96 462 LINE",
"20 403 LINE",
"20 250 LINE",
"96 309 LINE",
"96 0 LINE"
);
}
);
width = 601;
},
{
layerId = "7B60DD57-6012-4D0F-BD38-A72A4BAC0E9D";
paths = (
{
closed = 1;
nodes = (
"512 0 LINE",
"512 65 LINE",
"178 65 LINE",
"178 444 LINE",
"257 506 LINE",
"257 589 LINE",
"178 527 LINE",
"178 825 LINE",
"110 825 LINE",
"110 474 LINE",
"20 403 LINE",
"20 320 LINE",
"110 391 LINE",
"110 0 LINE"
);
}
);
width = 545;
}
);
rightKerningGroup = L;
unicode = 0141;
},
{
glyphname = M;
lastChange = "2018-06-08 12:43:17 +0000";
layers = (
{
anchors = (
{
name = bottom;
position = "{454, 0}";
},
{
name = top;
position = "{454, 825}";
}
);
layerId = "A4E552E4-62BE-43BB-A58F-34F0EE3B77B8";
paths = (
{
closed = 1;
nodes = (
"670 825 LINE",
"455 301 LINE",
"449 279 LINE",
"443 301 LINE",
"228 825 LINE",
"30 825 LINE",
"30 0 LINE",
"218 0 LINE",
"218 461 LINE",
"226 423 LINE",
"383 0 LINE",
"515 0 LINE",
"672 423 LINE",
"680 461 LINE",
"680 0 LINE",
"868 0 LINE",
"868 825 LINE"
);
}
);
width = 908;
},
{
anchors = (
{
name = bottom;
position = "{394, 0}";
},
{
name = top;
position = "{394, 825}";
}
);
layerId = "7B60DD57-6012-4D0F-BD38-A72A4BAC0E9D";
paths = (
{
closed = 1;
nodes = (
"660 825 LINE",
"395 121 LINE",
"389 99 LINE",
"383 121 LINE",
"118 825 LINE",
"50 825 LINE",
"50 0 LINE",
"118 0 LINE",
"118 641 LINE",
"126 603 LINE",
"363 0 LINE",
"415 0 LINE",
"652 603 LINE",
"660 641 LINE",
"660 0 LINE",
"728 0 LINE",
"728 825 LINE"
);
}
);
width = 788;
}
);
rightKerningGroup = d;
unicode = 004D;
},
{
glyphname = N;
lastChange = "2018-06-08 12:43:37 +0000";
layers = (
{
anchors = (
{
name = bottom;
position = "{413, 0}";
},
{
name = top;
position = "{413, 825}";
}
);
layerId = "A4E552E4-62BE-43BB-A58F-34F0EE3B77B8";
paths = (
{
closed = 1;
nodes = (
"578 0 LINE",
"766 0 LINE",
"766 825 LINE",
"578 825 LINE",
"578 313 LINE",
"576 313 LINE",
"248 825 LINE",
"60 825 LINE",
"60 0 LINE",
"248 0 LINE",
"248 512 LINE",
"250 512 LINE"
);
}
);
width = 826;
},
{
anchors = (
{
name = bottom;
position = "{353, 0}";
},
{
name = top;
position = "{353, 825}";
}
);
layerId = "7B60DD57-6012-4D0F-BD38-A72A4BAC0E9D";
paths = (
{
closed = 1;
nodes = (
"578 0 LINE",
"646 0 LINE",
"646 825 LINE",
"578 825 LINE",
"578 125 LINE",
"576 125 LINE",
"128 825 LINE",
"60 825 LINE",
"60 0 LINE",
"128 0 LINE",
"128 695 LINE",
"130 695 LINE"
);
}
);
width = 706;
}
);
rightKerningGroup = d;
unicode = 004E;
},
{
glyphname = Eng;
lastChange = "2017-03-22 00:04:42 +0000";
layers = (
{
components = (
{
name = N;
}
);
layerId = "7B60DD57-6012-4D0F-BD38-A72A4BAC0E9D";
paths = (
{
closed = 1;
nodes = (
"646 -79 LINE SMOOTH",
"646 -180 OFFCURVE",
"618 -275 OFFCURVE",
"511 -275 CURVE SMOOTH",
"457 -275 OFFCURVE",
"423 -255 OFFCURVE",
"420 -253 CURVE",
"450 -190 LINE",
"450 -190 OFFCURVE",
"467 -213 OFFCURVE",
"509 -213 CURVE SMOOTH",
"569 -213 OFFCURVE",
"578 -143 OFFCURVE",
"578 -45 CURVE SMOOTH",
"578 0 LINE",
"646 0 LINE"
);
}
);
width = 706;
},
{
components = (
{
name = N;
}
);
layerId = "A4E552E4-62BE-43BB-A58F-34F0EE3B77B8";
paths = (
{
closed = 1;
nodes = (
"766 -79 LINE SMOOTH",
"766 -170 OFFCURVE",
"722 -275 OFFCURVE",
"570 -275 CURVE SMOOTH",
"486 -275 OFFCURVE",
"454 -254 OFFCURVE",
"429 -243 CURVE",
"484 -100 LINE",
"484 -100 OFFCURVE",
"507 -115 OFFCURVE",
"529 -115 CURVE SMOOTH",
"559 -115 OFFCURVE",
"578 -93 OFFCURVE",
"578 -45 CURVE SMOOTH",
"578 0 LINE",
"766 0 LINE"
);
}
);
width = 826;
}
);
unicode = 014A;
},
{
glyphname = O;
lastChange = "2018-06-08 12:43:52 +0000";
layers = (
{
anchors = (
{
name = bottom;
position = "{439, 0}";
},
{
name = center;
position = "{439, 413}";
},
{
name = ogonek;
position = "{789, 10}";
},
{
name = top;
position = "{439, 825}";
},
{
name = topleft;
position = "{20, 825}";
},
{
name = topright;
position = "{857, 825}";
}
);
layerId = "A4E552E4-62BE-43BB-A58F-34F0EE3B77B8";
paths = (
{
closed = 1;
nodes = (
"226 536 OFFCURVE",
"294 659 OFFCURVE",
"439 659 CURVE SMOOTH",
"585 659 OFFCURVE",
"651 536 OFFCURVE",
"651 413 CURVE SMOOTH",
"651 290 OFFCURVE",
"589 167 OFFCURVE",
"439 167 CURVE SMOOTH",
"285 167 OFFCURVE",
"226 290 OFFCURVE",
"226 413 CURVE SMOOTH"
);
},
{
closed = 1;
nodes = (
"23 172 OFFCURVE",
"195 -15 OFFCURVE",
"439 -15 CURVE SMOOTH",
"676 -15 OFFCURVE",
"854 172 OFFCURVE",
"854 413 CURVE SMOOTH",
"854 654 OFFCURVE",
"668 840 OFFCURVE",
"439 840 CURVE SMOOTH",
"212 840 OFFCURVE",
"23 654 OFFCURVE",
"23 413 CURVE SMOOTH"
);
}
);
width = 877;
},
{
anchors = (
{
name = bottom;
position = "{409, 0}";
},
{
name = center;
position = "{409, 413}";
},
{
name = ogonek;
position = "{735, 10}";
},
{
name = top;
position = "{409, 825}";
},
{
name = topleft;
position = "{20, 825}";
},
{
name = topright;
position = "{797, 825}";
}
);
layerId = "7B60DD57-6012-4D0F-BD38-A72A4BAC0E9D";
paths = (
{
closed = 1;
nodes = (
"96 606 OFFCURVE",
"214 779 OFFCURVE",
"409 779 CURVE SMOOTH",
"605 779 OFFCURVE",
"721 606 OFFCURVE",
"721 413 CURVE SMOOTH",
"721 220 OFFCURVE",
"609 47 OFFCURVE",
"409 47 CURVE SMOOTH",
"205 47 OFFCURVE",
"96 220 OFFCURVE",
"96 413 CURVE SMOOTH"
);
},
{
closed = 1;
nodes = (
"23 172 OFFCURVE",
"165 -15 OFFCURVE",
"409 -15 CURVE SMOOTH",
"646 -15 OFFCURVE",
"794 172 OFFCURVE",
"794 413 CURVE SMOOTH",
"794 654 OFFCURVE",
"638 840 OFFCURVE",
"409 840 CURVE SMOOTH",
"182 840 OFFCURVE",
"23 654 OFFCURVE",
"23 413 CURVE SMOOTH"
);
}
);
width = 817;
}
);
leftKerningGroup = O;
rightKerningGroup = O;
unicode = 004F;
},
{
glyphname = Oslash;
lastChange = "2017-03-21 23:57:58 +0000";
layers = (
{
layerId = "A4E552E4-62BE-43BB-A58F-34F0EE3B77B8";
paths = (
{
closed = 1;
nodes = (
"230 38 LINE",
"290 4 OFFCURVE",
"361 -15 OFFCURVE",
"439 -15 CURVE SMOOTH",
"676 -15 OFFCURVE",
"854 172 OFFCURVE",
"854 413 CURVE SMOOTH",
"854 522 OFFCURVE",
"815 620 OFFCURVE",
"752 694 CURVE",
"810 767 LINE",
"698 853 LINE",
"644 785 LINE",
"583 820 OFFCURVE",
"513 840 OFFCURVE",
"439 840 CURVE SMOOTH",
"212 840 OFFCURVE",
"23 654 OFFCURVE",
"23 413 CURVE SMOOTH",
"23 302 OFFCURVE",
"59 203 OFFCURVE",
"122 128 CURVE",
"67 59 LINE",
"179 -27 LINE"
);
},
{
closed = 1;
nodes = (
"403 167 OFFCURVE",
"373 173 OFFCURVE",
"347 185 CURVE",
"626 536 LINE",
"643 498 OFFCURVE",
"651 455 OFFCURVE",
"651 413 CURVE SMOOTH",
"651 290 OFFCURVE",
"589 167 OFFCURVE",
"439 167 CURVE SMOOTH"
);
},
{
closed = 1;
nodes = (
"233 326 OFFCURVE",
"226 370 OFFCURVE",
"226 413 CURVE SMOOTH",
"226 536 OFFCURVE",
"294 659 OFFCURVE",
"439 659 CURVE SMOOTH",
"473 659 OFFCURVE",
"503 652 OFFCURVE",
"528 640 CURVE",
"249 288 LINE"
);
}
);
width = 877;
},
{
layerId = "7B60DD57-6012-4D0F-BD38-A72A4BAC0E9D";
paths = (
{
closed = 1;
nodes = (
"172 63 LINE",
"233 14 OFFCURVE",
"313 -15 OFFCURVE",
"409 -15 CURVE SMOOTH",
"646 -15 OFFCURVE",
"794 172 OFFCURVE",
"794 413 CURVE SMOOTH",
"794 532 OFFCURVE",
"756 637 OFFCURVE",
"690 714 CURVE",
"755 795 LINE",
"711 829 LINE",
"651 753 LINE",
"587 808 OFFCURVE",
"504 840 OFFCURVE",
"409 840 CURVE SMOOTH",
"182 840 OFFCURVE",
"23 654 OFFCURVE",
"23 413 CURVE SMOOTH",
"23 289 OFFCURVE",
"61 179 OFFCURVE",
"131 101 CURVE",
"70 25 LINE",
"114 -9 LINE"
);
},
{
closed = 1;
nodes = (
"329 47 OFFCURVE",
"264 73 OFFCURVE",
"214 117 CURVE",
"646 658 LINE",
"695 592 OFFCURVE",
"721 505 OFFCURVE",
"721 413 CURVE SMOOTH",
"721 220 OFFCURVE",
"609 47 OFFCURVE",
"409 47 CURVE SMOOTH"
);
},
{
closed = 1;
nodes = (
"123 225 OFFCURVE",
"96 317 OFFCURVE",
"96 413 CURVE SMOOTH",
"96 606 OFFCURVE",
"214 779 OFFCURVE",
"409 779 CURVE SMOOTH",
"490 779 OFFCURVE",
"558 749 OFFCURVE",
"609 701 CURVE",
"176 158 LINE"
);
}
);
width = 817;
}
);
leftKerningGroup = O;
rightKerningGroup = O;
unicode = 00D8;
},
{
glyphname = OE;
lastChange = "2018-06-08 12:43:56 +0000";
layers = (
{
anchors = (
{
name = bottom;
position = "{505, 0}";
},
{
name = top;
position = "{505, 825}";
}
);
layerId = "A4E552E4-62BE-43BB-A58F-34F0EE3B77B8";
paths = (
{
closed = 1;
nodes = (
"962 0 LINE",
"962 165 LINE",
"678 165 LINE",
"678 331 LINE",
"950 331 LINE",
"950 496 LINE",
"678 496 LINE",
"678 660 LINE",
"962 660 LINE",
"962 825 LINE",
"439 825 LINE SMOOTH",
"212 825 OFFCURVE",
"23 653 OFFCURVE",
"23 412 CURVE SMOOTH",
"23 171 OFFCURVE",
"212 0 OFFCURVE",
"439 0 CURVE SMOOTH"
);
},
{
closed = 1;
nodes = (
"321 168 OFFCURVE",
"226 275 OFFCURVE",
"226 413 CURVE SMOOTH",
"226 550 OFFCURVE",
"321 657 OFFCURVE",
"461 657 CURVE SMOOTH",
"490 657 LINE",
"490 168 LINE",
"461 168 LINE SMOOTH"
);
}
);
width = 1010;
},
{
anchors = (
{
name = bottom;
position = "{460, 0}";
},
{
name = top;
position = "{460, 825}";
}
);
layerId = "7B60DD57-6012-4D0F-BD38-A72A4BAC0E9D";
paths = (
{
closed = 1;
nodes = (
"871 0 LINE",
"871 65 LINE",
"517 65 LINE",
"517 381 LINE",
"859 381 LINE",
"859 446 LINE",
"517 446 LINE",
"517 760 LINE",
"871 760 LINE",
"871 825 LINE",
"409 825 LINE SMOOTH",
"182 825 OFFCURVE",
"23 654 OFFCURVE",
"23 413 CURVE SMOOTH",
"23 172 OFFCURVE",
"165 0 OFFCURVE",
"409 0 CURVE SMOOTH"
);
},
{
closed = 1;
nodes = (
"205 62 OFFCURVE",
"96 220 OFFCURVE",
"96 413 CURVE SMOOTH",
"96 606 OFFCURVE",
"214 764 OFFCURVE",
"409 764 CURVE SMOOTH",
"449 764 LINE",
"449 62 LINE",
"409 62 LINE SMOOTH"
);
}
);
width = 919;
}
);
rightKerningGroup = d;
unicode = 0152;
},
{
glyphname = P;
lastChange = "2018-06-08 12:43:59 +0000";
layers = (
{
anchors = (
{
name = bottom;
position = "{333, 0}";
},
{
name = top;
position = "{333, 825}";
}
);
layerId = "A4E552E4-62BE-43BB-A58F-34F0EE3B77B8";
paths = (
{
closed = 1;
nodes = (
"60 0 LINE",
"248 0 LINE",
"248 306 LINE",
"361 306 LINE SMOOTH",
"522 306 OFFCURVE",
"643 401 OFFCURVE",
"643 571 CURVE SMOOTH",
"643 742 OFFCURVE",
"522 825 OFFCURVE",
"361 825 CURVE SMOOTH",
"60 825 LINE"
);
},
{
closed = 1;
nodes = (
"248 675 LINE",
"301 675 LINE SMOOTH",
"375 675 OFFCURVE",
"445 650 OFFCURVE",
"445 565 CURVE SMOOTH",
"445 481 OFFCURVE",
"375 456 OFFCURVE",
"301 456 CURVE SMOOTH",
"248 456 LINE"
);
}
);
width = 666;
},
{
anchors = (
{
name = bottom;
position = "{283, 0}";
},
{
name = top;
position = "{283, 825}";
}
);
layerId = "7B60DD57-6012-4D0F-BD38-A72A4BAC0E9D";
paths = (
{
closed = 1;
nodes = (
"70 0 LINE",
"138 0 LINE",
"138 336 LINE",
"271 336 LINE SMOOTH",
"432 336 OFFCURVE",
"543 414 OFFCURVE",
"543 584 CURVE SMOOTH",
"543 755 OFFCURVE",
"432 825 OFFCURVE",
"271 825 CURVE SMOOTH",
"70 825 LINE"
);
},
{
closed = 1;
nodes = (
"138 760 LINE",
"251 760 LINE SMOOTH",
"355 760 OFFCURVE",
"479 734 OFFCURVE",
"479 584 CURVE SMOOTH",
"479 432 OFFCURVE",
"355 401 OFFCURVE",
"251 401 CURVE SMOOTH",
"138 401 LINE"
);
}
);
width = 566;
}
);
rightKerningGroup = d;
unicode = 0050;
},
{
glyphname = Thorn;
lastChange = "2017-03-22 00:01:47 +0000";
layers = (
{
layerId = "A4E552E4-62BE-43BB-A58F-34F0EE3B77B8";
paths = (
{
closed = 1;
nodes = (
"60 0 LINE",
"248 0 LINE",
"248 153 LINE",
"361 153 LINE SMOOTH",
"522 153 OFFCURVE",
"643 248 OFFCURVE",
"643 418 CURVE SMOOTH",
"643 589 OFFCURVE",
"522 672 OFFCURVE",
"361 672 CURVE SMOOTH",
"248 672 LINE",
"248 825 LINE",
"60 825 LINE"
);
},
{
closed = 1;
nodes = (
"248 522 LINE",
"301 522 LINE SMOOTH",
"375 522 OFFCURVE",
"440 496 OFFCURVE",
"440 412 CURVE SMOOTH",
"440 329 OFFCURVE",
"375 303 OFFCURVE",
"301 303 CURVE SMOOTH",
"248 303 LINE"
);
}
);
width = 666;
},
{
layerId = "7B60DD57-6012-4D0F-BD38-A72A4BAC0E9D";
paths = (
{
closed = 1;
nodes = (
"60 0 LINE",
"128 0 LINE",
"128 153 LINE",
"271 153 LINE SMOOTH",
"432 153 OFFCURVE",
"533 248 OFFCURVE",
"533 418 CURVE SMOOTH",
"533 589 OFFCURVE",
"432 672 OFFCURVE",
"271 672 CURVE SMOOTH",
"128 672 LINE",
"128 825 LINE",
"60 825 LINE"
);
},
{
closed = 1;
nodes = (
"128 607 LINE",
"281 607 LINE SMOOTH",
"395 607 OFFCURVE",
"470 552 OFFCURVE",
"470 418 CURVE SMOOTH",
"470 285 OFFCURVE",
"395 218 OFFCURVE",
"281 218 CURVE SMOOTH",
"128 218 LINE"
);
}
);
width = 556;
}
);
rightKerningGroup = d;
unicode = 00DE;
},
{
glyphname = Q;
lastChange = "2018-06-08 12:44:01 +0000";
layers = (
{
anchors = (
{
name = bottom;
position = "{434, 0}";
},
{
name = top;
position = "{434, 825}";
}
);
layerId = "A4E552E4-62BE-43BB-A58F-34F0EE3B77B8";
paths = (
{
closed = 1;
nodes = (
"815 -205 OFFCURVE",
"868 -93 OFFCURVE",
"868 -93 CURVE",
"809 34 LINE",
"809 34 OFFCURVE",
"770 -20 OFFCURVE",
"685 -20 CURVE SMOOTH",
"636 -20 OFFCURVE",
"576 -1 OFFCURVE",
"557 -1 CURVE",
"728 51 OFFCURVE",
"844 216 OFFCURVE",
"844 413 CURVE SMOOTH",
"844 654 OFFCURVE",
"663 840 OFFCURVE",
"434 840 CURVE SMOOTH",
"207 840 OFFCURVE",
"23 654 OFFCURVE",
"23 413 CURVE SMOOTH",
"23 201 OFFCURVE",
"152 31 OFFCURVE",
"348 -7 CURVE",
"288 -7 OFFCURVE",
"216 -105 OFFCURVE",
"216 -105 CURVE",
"261 -173 LINE",
"261 -173 OFFCURVE",
"305 -127 OFFCURVE",
"383 -127 CURVE SMOOTH",
"510 -127 OFFCURVE",
"561 -205 OFFCURVE",
"684 -205 CURVE SMOOTH"
);
},
{
closed = 1;
nodes = (
"280 175 OFFCURVE",
"226 290 OFFCURVE",
"226 413 CURVE SMOOTH",
"226 536 OFFCURVE",
"289 651 OFFCURVE",
"434 651 CURVE SMOOTH",
"580 651 OFFCURVE",
"641 536 OFFCURVE",
"641 413 CURVE SMOOTH",
"641 290 OFFCURVE",
"584 175 OFFCURVE",
"434 175 CURVE SMOOTH"
);
}
);
width = 867;
},
{
anchors = (
{
name = bottom;
position = "{396, 0}";
},
{
name = top;
position = "{396, 825}";
}
);
layerId = "7B60DD57-6012-4D0F-BD38-A72A4BAC0E9D";
paths = (
{
closed = 1;
nodes = (
"767 -119 OFFCURVE",
"808 -79 OFFCURVE",
"808 -79 CURVE",
"771 -14 LINE",
"771 -14 OFFCURVE",
"729 -49 OFFCURVE",
"654 -49 CURVE SMOOTH",
"592 -49 OFFCURVE",
"561 -19 OFFCURVE",
"493 -7 CURVE",
"680 32 OFFCURVE",
"794 202 OFFCURVE",
"794 413 CURVE SMOOTH",
"794 654 OFFCURVE",
"638 840 OFFCURVE",
"409 840 CURVE SMOOTH",
"182 840 OFFCURVE",
"23 654 OFFCURVE",
"23 413 CURVE SMOOTH",
"23 197 OFFCURVE",
"137 25 OFFCURVE",
"336 -9 CURVE",
"272 -28 OFFCURVE",
"226 -75 OFFCURVE",
"226 -75 CURVE",
"260 -116 LINE",
"260 -116 OFFCURVE",
"319 -57 OFFCURVE",
"397 -57 CURVE SMOOTH",
"504 -57 OFFCURVE",
"543 -119 OFFCURVE",
"656 -119 CURVE SMOOTH"
);
},
{
closed = 1;
nodes = (
"205 47 OFFCURVE",
"96 220 OFFCURVE",
"96 413 CURVE SMOOTH",
"96 606 OFFCURVE",
"214 779 OFFCURVE",
"409 779 CURVE SMOOTH",
"605 779 OFFCURVE",
"721 606 OFFCURVE",
"721 413 CURVE SMOOTH",
"721 220 OFFCURVE",
"609 47 OFFCURVE",
"409 47 CURVE SMOOTH"
);
}
);
width = 791;
}
);
rightKerningGroup = d;
unicode = 0051;
},
{
glyphname = Q.ss01;
lastChange = "2018-06-08 12:44:05 +0000";
layers = (
{
anchors = (
{
name = bottom;
position = "{438, 0}";
},
{
name = top;
position = "{438, 825}";
}
);
layerId = "A4E552E4-62BE-43BB-A58F-34F0EE3B77B8";
paths = (
{
closed = 1;
nodes = (
"226 536 OFFCURVE",
"294 659 OFFCURVE",
"439 659 CURVE SMOOTH",
"585 659 OFFCURVE",
"651 536 OFFCURVE",
"651 413 CURVE SMOOTH",
"651 290 OFFCURVE",
"589 167 OFFCURVE",
"439 167 CURVE SMOOTH",
"285 167 OFFCURVE",
"226 290 OFFCURVE",
"226 413 CURVE SMOOTH"
);
},
{
closed = 1;
nodes = (
"23 172 OFFCURVE",
"195 -15 OFFCURVE",
"439 -15 CURVE SMOOTH",
"676 -15 OFFCURVE",
"854 172 OFFCURVE",
"854 413 CURVE SMOOTH",
"854 654 OFFCURVE",
"668 840 OFFCURVE",
"439 840 CURVE SMOOTH",
"212 840 OFFCURVE",
"23 654 OFFCURVE",
"23 413 CURVE SMOOTH"
);
},
{
closed = 1;
nodes = (
"655 -104 LINE",
"860 -104 LINE",
"631 288 LINE",
"426 288 LINE"
);
}
);
width = 875;
},
{
anchors = (
{
name = bottom;
position = "{408, 0}";
},
{
name = top;
position = "{408, 825}";
}
);
layerId = "7B60DD57-6012-4D0F-BD38-A72A4BAC0E9D";
paths = (
{
closed = 1;
nodes = (
"97 649 OFFCURVE",
"244 775 OFFCURVE",
"399 775 CURVE SMOOTH",
"555 775 OFFCURVE",
"700 649 OFFCURVE",
"700 413 CURVE SMOOTH",
"700 177 OFFCURVE",
"559 51 OFFCURVE",
"399 51 CURVE SMOOTH",
"235 51 OFFCURVE",
"97 177 OFFCURVE",
"97 413 CURVE SMOOTH"
);
},
{
closed = 1;
nodes = (
"23 112 OFFCURVE",
"205 -15 OFFCURVE",
"399 -15 CURVE SMOOTH",
"586 -15 OFFCURVE",
"774 112 OFFCURVE",
"774 413 CURVE SMOOTH",
"774 714 OFFCURVE",
"578 840 OFFCURVE",
"399 840 CURVE SMOOTH",
"222 840 OFFCURVE",
"23 714 OFFCURVE",
"23 413 CURVE SMOOTH"
);
},
{
closed = 1;
nodes = (
"670 -104 LINE",
"755 -104 LINE",
"526 288 LINE",
"441 288 LINE"
);
}
);
width = 815;
}
);
},
{
glyphname = Q.ss02;
lastChange = "2018-06-08 12:44:08 +0000";
layers = (
{
anchors = (
{
name = bottom;
position = "{438, 0}";
},
{
name = top;
position = "{438, 825}";
}
);
layerId = "A4E552E4-62BE-43BB-A58F-34F0EE3B77B8";
paths = (
{
closed = 1;
nodes = (
"520 -15 OFFCURVE",
"598 9 OFFCURVE",
"662 53 CURVE",
"699 27 OFFCURVE",
"752 -3 OFFCURVE",
"813 -26 CURVE",
"896 142 LINE",
"847 155 OFFCURVE",
"810 169 OFFCURVE",
"783 182 CURVE",
"822 248 OFFCURVE",
"844 327 OFFCURVE",
"844 413 CURVE SMOOTH",
"844 654 OFFCURVE",
"663 840 OFFCURVE",
"434 840 CURVE SMOOTH",
"207 840 OFFCURVE",
"23 654 OFFCURVE",
"23 413 CURVE SMOOTH",
"23 172 OFFCURVE",
"190 -15 OFFCURVE",
"434 -15 CURVE SMOOTH"
);
},
{
closed = 1;
nodes = (
"280 175 OFFCURVE",
"226 290 OFFCURVE",
"226 413 CURVE SMOOTH",
"226 536 OFFCURVE",
"289 651 OFFCURVE",
"434 651 CURVE SMOOTH",
"580 651 OFFCURVE",
"641 536 OFFCURVE",
"641 413 CURVE SMOOTH",
"641 363 OFFCURVE",
"632 315 OFFCURVE",
"611 275 CURVE",
"527 332 OFFCURVE",
"471 394 OFFCURVE",
"471 394 CURVE",
"391 294 LINE",
"409 271 OFFCURVE",
"446 226 OFFCURVE",
"493 182 CURVE",
"475 177 OFFCURVE",
"455 175 OFFCURVE",
"434 175 CURVE SMOOTH"
);
}
);
width = 876;
},
{
anchors = (
{
name = bottom;
position = "{417, 0}";
},
{
name = top;
position = "{417, 825}";
}
);
layerId = "7B60DD57-6012-4D0F-BD38-A72A4BAC0E9D";
paths = (
{
closed = 1;
nodes = (
"520 -15 OFFCURVE",
"611 26 OFFCURVE",
"677 94 CURVE",
"731 63 OFFCURVE",
"783 41 OFFCURVE",
"824 30 CURVE",
"856 90 LINE",
"827 96 OFFCURVE",
"776 116 OFFCURVE",
"719 146 CURVE",
"767 218 OFFCURVE",
"794 311 OFFCURVE",
"794 413 CURVE SMOOTH",
"794 654 OFFCURVE",
"638 840 OFFCURVE",
"409 840 CURVE SMOOTH",
"182 840 OFFCURVE",
"23 654 OFFCURVE",
"23 413 CURVE SMOOTH",
"23 172 OFFCURVE",
"165 -15 OFFCURVE",
"409 -15 CURVE SMOOTH"
);
},
{
closed = 1;
nodes = (
"205 47 OFFCURVE",
"96 220 OFFCURVE",
"96 413 CURVE SMOOTH",
"96 606 OFFCURVE",
"214 779 OFFCURVE",
"409 779 CURVE SMOOTH",
"605 779 OFFCURVE",
"721 606 OFFCURVE",
"721 413 CURVE SMOOTH",
"721 327 OFFCURVE",
"699 245 OFFCURVE",
"656 181 CURVE",
"598 216 OFFCURVE",
"539 259 OFFCURVE",
"494 306 CURVE",
"458 261 LINE",
"502 214 OFFCURVE",
"558 169 OFFCURVE",
"616 131 CURVE",
"565 79 OFFCURVE",
"495 47 OFFCURVE",
"409 47 CURVE SMOOTH"
);
}
);
width = 833;
}
);
leftKerningGroup = G;
rightKerningGroup = d;
},
{
glyphname = R;
lastChange = "2018-06-08 12:40:29 +0000";
layers = (
{
anchors = (
{
name = bottom;
position = "{358, 0}";
},
{
name = top;
position = "{358, 825}";
}
);
layerId = "A4E552E4-62BE-43BB-A58F-34F0EE3B77B8";
paths = (
{
closed = 1;
nodes = (
"60 0 LINE",
"248 0 LINE",
"248 326 LINE",
"249 326 LINE",
"470 0 LINE",
"709 0 LINE",
"455 341 LINE",
"556 373 OFFCURVE",
"624 456 OFFCURVE",
"624 580 CURVE SMOOTH",
"624 742 OFFCURVE",
"518 825 OFFCURVE",
"365 825 CURVE SMOOTH",
"60 825 LINE"
);
},
{
closed = 1;
nodes = (
"248 675 LINE",
"270 675 LINE SMOOTH",
"341 675 OFFCURVE",
"426 670 OFFCURVE",
"426 567 CURVE SMOOTH",
"426 464 OFFCURVE",
"341 459 OFFCURVE",
"270 459 CURVE SMOOTH",
"248 459 LINE"
);
}
);
width = 716;
},
{
anchors = (
{
name = bottom;
position = "{290, 0}";
},
{
name = top;
position = "{290, 825}";
}
);
layerId = "7B60DD57-6012-4D0F-BD38-A72A4BAC0E9D";
paths = (
{
closed = 1;
nodes = (
"60 0 LINE",
"128 0 LINE",
"128 356 LINE",
"255 356 LINE",
"479 0 LINE",
"559 0 LINE",
"332 362 LINE",
"390 369 OFFCURVE",
"534 418 OFFCURVE",
"534 595 CURVE SMOOTH",
"534 762 OFFCURVE",
"424 825 OFFCURVE",
"265 825 CURVE SMOOTH",
"60 825 LINE"
);
},
{
closed = 1;
nodes = (
"128 760 LINE",
"262 760 LINE SMOOTH",
"394 760 OFFCURVE",
"471 707 OFFCURVE",
"471 594 CURVE SMOOTH",
"471 481 OFFCURVE",
"394 419 OFFCURVE",
"265 419 CURVE SMOOTH",
"128 419 LINE"
);
}
);
width = 579;
}
);
rightKerningGroup = R;
unicode = 0052;
},
{
glyphname = S;
lastChange = "2018-06-08 12:44:15 +0000";
layers = (
{
anchors = (
{
name = bottom;
position = "{336, 0}";
},
{
name = top;
position = "{336, 825}";
}
);
layerId = "A4E552E4-62BE-43BB-A58F-34F0EE3B77B8";
paths = (
{
closed = 1;
nodes = (
"231 840 OFFCURVE",
"90 752 OFFCURVE",
"90 598 CURVE SMOOTH",
"90 512 OFFCURVE",
"153 425 OFFCURVE",
"252 376 CURVE SMOOTH",
"350 327 OFFCURVE",
"438 300 OFFCURVE",
"438 240 CURVE SMOOTH",
"438 163 OFFCURVE",
"360 159 OFFCURVE",
"319 159 CURVE SMOOTH",
"227 159 OFFCURVE",
"117 252 OFFCURVE",
"117 252 CURVE",
"23 94 LINE",
"23 94 OFFCURVE",
"140 -15 OFFCURVE",
"333 -15 CURVE SMOOTH",
"494 -15 OFFCURVE",
"644 54 OFFCURVE",
"644 251 CURVE SMOOTH",
"644 359 OFFCURVE",
"543 437 OFFCURVE",
"451 476 CURVE SMOOTH",
"357 516 OFFCURVE",
"273 550 OFFCURVE",
"273 602 CURVE SMOOTH",
"273 647 OFFCURVE",
"313 669 OFFCURVE",
"377 669 CURVE SMOOTH",
"462 669 OFFCURVE",
"544 612 OFFCURVE",
"544 612 CURVE",
"620 762 LINE",
"620 762 OFFCURVE",
"514 840 OFFCURVE",
"364 840 CURVE SMOOTH"
);
}
);
width = 672;
},
{
anchors = (
{
name = bottom;
position = "{291, 0}";
},
{
name = top;
position = "{291, 825}";
}
);
layerId = "7B60DD57-6012-4D0F-BD38-A72A4BAC0E9D";
paths = (
{
closed = 1;
nodes = (
"181 840 OFFCURVE",
"75 752 OFFCURVE",
"75 638 CURVE SMOOTH",
"75 542 OFFCURVE",
"142 485 OFFCURVE",
"255 426 CURVE SMOOTH",
"353 375 OFFCURVE",
"483 337 OFFCURVE",
"483 211 CURVE SMOOTH",
"483 113 OFFCURVE",
"406 54 OFFCURVE",
"283 54 CURVE SMOOTH",
"162 54 OFFCURVE",
"64 136 OFFCURVE",
"64 136 CURVE",
"23 68 LINE",
"23 68 OFFCURVE",
"136 -15 OFFCURVE",
"283 -15 CURVE SMOOTH",
"444 -15 OFFCURVE",
"554 74 OFFCURVE",
"554 211 CURVE SMOOTH",
"554 363 OFFCURVE",
"434 419 OFFCURVE",
"330 468 CURVE SMOOTH",
"234 513 OFFCURVE",
"149 558 OFFCURVE",
"149 638 CURVE SMOOTH",
"149 720 OFFCURVE",
"210 774 OFFCURVE",
"321 774 CURVE SMOOTH",
"426 774 OFFCURVE",
"504 715 OFFCURVE",
"504 715 CURVE",
"536 775 LINE",
"536 775 OFFCURVE",
"451 840 OFFCURVE",
"314 840 CURVE SMOOTH"
);
}
);
width = 582;
}
);
leftKerningGroup = S;
rightKerningGroup = d;
unicode = 0053;
},
{
glyphname = T;
lastChange = "2018-06-08 12:40:37 +0000";
layers = (
{
anchors = (
{
name = bottom;
position = "{298, 0}";
},
{
name = center;
position = "{298, 413}";
},
{
name = top;
position = "{298, 825}";
}
);
layerId = "A4E552E4-62BE-43BB-A58F-34F0EE3B77B8";
paths = (
{
closed = 1;
nodes = (
"204 0 LINE",
"392 0 LINE",
"392 660 LINE",
"588 660 LINE",
"588 825 LINE",
"8 825 LINE",
"8 660 LINE",
"204 660 LINE"
);
}
);
width = 596;
},
{
anchors = (
{
name = bottom;
position = "{278, 0}";
},
{
name = center;
position = "{278, 413}";
},
{
name = top;
position = "{278, 825}";
}
);
layerId = "7B60DD57-6012-4D0F-BD38-A72A4BAC0E9D";
paths = (
{
closed = 1;
nodes = (
"244 0 LINE",
"312 0 LINE",
"312 760 LINE",
"548 760 LINE",
"548 825 LINE",
"8 825 LINE",
"8 760 LINE",
"244 760 LINE"
);
}
);
width = 556;
}
);
leftKerningGroup = T;
rightKerningGroup = T;
unicode = 0054;
},
{
glyphname = Tbar;
lastChange = "2017-03-22 00:15:11 +0000";
layers = (
{
components = (
{
name = T;
transform = "{1, 0, 0, 1, 1, 0}";
}
);
layerId = "7B60DD57-6012-4D0F-BD38-A72A4BAC0E9D";
paths = (
{
closed = 1;
nodes = (
"8 415 LINE",
"529 415 LINE",
"529 485 LINE",
"8 485 LINE"
);
}
);
width = 557;
},
{
components = (
{
name = T;
}
);
layerId = "A4E552E4-62BE-43BB-A58F-34F0EE3B77B8";
paths = (
{
closed = 1;
nodes = (
"7 375 LINE",
"588 375 LINE",
"588 515 LINE",
"7 515 LINE"
);
}
);
width = 596;
}
);
unicode = 0166;
},
{
glyphname = U;
lastChange = "2018-06-08 12:44:25 +0000";
layers = (
{
anchors = (
{
name = bottom;
position = "{372, 0}";
},
{
name = ogonek;
position = "{670, 10}";
},
{
name = top;
position = "{372, 825}";
},
{
name = topright;
position = "{724, 825}";
}
);
layerId = "A4E552E4-62BE-43BB-A58F-34F0EE3B77B8";
paths = (
{
closed = 1;
nodes = (
"506 388 LINE SMOOTH",
"506 230 OFFCURVE",
"464 170 OFFCURVE",
"372 170 CURVE SMOOTH",
"280 170 OFFCURVE",
"238 230 OFFCURVE",
"238 388 CURVE SMOOTH",
"238 825 LINE",
"50 825 LINE",
"50 333 LINE SMOOTH",
"50 129 OFFCURVE",
"162 -15 OFFCURVE",
"372 -15 CURVE SMOOTH",
"582 -15 OFFCURVE",
"694 129 OFFCURVE",
"694 333 CURVE SMOOTH",
"694 825 LINE",
"506 825 LINE"
);
}
);
width = 744;
},
{
anchors = (
{
name = bottom;
position = "{332, 0}";
},
{
name = ogonek;
position = "{598, 10}";
},
{
name = top;
position = "{332, 825}";
},
{
name = topright;
position = "{644, 825}";
}
);
layerId = "7B60DD57-6012-4D0F-BD38-A72A4BAC0E9D";
paths = (
{
closed = 1;
nodes = (
"536 298 LINE SMOOTH",
"536 170 OFFCURVE",
"474 50 OFFCURVE",
"332 50 CURVE SMOOTH",
"190 50 OFFCURVE",
"128 170 OFFCURVE",
"128 298 CURVE SMOOTH",
"128 825 LINE",
"60 825 LINE",
"60 313 LINE SMOOTH",
"60 109 OFFCURVE",
"152 -15 OFFCURVE",
"332 -15 CURVE SMOOTH",
"512 -15 OFFCURVE",
"604 109 OFFCURVE",
"604 313 CURVE SMOOTH",
"604 825 LINE",
"536 825 LINE"
);
}
);
width = 664;
}
);
rightKerningGroup = d;
unicode = 0055;
},
{
glyphname = V;
lastChange = "2018-06-08 12:44:28 +0000";
layers = (
{
anchors = (
{
name = bottom;
position = "{392, 0}";
},
{
name = top;
position = "{392, 825}";
}
);
layerId = "A4E552E4-62BE-43BB-A58F-34F0EE3B77B8";
paths = (
{
closed = 1;
nodes = (
"792 825 LINE",
"580 825 LINE",
"392 303 LINE",
"204 825 LINE",
"-8 825 LINE",
"315 0 LINE",
"469 0 LINE"
);
}
);
width = 784;
},
{
anchors = (
{
name = bottom;
position = "{342, 0}";
},
{
name = top;
position = "{342, 825}";
}
);
layerId = "7B60DD57-6012-4D0F-BD38-A72A4BAC0E9D";
paths = (
{
closed = 1;
nodes = (
"691 825 LINE",
"615 825 LINE",
"342 93 LINE",
"69 825 LINE",
"-7 825 LINE",
"305 0 LINE",
"379 0 LINE"
);
}
);
width = 684;
}
);
leftKerningGroup = V;
rightKerningGroup = V;
unicode = 0056;
},
{
glyphname = W;
lastChange = "2018-06-08 12:44:30 +0000";
layers = (
{
anchors = (
{
name = bottom;
position = "{568, 0}";
},
{
name = top;
position = "{568, 825}";
}
);
layerId = "A4E552E4-62BE-43BB-A58F-34F0EE3B77B8";
paths = (
{
closed = 1;
nodes = (
"1136 825 LINE",
"928 825 LINE",
"787 259 LINE",
"782 259 LINE",
"632 825 LINE",
"490 825 LINE",
"340 259 LINE",
"335 259 LINE",
"194 825 LINE",
"-15 825 LINE",
"220 0 LINE",
"429 0 LINE",
"561 463 LINE",
"693 0 LINE",
"901 0 LINE"
);
}
);
width = 1136;
},
{
anchors = (
{
name = bottom;
position = "{444, 0}";
},
{
name = top;
position = "{444, 825}";
}
);
layerId = "7B60DD57-6012-4D0F-BD38-A72A4BAC0E9D";
paths = (
{
closed = 1;
nodes = (
"888 825 LINE",
"814 825 LINE",
"673 123 LINE",
"668 123 LINE",
"476 825 LINE",
"398 825 LINE",
"206 123 LINE",
"206 123 LINE",
"60 825 LINE",
"-15 825 LINE",
"166 0 LINE",
"245 0 LINE",
"437 703 LINE",
"629 0 LINE",
"707 0 LINE"
);
}
);
width = 888;
}
);
leftKerningGroup = V;
rightKerningGroup = V;
unicode = 0057;
},
{
glyphname = X;
lastChange = "2018-06-08 12:44:40 +0000";
layers = (
{
anchors = (
{
name = bottom;
position = "{399, 0}";
},
{
name = top;
position = "{399, 825}";
}
);
layerId = "A4E552E4-62BE-43BB-A58F-34F0EE3B77B8";
paths = (
{
closed = 1;
nodes = (
"780 825 LINE",
"546 825 LINE",
"394 600 LINE",
"242 825 LINE",
"18 825 LINE",
"278 444 LINE",
"-24 0 LINE",
"209 0 LINE",
"394 281 LINE",
"579 0 LINE",
"822 0 LINE",
"510 444 LINE"
);
}
);
width = 798;
},
{
anchors = (
{
name = bottom;
position = "{320, 0}";
},
{
name = top;
position = "{320, 825}";
}
);
layerId = "7B60DD57-6012-4D0F-BD38-A72A4BAC0E9D";
paths = (
{
closed = 1;
nodes = (
"632 825 LINE",
"552 825 LINE",
"320 490 LINE",
"88 825 LINE",
"8 825 LINE",
"278 444 LINE",
"-24 0 LINE",
"55 0 LINE",
"320 391 LINE",
"585 0 LINE",
"664 0 LINE",
"362 444 LINE"
);
}
);
width = 640;
}
);
rightKerningGroup = d;
unicode = 0058;
},
{
glyphname = Y;
lastChange = "2018-06-08 12:44:42 +0000";
layers = (
{
anchors = (
{
name = bottom;
position = "{368, 0}";
},
{
name = top;
position = "{368, 825}";
},
{
name = topleft;
position = "{20, 825}";
}
);
layerId = "A4E552E4-62BE-43BB-A58F-34F0EE3B77B8";
paths = (
{
closed = 1;
nodes = (
"274 0 LINE",
"462 0 LINE",
"462 370 LINE",
"746 825 LINE",
"520 825 LINE",
"368 561 LINE",
"216 825 LINE",
"-10 825 LINE",
"274 370 LINE"
);
}
);
width = 736;
},
{
anchors = (
{
name = bottom;
position = "{298, 0}";
},
{
name = top;
position = "{298, 825}";
},
{
name = topleft;
position = "{20, 825}";
}
);
layerId = "7B60DD57-6012-4D0F-BD38-A72A4BAC0E9D";
paths = (
{
closed = 1;
nodes = (
"264 0 LINE",
"332 0 LINE",
"332 320 LINE",
"606 825 LINE",
"530 825 LINE",
"298 384 LINE",
"66 825 LINE",
"-10 825 LINE",
"264 320 LINE"
);
}
);
width = 596;
}
);
leftKerningGroup = Y;
rightKerningGroup = Y;
unicode = 0059;
},
{
glyphname = Z;
lastChange = "2018-06-08 12:44:44 +0000";
layers = (
{
anchors = (
{
name = bottom;
position = "{385, 0}";
},
{
name = top;
position = "{385, 825}";
}
);
layerId = "A4E552E4-62BE-43BB-A58F-34F0EE3B77B8";
paths = (
{
closed = 1;
nodes = (
"74 660 LINE",
"424 660 LINE",
"16 0 LINE",
"726 0 LINE",
"726 165 LINE",
"344 165 LINE",
"753 825 LINE",
"74 825 LINE"
);
}
);
width = 769;
},
{
anchors = (
{
name = bottom;
position = "{324, 0}";
},
{
name = top;
position = "{324, 825}";
}
);
layerId = "7B60DD57-6012-4D0F-BD38-A72A4BAC0E9D";
paths = (
{
closed = 1;
nodes = (
"73 760 LINE",
"510 760 LINE",
"15 0 LINE",
"605 0 LINE",
"605 65 LINE",
"140 65 LINE",
"632 825 LINE",
"73 825 LINE"
);
}
);
width = 647;
}
);
unicode = 005A;
},
{
glyphname = a;
lastChange = "2018-06-08 12:44:55 +0000";
layers = (
{
anchors = (
{
name = bottom;
position = "{342, 0}";
},
{
name = ogonek;
position = "{615, 10}";
},
{
name = top;
position = "{342, 513}";
}
);
layerId = "A4E552E4-62BE-43BB-A58F-34F0EE3B77B8";
paths = (
{
closed = 1;
nodes = (
"23 106 OFFCURVE",
"128 -15 OFFCURVE",
"278 -15 CURVE SMOOTH",
"378 -15 OFFCURVE",
"435 52 OFFCURVE",
"446 78 CURVE",
"448 78 LINE",
"448 0 LINE",
"623 0 LINE",
"623 513 LINE",
"446 513 LINE",
"446 444 LINE",
"430 475 OFFCURVE",
"377 528 OFFCURVE",
"278 528 CURVE SMOOTH",
"128 528 OFFCURVE",
"23 406 OFFCURVE",
"23 256 CURVE SMOOTH"
);
},
{
closed = 1;
nodes = (
"211 327 OFFCURVE",
"264 377 OFFCURVE",
"331 377 CURVE SMOOTH",
"397 377 OFFCURVE",
"446 327 OFFCURVE",
"446 256 CURVE SMOOTH",
"446 186 OFFCURVE",
"400 136 OFFCURVE",
"331 136 CURVE SMOOTH",
"259 136 OFFCURVE",
"211 186 OFFCURVE",
"211 256 CURVE SMOOTH"
);
}
);
width = 683;
},
{
anchors = (
{
name = bottom;
position = "{304, 0}";
},
{
name = ogonek;
position = "{547, 10}";
},
{
name = top;
position = "{304, 513}";
}
);
layerId = "7B60DD57-6012-4D0F-BD38-A72A4BAC0E9D";
paths = (
{
closed = 1;
nodes = (
"23 86 OFFCURVE",
"141 -15 OFFCURVE",
"281 -15 CURVE SMOOTH",
"401 -15 OFFCURVE",
"472 62 OFFCURVE",
"478 91 CURVE",
"480 91 LINE",
"480 0 LINE",
"548 0 LINE",
"548 513 LINE",
"478 513 LINE",
"478 424 LINE",
"471 457 OFFCURVE",
"400 528 OFFCURVE",
"281 528 CURVE SMOOTH",
"141 528 OFFCURVE",
"23 426 OFFCURVE",
"23 256 CURVE SMOOTH"
);
},
{
closed = 1;
nodes = (
"93 387 OFFCURVE",
"182 464 OFFCURVE",
"281 464 CURVE SMOOTH",
"390 464 OFFCURVE",
"478 377 OFFCURVE",
"478 256 CURVE SMOOTH",
"478 136 OFFCURVE",
"393 49 OFFCURVE",
"281 49 CURVE SMOOTH",
"182 49 OFFCURVE",
"93 126 OFFCURVE",
"93 256 CURVE SMOOTH"
);
}
);
width = 608;
}
);
leftKerningGroup = aacute;
rightKerningGroup = aacute;
unicode = 0061;
},
{
glyphname = ae;
lastChange = "2018-06-08 12:44:57 +0000";
layers = (
{
anchors = (
{
name = bottom;
position = "{472, 0}";
},
{
name = top;
position = "{472, 513}";
}
);
layerId = "A4E552E4-62BE-43BB-A58F-34F0EE3B77B8";
paths = (
{
closed = 1;
nodes = (
"112 357 LINE",
"112 357 OFFCURVE",
"159 387 OFFCURVE",
"251 387 CURVE SMOOTH",
"302 387 OFFCURVE",
"363 355 OFFCURVE",
"363 299 CURVE SMOOTH",
"363 282 LINE",
"340 298 OFFCURVE",
"281 331 OFFCURVE",
"196 321 CURVE SMOOTH",
"81 307 OFFCURVE",
"23 248 OFFCURVE",
"23 136 CURVE SMOOTH",
"23 43 OFFCURVE",
"106 -15 OFFCURVE",
"213 -15 CURVE SMOOTH",
"370 -15 OFFCURVE",
"432 79 OFFCURVE",
"432 79 CURVE",
"484 21 OFFCURVE",
"560 -15 OFFCURVE",
"645 -15 CURVE SMOOTH",
"759 -15 OFFCURVE",
"853 22 OFFCURVE",
"911 119 CURVE",
"783 183 LINE",
"740 137 OFFCURVE",
"715 126 OFFCURVE",
"658 126 CURVE SMOOTH",
"613 126 OFFCURVE",
"547 153 OFFCURVE",
"547 232 CURVE",
"919 232 LINE",
"920 238 OFFCURVE",
"920 249 OFFCURVE",
"920 256 CURVE SMOOTH",
"920 436 OFFCURVE",
"801 528 OFFCURVE",
"645 528 CURVE SMOOTH",
"576 528 OFFCURVE",
"512 504 OFFCURVE",
"463 464 CURVE",
"401 513 OFFCURVE",
"313 528 OFFCURVE",
"251 528 CURVE SMOOTH",
"120 528 OFFCURVE",
"56 478 OFFCURVE",
"56 478 CURVE"
);
},
{
closed = 1;
nodes = (
"196 206 OFFCURVE",
"238 221 OFFCURVE",
"275 218 CURVE SMOOTH",
"322 214 OFFCURVE",
"340 192 OFFCURVE",
"340 162 CURVE SMOOTH",
"340 132 OFFCURVE",
"312 107 OFFCURVE",
"275 102 CURVE SMOOTH",
"238 97 OFFCURVE",
"196 113 OFFCURVE",
"196 159 CURVE SMOOTH"
);
},
{
closed = 1;
nodes = (
"552 330 LINE",
"555 377 OFFCURVE",
"589 413 OFFCURVE",
"650 413 CURVE SMOOTH",
"702 413 OFFCURVE",
"739 384 OFFCURVE",
"747 330 CURVE"
);
}
);
width = 943;
},
{
anchors = (
{
name = bottom;
position = "{427, 0}";
},
{
name = top;
position = "{427, 513}";
}
);
layerId = "7B60DD57-6012-4D0F-BD38-A72A4BAC0E9D";
paths = (
{
closed = 1;
nodes = (
"88 410 LINE",
"88 410 OFFCURVE",
"139 464 OFFCURVE",
"231 464 CURVE SMOOTH",
"282 464 OFFCURVE",
"383 435 OFFCURVE",
"383 299 CURVE SMOOTH",
"383 262 LINE",
"368 294 OFFCURVE",
"289 333 OFFCURVE",
"196 321 CURVE SMOOTH",
"111 310 OFFCURVE",
"23 269 OFFCURVE",
"23 157 CURVE SMOOTH",
"23 27 OFFCURVE",
"136 -15 OFFCURVE",
"223 -15 CURVE SMOOTH",
"334 -15 OFFCURVE",
"402 79 OFFCURVE",
"402 79 CURVE",
"454 21 OFFCURVE",
"520 -15 OFFCURVE",
"605 -15 CURVE SMOOTH",
"719 -15 OFFCURVE",
"779 39 OFFCURVE",
"821 109 CURVE",
"755 140 LINE",
"745 110 OFFCURVE",
"705 50 OFFCURVE",
"618 50 CURVE SMOOTH",
"500 50 OFFCURVE",
"447 113 OFFCURVE",
"447 242 CURVE",
"829 242 LINE",
"830 248 OFFCURVE",
"830 249 OFFCURVE",
"830 256 CURVE SMOOTH",
"830 436 OFFCURVE",
"741 528 OFFCURVE",
"605 528 CURVE SMOOTH",
"516 528 OFFCURVE",
"440 469 OFFCURVE",
"419 421 CURVE",
"391 479 OFFCURVE",
"333 528 OFFCURVE",
"231 528 CURVE SMOOTH",
"110 528 OFFCURVE",
"52 465 OFFCURVE",
"52 465 CURVE"
);
},
{
closed = 1;
nodes = (
"92 236 OFFCURVE",
"168 264 OFFCURVE",
"235 262 CURVE SMOOTH",
"312 260 OFFCURVE",
"378 228 OFFCURVE",
"378 170 CURVE SMOOTH",
"378 103 OFFCURVE",
"292 50 OFFCURVE",
"215 50 CURVE SMOOTH",
"157 50 OFFCURVE",
"92 73 OFFCURVE",
"92 159 CURVE SMOOTH"
);
},
{
closed = 1;
nodes = (
"452 300 LINE",
"452 410 OFFCURVE",
"505 464 OFFCURVE",
"610 464 CURVE SMOOTH",
"743 464 OFFCURVE",
"759 354 OFFCURVE",
"767 300 CURVE"
);
}
);
width = 853;
}
);
rightKerningGroup = d;
unicode = 00E6;
},
{
glyphname = b;
lastChange = "2018-06-08 12:45:00 +0000";
layers = (
{
anchors = (
{
name = bottom;
position = "{342, 0}";
},
{
name = top;
position = "{342, 900}";
}
);
layerId = "A4E552E4-62BE-43BB-A58F-34F0EE3B77B8";
paths = (
{
closed = 1;
nodes = (
"305 528 OFFCURVE",
"252 475 OFFCURVE",
"236 444 CURVE",
"237 860 LINE",
"60 860 LINE",
"60 0 LINE",
"61 0 LINE",
"235 0 LINE",
"235 78 LINE",
"236 78 LINE",
"247 52 OFFCURVE",
"304 -15 OFFCURVE",
"404 -15 CURVE SMOOTH",
"554 -15 OFFCURVE",
"659 106 OFFCURVE",
"659 256 CURVE SMOOTH",
"659 406 OFFCURVE",
"554 528 OFFCURVE",
"404 528 CURVE SMOOTH"
);
},
{
closed = 1;
nodes = (
"285 136 OFFCURVE",
"239 186 OFFCURVE",
"239 256 CURVE SMOOTH",
"239 327 OFFCURVE",
"288 377 OFFCURVE",
"354 377 CURVE SMOOTH",
"421 377 OFFCURVE",
"474 327 OFFCURVE",
"474 256 CURVE SMOOTH",
"474 186 OFFCURVE",
"426 136 OFFCURVE",
"354 136 CURVE SMOOTH"
);
}
);
width = 683;
},
{
anchors = (
{
name = bottom;
position = "{287, 0}";
},
{
name = top;
position = "{287, 900}";
}
);
layerId = "7B60DD57-6012-4D0F-BD38-A72A4BAC0E9D";
paths = (
{
closed = 1;
nodes = (
"187 528 OFFCURVE",
"137 429 OFFCURVE",
"130 414 CURVE",
"131 860 LINE",
"60 860 LINE",
"60 0 LINE",
"61 0 LINE",
"129 0 LINE",
"129 108 LINE",
"130 108 LINE",
"135 95 OFFCURVE",
"186 -15 OFFCURVE",
"319 -15 CURVE SMOOTH",
"469 -15 OFFCURVE",
"549 106 OFFCURVE",
"549 256 CURVE SMOOTH",
"549 406 OFFCURVE",
"469 528 OFFCURVE",
"319 528 CURVE SMOOTH"
);
},
{
closed = 1;
nodes = (
"225 48 OFFCURVE",
"133 126 OFFCURVE",
"133 256 CURVE SMOOTH",
"133 387 OFFCURVE",
"228 465 OFFCURVE",
"314 465 CURVE SMOOTH",
"421 465 OFFCURVE",
"479 387 OFFCURVE",
"479 256 CURVE SMOOTH",
"479 126 OFFCURVE",
"426 48 OFFCURVE",
"314 48 CURVE SMOOTH"
);
}
);
width = 573;
}
);
rightKerningGroup = b;
unicode = 0062;
},
{
glyphname = c;
lastChange = "2018-06-08 12:45:02 +0000";
layers = (
{
anchors = (
{
name = bottom;
position = "{244, 0}";
},
{
name = top;
position = "{244, 513}";
}
);
layerId = "A4E552E4-62BE-43BB-A58F-34F0EE3B77B8";
paths = (
{
closed = 1;
nodes = (
"253 136 OFFCURVE",
"200 186 OFFCURVE",
"200 257 CURVE SMOOTH",
"200 327 OFFCURVE",
"253 377 OFFCURVE",
"320 377 CURVE SMOOTH",
"346 377 OFFCURVE",
"369 370 OFFCURVE",
"388 356 CURVE",
"469 490 LINE",
"426 514 OFFCURVE",
"374 528 OFFCURVE",
"319 528 CURVE SMOOTH",
"146 528 OFFCURVE",
"30 415 OFFCURVE",
"30 258 CURVE SMOOTH",
"30 255 LINE SMOOTH",
"30 98 OFFCURVE",
"146 -15 OFFCURVE",
"319 -15 CURVE SMOOTH",
"374 -15 OFFCURVE",
"426 -1 OFFCURVE",
"469 23 CURVE",
"388 157 LINE",
"369 143 OFFCURVE",
"346 136 OFFCURVE",
"320 136 CURVE SMOOTH"
);
}
);
width = 487;
},
{
anchors = (
{
name = bottom;
position = "{231, 0}";
},
{
name = top;
position = "{231, 513}";
}
);
layerId = "7B60DD57-6012-4D0F-BD38-A72A4BAC0E9D";
paths = (
{
closed = 1;
nodes = (
"198 49 OFFCURVE",
"100 121 OFFCURVE",
"100 257 CURVE SMOOTH",
"100 392 OFFCURVE",
"198 464 OFFCURVE",
"281 464 CURVE SMOOTH",
"350 464 OFFCURVE",
"395 431 OFFCURVE",
"408 421 CURVE",
"441 475 LINE",
"424 490 OFFCURVE",
"381 528 OFFCURVE",
"280 528 CURVE SMOOTH",
"171 528 OFFCURVE",
"30 435 OFFCURVE",
"30 258 CURVE SMOOTH",
"30 255 LINE SMOOTH",
"30 78 OFFCURVE",
"171 -15 OFFCURVE",
"280 -15 CURVE SMOOTH",
"378 -15 OFFCURVE",
"430 23 OFFCURVE",
"444 31 CURVE",
"409 88 LINE",
"397 80 OFFCURVE",
"361 49 OFFCURVE",
"281 49 CURVE SMOOTH"
);
}
);
width = 462;
}
);
leftKerningGroup = c;
rightKerningGroup = c;
unicode = 0063;
},
{
glyphname = eth;
lastChange = "2017-03-22 01:02:16 +0000";
layers = (
{
layerId = "A4E552E4-62BE-43BB-A58F-34F0EE3B77B8";
paths = (
{
closed = 1;
nodes = (
"41 98 OFFCURVE",
"165 -15 OFFCURVE",
"350 -15 CURVE SMOOTH",
"527 -15 OFFCURVE",
"656 98 OFFCURVE",
"656 256 CURVE SMOOTH",
"656 498 OFFCURVE",
"564 651 OFFCURVE",
"430 745 CURVE",
"482 797 LINE",
"406 875 LINE",
"333 803 LINE",
"230 856 OFFCURVE",
"145 875 OFFCURVE",
"145 875 CURVE",
"103 725 LINE",
"103 725 OFFCURVE",
"151 714 OFFCURVE",
"214 684 CURVE",
"152 622 LINE",
"229 545 LINE",
"323 638 LINE",
"375 608 OFFCURVE",
"425 538 OFFCURVE",
"440 491 CURVE",
"425 507 OFFCURVE",
"398 528 OFFCURVE",
"299 528 CURVE SMOOTH",
"189 528 OFFCURVE",
"41 424 OFFCURVE",
"41 256 CURVE SMOOTH"
);
},
{
closed = 1;
nodes = (
"229 327 OFFCURVE",
"282 377 OFFCURVE",
"349 377 CURVE SMOOTH",
"413 377 OFFCURVE",
"465 329 OFFCURVE",
"468 261 CURVE",
"468 256 LINE SMOOTH",
"468 186 OFFCURVE",
"418 136 OFFCURVE",
"349 136 CURVE SMOOTH",
"277 136 OFFCURVE",
"229 186 OFFCURVE",
"229 256 CURVE SMOOTH"
);
}
);
width = 684;
},
{
layerId = "7B60DD57-6012-4D0F-BD38-A72A4BAC0E9D";
paths = (
{
closed = 1;
nodes = (
"41 98 OFFCURVE",
"145 -15 OFFCURVE",
"320 -15 CURVE SMOOTH",
"497 -15 OFFCURVE",
"596 98 OFFCURVE",
"596 256 CURVE SMOOTH",
"596 498 OFFCURVE",
"501 645 OFFCURVE",
"338 730 CURVE",
"418 803 LINE",
"367 847 LINE",
"280 755 LINE",
"241 784 OFFCURVE",
"133 816 OFFCURVE",
"133 816 CURVE",
"111 753 LINE",
"111 753 OFFCURVE",
"174 740 OFFCURVE",
"234 706 CURVE",
"153 624 LINE",
"198 581 LINE",
"295 684 LINE",
"390 638 OFFCURVE",
"461 551 OFFCURVE",
"487 468 CURVE",
"472 484 OFFCURVE",
"415 530 OFFCURVE",
"292 528 CURVE SMOOTH",
"178 526 OFFCURVE",
"41 424 OFFCURVE",
"41 256 CURVE SMOOTH"
);
},
{
closed = 1;
nodes = (
"109 387 OFFCURVE",
"192 466 OFFCURVE",
"319 466 CURVE SMOOTH",
"453 466 OFFCURVE",
"525 394 OFFCURVE",
"528 261 CURVE",
"528 256 LINE SMOOTH",
"528 129 OFFCURVE",
"458 46 OFFCURVE",
"319 46 CURVE SMOOTH",
"187 46 OFFCURVE",
"109 126 OFFCURVE",
"109 256 CURVE SMOOTH"
);
}
);
width = 624;
}
);
rightKerningGroup = d;
unicode = 00F0;
},
{
glyphname = dcroat;
lastChange = "2017-03-22 01:03:33 +0000";
layers = (
{
components = (
{
name = d;
}
);
layerId = "A4E552E4-62BE-43BB-A58F-34F0EE3B77B8";
paths = (
{
closed = 1;
nodes = (
"683 628 LINE",
"683 742 LINE",
"321 742 LINE",
"321 628 LINE"
);
}
);
width = 683;
},
{
components = (
{
name = d;
}
);
layerId = "7B60DD57-6012-4D0F-BD38-A72A4BAC0E9D";
paths = (
{
closed = 1;
nodes = (
"583 648 LINE",
"583 702 LINE",
"301 702 LINE",
"301 648 LINE"
);
}
);
width = 583;
}
);
rightKerningGroup = d;
unicode = 0111;
},
{
glyphname = e;
lastChange = "2018-06-08 12:45:17 +0000";
layers = (
{
anchors = (
{
name = bottom;
position = "{297, 0}";
},
{
name = ogonek;
position = "{534, 10}";
},
{
name = top;
position = "{297, 513}";
}
);
layerId = "A4E552E4-62BE-43BB-A58F-34F0EE3B77B8";
paths = (
{
closed = 1;
nodes = (
"561 222 LINE",
"562 228 OFFCURVE",
"562 249 OFFCURVE",
"562 256 CURVE SMOOTH",
"562 436 OFFCURVE",
"451 528 OFFCURVE",
"295 528 CURVE SMOOTH",
"130 528 OFFCURVE",
"23 412 OFFCURVE",
"23 262 CURVE SMOOTH",
"23 113 OFFCURVE",
"136 -15 OFFCURVE",
"291 -15 CURVE SMOOTH",
"435 -15 OFFCURVE",
"495 31 OFFCURVE",
"553 109 CURVE",
"419 186 LINE",
"381 139 OFFCURVE",
"357 126 OFFCURVE",
"300 126 CURVE SMOOTH",
"255 126 OFFCURVE",
"198 160 OFFCURVE",
"198 222 CURVE"
);
},
{
closed = 1;
nodes = (
"203 330 LINE",
"204 375 OFFCURVE",
"248 413 OFFCURVE",
"299 413 CURVE SMOOTH",
"350 413 OFFCURVE",
"384 371 OFFCURVE",
"386 330 CURVE"
);
}
);
width = 593;
},
{
anchors = (
{
name = bottom;
position = "{272, 0}";
},
{
name = ogonek;
position = "{489, 10}";
},
{
name = top;
position = "{272, 513}";
}
);
layerId = "7B60DD57-6012-4D0F-BD38-A72A4BAC0E9D";
paths = (
{
closed = 1;
nodes = (
"511 252 LINE",
"512 258 OFFCURVE",
"512 269 OFFCURVE",
"512 276 CURVE SMOOTH",
"512 426 OFFCURVE",
"401 528 OFFCURVE",
"275 528 CURVE SMOOTH",
"133 528 OFFCURVE",
"23 413 OFFCURVE",
"23 263 CURVE SMOOTH",
"23 103 OFFCURVE",
"123 -15 OFFCURVE",
"276 -15 CURVE SMOOTH",
"390 -15 OFFCURVE",
"451 28 OFFCURVE",
"503 109 CURVE",
"442 144 LINE",
"421 112 OFFCURVE",
"383 49 OFFCURVE",
"280 49 CURVE SMOOTH",
"165 49 OFFCURVE",
"92 143 OFFCURVE",
"92 252 CURVE"
);
},
{
closed = 1;
nodes = (
"96 310 LINE",
"97 355 OFFCURVE",
"158 464 OFFCURVE",
"279 464 CURVE SMOOTH",
"394 464 OFFCURVE",
"435 351 OFFCURVE",
"437 310 CURVE"
);
}
);
width = 543;
}
);
leftKerningGroup = c;
rightKerningGroup = c;
unicode = 0065;
},
{
glyphname = f;
lastChange = "2018-06-08 12:45:20 +0000";
layers = (
{
anchors = (
{
name = bottom;
position = "{188, 0}";
},
{
name = top;
position = "{188, 900}";
}
);
layerId = "A4E552E4-62BE-43BB-A58F-34F0EE3B77B8";
paths = (
{
closed = 1;
nodes = (
"6 378 LINE",
"90 378 LINE",
"90 0 LINE",
"267 0 LINE",
"267 378 LINE",
"375 378 LINE",
"375 513 LINE",
"267 513 LINE",
"267 627 LINE SMOOTH",
"267 698 OFFCURVE",
"300 718 OFFCURVE",
"327 718 CURVE SMOOTH",
"356 718 OFFCURVE",
"369 704 OFFCURVE",
"369 704 CURVE",
"422 843 LINE",
"422 843 OFFCURVE",
"394 875 OFFCURVE",
"311 875 CURVE SMOOTH",
"193 875 OFFCURVE",
"90 792 OFFCURVE",
"90 642 CURVE SMOOTH",
"90 513 LINE",
"6 513 LINE"
);
}
);
width = 375;
},
{
anchors = (
{
name = bottom;
position = "{168, 0}";
},
{
name = top;
position = "{168, 900}";
}
);
layerId = "7B60DD57-6012-4D0F-BD38-A72A4BAC0E9D";
paths = (
{
closed = 1;
nodes = (
"6 448 LINE",
"120 448 LINE",
"120 0 LINE",
"187 0 LINE",
"187 448 LINE",
"338 448 LINE",
"338 513 LINE",
"187 513 LINE",
"187 617 LINE SMOOTH",
"187 768 OFFCURVE",
"238 813 OFFCURVE",
"285 813 CURVE SMOOTH",
"334 813 OFFCURVE",
"357 783 OFFCURVE",
"357 783 CURVE",
"383 847 LINE",
"383 847 OFFCURVE",
"349 875 OFFCURVE",
"286 875 CURVE SMOOTH",
"205 875 OFFCURVE",
"120 802 OFFCURVE",
"120 642 CURVE SMOOTH",
"120 513 LINE",
"6 513 LINE"
);
}
);
width = 336;
}
);
rightKerningGroup = d;
unicode = 0066;
},
{
glyphname = g;
lastChange = "2018-06-08 12:45:22 +0000";
layers = (
{
anchors = (
{
name = bottom;
position = "{342, -350}";
},
{
name = top;
position = "{342, 513}";
}
);
layerId = "A4E552E4-62BE-43BB-A58F-34F0EE3B77B8";
paths = (
{
closed = 1;
nodes = (
"448 0 LINE",
"448 0 LINE SMOOTH",
"448 -91 OFFCURVE",
"392 -125 OFFCURVE",
"321 -125 CURVE SMOOTH",
"244 -125 OFFCURVE",
"201 -86 OFFCURVE",
"182 -55 CURVE",
"38 -142 LINE",
"111 -247 OFFCURVE",
"214 -275 OFFCURVE",
"321 -275 CURVE SMOOTH",
"496 -275 OFFCURVE",
"623 -186 OFFCURVE",
"623 -14 CURVE SMOOTH",
"623 0 LINE"
);
},
{
closed = 1;
nodes = (
"23 106 OFFCURVE",
"128 -15 OFFCURVE",
"278 -15 CURVE SMOOTH",
"378 -15 OFFCURVE",
"435 52 OFFCURVE",
"446 78 CURVE",
"448 78 LINE",
"448 0 LINE",
"623 0 LINE",
"623 513 LINE",
"446 513 LINE",
"446 444 LINE",
"430 475 OFFCURVE",
"377 528 OFFCURVE",
"278 528 CURVE SMOOTH",
"128 528 OFFCURVE",
"23 406 OFFCURVE",
"23 256 CURVE SMOOTH"
);
},
{
closed = 1;
nodes = (
"211 327 OFFCURVE",
"264 377 OFFCURVE",
"331 377 CURVE SMOOTH",
"397 377 OFFCURVE",
"446 327 OFFCURVE",
"446 256 CURVE SMOOTH",
"446 186 OFFCURVE",
"400 136 OFFCURVE",
"331 136 CURVE SMOOTH",
"259 136 OFFCURVE",
"211 186 OFFCURVE",
"211 256 CURVE SMOOTH"
);
}
);
width = 683;
},
{
anchors = (
{
name = bottom;
position = "{299, -350}";
},
{
name = top;
position = "{299, 513}";
}
);
layerId = "7B60DD57-6012-4D0F-BD38-A72A4BAC0E9D";
paths = (
{
closed = 1;
nodes = (
"470 -1 LINE",
"470 -1 LINE SMOOTH",
"470 -109 OFFCURVE",
"422 -211 OFFCURVE",
"285 -211 CURVE SMOOTH",
"148 -211 OFFCURVE",
"124 -150 OFFCURVE",
"111 -130 CURVE",
"44 -168 LINE",
"76 -222 OFFCURVE",
"158 -275 OFFCURVE",
"285 -275 CURVE SMOOTH",
"420 -275 OFFCURVE",
"538 -184 OFFCURVE",
"538 -15 CURVE SMOOTH",
"538 -1 LINE"
);
},
{
closed = 1;
nodes = (
"23 86 OFFCURVE",
"131 -15 OFFCURVE",
"271 -15 CURVE SMOOTH",
"391 -15 OFFCURVE",
"462 62 OFFCURVE",
"468 91 CURVE",
"470 91 LINE",
"470 -1 LINE",
"538 -1 LINE",
"538 513 LINE",
"468 513 LINE",
"468 424 LINE",
"461 457 OFFCURVE",
"390 528 OFFCURVE",
"271 528 CURVE SMOOTH",
"131 528 OFFCURVE",
"23 426 OFFCURVE",
"23 256 CURVE SMOOTH"
);
},
{
closed = 1;
nodes = (
"93 387 OFFCURVE",
"172 464 OFFCURVE",
"271 464 CURVE SMOOTH",
"380 464 OFFCURVE",
"468 377 OFFCURVE",
"468 256 CURVE SMOOTH",
"468 136 OFFCURVE",
"383 49 OFFCURVE",
"271 49 CURVE SMOOTH",
"172 49 OFFCURVE",
"93 126 OFFCURVE",
"93 256 CURVE SMOOTH"
);
}
);
width = 598;
}
);
leftKerningGroup = g;
rightKerningGroup = g;
unicode = 0067;
},
{
glyphname = h;
lastChange = "2018-06-08 12:45:28 +0000";
layers = (
{
anchors = (
{
name = bottom;
position = "{331, 0}";
},
{
name = center;
position = "{331, 450}";
},
{
name = top;
position = "{331, 900}";
}
);
layerId = "A4E552E4-62BE-43BB-A58F-34F0EE3B77B8";
paths = (
{
closed = 1;
nodes = (
"321 528 OFFCURVE",
"253 479 OFFCURVE",
"237 435 CURVE",
"237 860 LINE",
"60 860 LINE",
"60 0 LINE",
"237 0 LINE",
"237 270 LINE SMOOTH",
"237 341 OFFCURVE",
"289 390 OFFCURVE",
"342 390 CURVE SMOOTH",
"397 390 OFFCURVE",
"434 362 OFFCURVE",
"434 293 CURVE SMOOTH",
"434 0 LINE",
"611 0 LINE",
"611 338 LINE SMOOTH",
"611 486 OFFCURVE",
"500 528 OFFCURVE",
"406 528 CURVE SMOOTH"
);
}
);
width = 661;
},
{
anchors = (
{
name = bottom;
position = "{281, 0}";
},
{
name = center;
position = "{281, 450}";
},
{
name = top;
position = "{281, 900}";
}
);
layerId = "7B60DD57-6012-4D0F-BD38-A72A4BAC0E9D";
paths = (
{
closed = 1;
nodes = (
"241 528 OFFCURVE",
"155 459 OFFCURVE",
"139 405 CURVE",
"139 860 LINE",
"70 860 LINE",
"70 0 LINE",
"139 0 LINE",
"139 270 LINE SMOOTH",
"139 381 OFFCURVE",
"249 464 OFFCURVE",
"322 464 CURVE SMOOTH",
"397 464 OFFCURVE",
"433 422 OFFCURVE",
"433 293 CURVE SMOOTH",
"433 0 LINE",
"501 0 LINE",
"501 338 LINE SMOOTH",
"501 466 OFFCURVE",
"430 528 OFFCURVE",
"336 528 CURVE SMOOTH"
);
}
);
width = 561;
}
);
rightKerningGroup = b;
unicode = 0068;
},
{
glyphname = hbar;
lastChange = "2017-03-22 01:10:02 +0000";
layers = (
{
components = (
{
name = h;
}
);
layerId = "7B60DD57-6012-4D0F-BD38-A72A4BAC0E9D";
paths = (
{
closed = 1;
nodes = (
"284 648 LINE",
"284 702 LINE",
"2 702 LINE",
"2 648 LINE"
);
}
);
width = 561;
},
{
components = (
{
name = h;
}
);
layerId = "A4E552E4-62BE-43BB-A58F-34F0EE3B77B8";
paths = (
{
closed = 1;
nodes = (
"364 628 LINE",
"364 742 LINE",
"2 742 LINE",
"2 628 LINE"
);
}
);
width = 661;
}
);
unicode = 0127;
},
{
glyphname = i;
lastChange = "2018-06-08 12:45:30 +0000";
layers = (
{
anchors = (
{
name = bottom;
position = "{151, 0}";
}
);
layerId = "A4E552E4-62BE-43BB-A58F-34F0EE3B77B8";
paths = (
{
closed = 1;
nodes = (
"237 0 LINE",
"237 513 LINE",
"60 513 LINE",
"60 0 LINE"
);
},
{
closed = 1;
nodes = (
"209 620 OFFCURVE",
"256 667 OFFCURVE",
"256 725 CURVE SMOOTH",
"256 783 OFFCURVE",
"209 830 OFFCURVE",
"151 830 CURVE SMOOTH",
"93 830 OFFCURVE",
"46 783 OFFCURVE",
"46 725 CURVE SMOOTH",
"46 667 OFFCURVE",
"93 620 OFFCURVE",
"151 620 CURVE SMOOTH"
);
}
);
width = 302;
},
{
anchors = (
{
name = bottom;
position = "{104, 0}";
}
);
layerId = "7B60DD57-6012-4D0F-BD38-A72A4BAC0E9D";
paths = (
{
closed = 1;
nodes = (
"136 0 LINE",
"136 513 LINE",
"69 513 LINE",
"69 0 LINE"
);
},
{
closed = 1;
nodes = (
"134 722 OFFCURVE",
"158 746 OFFCURVE",
"158 776 CURVE SMOOTH",
"158 806 OFFCURVE",
"134 830 OFFCURVE",
"104 830 CURVE SMOOTH",
"74 830 OFFCURVE",
"50 806 OFFCURVE",
"50 776 CURVE SMOOTH",
"50 746 OFFCURVE",
"74 722 OFFCURVE",
"104 722 CURVE SMOOTH"
);
}
);
width = 208;
}
);
leftKerningGroup = i;
rightKerningGroup = d;
unicode = 0069;
},
{
glyphname = idotless;
lastChange = "2018-06-08 12:45:32 +0000";
layers = (
{
anchors = (
{
name = bottom;
position = "{135, 0}";
},
{
name = ogonek;
position = "{242, 10}";
},
{
name = top;
position = "{135, 513}";
}
);
layerId = "A4E552E4-62BE-43BB-A58F-34F0EE3B77B8";
paths = (
{
closed = 1;
nodes = (
"223 0 LINE",
"223 513 LINE",
"46 513 LINE",
"46 0 LINE"
);
}
);
width = 269;
},
{
anchors = (
{
name = bottom;
position = "{84, 0}";
},
{
name = ogonek;
position = "{150, 10}";
},
{
name = top;
position = "{84, 513}";
}
);
layerId = "7B60DD57-6012-4D0F-BD38-A72A4BAC0E9D";
paths = (
{
closed = 1;
nodes = (
"117 0 LINE",
"117 513 LINE",
"50 513 LINE",
"50 0 LINE"
);
}
);
width = 167;
}
);
leftKerningGroup = i;
rightKerningGroup = d;
unicode = 0131;
},
{
glyphname = j;
lastChange = "2017-03-21 02:05:52 +0000";
layers = (
{
layerId = "A4E552E4-62BE-43BB-A58F-34F0EE3B77B8";
paths = (
{
closed = 1;
nodes = (
"237 -79 LINE SMOOTH",
"237 -170 OFFCURVE",
"193 -275 OFFCURVE",
"52 -275 CURVE SMOOTH",
"-32 -275 OFFCURVE",
"-64 -254 OFFCURVE",
"-89 -243 CURVE",
"-34 -100 LINE",
"-34 -100 OFFCURVE",
"-11 -115 OFFCURVE",
"11 -115 CURVE SMOOTH",
"41 -115 OFFCURVE",
"60 -93 OFFCURVE",
"60 -45 CURVE SMOOTH",
"60 513 LINE",
"237 513 LINE"
);
},
{
closed = 1;
nodes = (
"93 830 OFFCURVE",
"46 783 OFFCURVE",
"46 725 CURVE SMOOTH",
"46 667 OFFCURVE",
"93 620 OFFCURVE",
"151 620 CURVE SMOOTH",
"209 620 OFFCURVE",
"256 667 OFFCURVE",
"256 725 CURVE SMOOTH",
"256 783 OFFCURVE",
"209 830 OFFCURVE",
"151 830 CURVE SMOOTH"
);
}
);
width = 297;
},
{
layerId = "7B60DD57-6012-4D0F-BD38-A72A4BAC0E9D";
paths = (
{
closed = 1;
nodes = (
"137 -79 LINE SMOOTH",
"137 -180 OFFCURVE",
"109 -275 OFFCURVE",
"2 -275 CURVE SMOOTH",
"-52 -275 OFFCURVE",
"-86 -255 OFFCURVE",
"-89 -253 CURVE",
"-59 -190 LINE",
"-59 -190 OFFCURVE",
"-42 -213 OFFCURVE",
"0 -213 CURVE SMOOTH",
"60 -213 OFFCURVE",
"69 -143 OFFCURVE",
"69 -45 CURVE SMOOTH",
"69 513 LINE",
"137 513 LINE"
);
},
{
closed = 1;
nodes = (
"77 830 OFFCURVE",
"53 806 OFFCURVE",
"53 776 CURVE SMOOTH",
"53 746 OFFCURVE",
"77 722 OFFCURVE",
"107 722 CURVE SMOOTH",
"137 722 OFFCURVE",
"161 746 OFFCURVE",
"161 776 CURVE SMOOTH",
"161 806 OFFCURVE",
"137 830 OFFCURVE",
"107 830 CURVE SMOOTH"
);
}
);
width = 202;
}
);
rightKerningGroup = d;
unicode = 006A;
},
{
glyphname = k;
lastChange = "2018-06-08 12:45:39 +0000";
layers = (
{
anchors = (
{
name = bottom;
position = "{323, 0}";
},
{
name = top;
position = "{323, 900}";
}
);
layerId = "A4E552E4-62BE-43BB-A58F-34F0EE3B77B8";
paths = (
{
closed = 1;
nodes = (
"237 334 LINE",
"237 860 LINE",
"60 860 LINE",
"60 0 LINE",
"237 0 LINE",
"237 205 LINE",
"442 0 LINE",
"670 0 LINE",
"402 268 LINE",
"646 513 LINE",
"416 513 LINE"
);
}
);
width = 646;
},
{
anchors = (
{
name = bottom;
position = "{233, 0}";
},
{
name = top;
position = "{233, 900}";
}
);
layerId = "7B60DD57-6012-4D0F-BD38-A72A4BAC0E9D";
paths = (
{
closed = 1;
nodes = (
"128 295 LINE",
"128 860 LINE",
"60 860 LINE",
"60 0 LINE",
"128 0 LINE",
"128 235 LINE",
"387 0 LINE",
"480 0 LINE",
"184 267 LINE",
"466 513 LINE",
"376 513 LINE"
);
}
);
width = 466;
}
);
rightKerningGroup = d;
unicode = 006B;
},
{
glyphname = l;
lastChange = "2018-06-08 12:45:43 +0000";
layers = (
{
anchors = (
{
name = bottom;
position = "{149, 0}";
},
{
name = center;
position = "{149, 450}";
},
{
name = top;
position = "{149, 900}";
},
{
name = topright;
position = "{277, 900}";
}
);
layerId = "A4E552E4-62BE-43BB-A58F-34F0EE3B77B8";
paths = (
{
closed = 1;
nodes = (
"237 860 LINE",
"60 860 LINE",
"60 0 LINE",
"237 0 LINE"
);
}
);
width = 297;
},
{
anchors = (
{
name = bottom;
position = "{94, 0}";
},
{
name = center;
position = "{94, 450}";
},
{
name = top;
position = "{94, 900}";
},
{
name = topright;
position = "{168, 900}";
}
);
layerId = "7B60DD57-6012-4D0F-BD38-A72A4BAC0E9D";
paths = (
{
closed = 1;
nodes = (
"128 860 LINE",
"60 860 LINE",
"60 0 LINE",
"128 0 LINE"
);
}
);
width = 188;
}
);
leftKerningGroup = i;
rightKerningGroup = d;
unicode = 006C;
},
{
glyphname = lslash;
lastChange = "2017-03-30 15:40:45 +0000";
layers = (
{
layerId = "A4E552E4-62BE-43BB-A58F-34F0EE3B77B8";
paths = (
{
closed = 1;
nodes = (
"273 0 LINE",
"273 449 LINE",
"349 509 LINE",
"349 662 LINE",
"273 602 LINE",
"273 860 LINE",
"96 860 LINE",
"96 463 LINE",
"20 403 LINE",
"20 250 LINE",
"96 310 LINE",
"96 0 LINE"
);
}
);
width = 369;
},
{
layerId = "7B60DD57-6012-4D0F-BD38-A72A4BAC0E9D";
paths = (
{
closed = 1;
nodes = (
"148 0 LINE",
"148 420 LINE",
"221 477 LINE",
"221 561 LINE",
"148 504 LINE",
"148 860 LINE",
"80 860 LINE",
"80 450 LINE",
"20 403 LINE",
"20 319 LINE",
"80 366 LINE",
"80 0 LINE"
);
}
);
width = 241;
}
);
rightKerningGroup = d;
unicode = 0142;
},
{
glyphname = m;
lastChange = "2018-06-08 12:45:50 +0000";
layers = (
{
anchors = (
{
name = bottom;
position = "{488, 0}";
},
{
name = top;
position = "{488, 513}";
}
);
layerId = "A4E552E4-62BE-43BB-A58F-34F0EE3B77B8";
paths = (
{
closed = 1;
nodes = (
"642 528 OFFCURVE",
"580 481 OFFCURVE",
"562 438 CURVE",
"531 506 OFFCURVE",
"464 528 OFFCURVE",
"396 528 CURVE SMOOTH",
"311 528 OFFCURVE",
"253 479 OFFCURVE",
"237 435 CURVE",
"237 513 LINE",
"60 513 LINE",
"60 0 LINE",
"237 0 LINE",
"237 270 LINE SMOOTH",
"237 341 OFFCURVE",
"279 390 OFFCURVE",
"332 390 CURVE SMOOTH",
"387 390 OFFCURVE",
"414 362 OFFCURVE",
"414 293 CURVE SMOOTH",
"414 0 LINE",
"576 0 LINE",
"576 280 LINE SMOOTH",
"576 351 OFFCURVE",
"608 390 OFFCURVE",
"661 390 CURVE SMOOTH",
"716 390 OFFCURVE",
"743 362 OFFCURVE",
"743 293 CURVE SMOOTH",
"743 0 LINE",
"920 0 LINE",
"920 338 LINE SMOOTH",
"920 486 OFFCURVE",
"819 528 OFFCURVE",
"725 528 CURVE SMOOTH"
);
}
);
width = 975;
},
{
anchors = (
{
name = bottom;
position = "{423, 0}";
},
{
name = top;
position = "{423, 513}";
}
);
layerId = "7B60DD57-6012-4D0F-BD38-A72A4BAC0E9D";
paths = (
{
closed = 1;
nodes = (
"539 528 OFFCURVE",
"470 475 OFFCURVE",
"452 418 CURVE",
"441 471 OFFCURVE",
"395 528 OFFCURVE",
"306 528 CURVE SMOOTH",
"218 528 OFFCURVE",
"144 473 OFFCURVE",
"128 415 CURVE",
"128 513 LINE",
"60 513 LINE",
"60 0 LINE",
"128 0 LINE",
"128 270 LINE SMOOTH",
"128 408 OFFCURVE",
"234 464 OFFCURVE",
"287 464 CURVE SMOOTH",
"352 464 OFFCURVE",
"399 432 OFFCURVE",
"399 293 CURVE SMOOTH",
"399 0 LINE",
"466 0 LINE",
"466 280 LINE SMOOTH",
"466 418 OFFCURVE",
"563 464 OFFCURVE",
"616 464 CURVE SMOOTH",
"681 464 OFFCURVE",
"723 432 OFFCURVE",
"723 293 CURVE SMOOTH",
"723 0 LINE",
"790 0 LINE",
"790 328 LINE SMOOTH",
"790 476 OFFCURVE",
"710 528 OFFCURVE",
"625 528 CURVE SMOOTH"
);
}
);
width = 845;
}
);
leftKerningGroup = r;
rightKerningGroup = b;
unicode = 006D;
},
{
glyphname = n;
lastChange = "2018-06-08 12:45:52 +0000";
layers = (
{
anchors = (
{
name = bottom;
position = "{331, 0}";
},
{
name = top;
position = "{331, 513}";
}
);
layerId = "A4E552E4-62BE-43BB-A58F-34F0EE3B77B8";
paths = (
{
closed = 1;
nodes = (
"237 270 LINE SMOOTH",
"237 341 OFFCURVE",
"289 390 OFFCURVE",
"342 390 CURVE SMOOTH",
"397 390 OFFCURVE",
"434 362 OFFCURVE",
"434 293 CURVE SMOOTH",
"434 0 LINE",
"611 0 LINE",
"611 338 LINE SMOOTH",
"611 486 OFFCURVE",
"500 528 OFFCURVE",
"406 528 CURVE SMOOTH",
"321 528 OFFCURVE",
"253 479 OFFCURVE",
"237 435 CURVE",
"237 439 LINE",
"237 513 LINE",
"60 513 LINE",
"60 0 LINE",
"237 0 LINE"
);
}
);
width = 661;
},
{
anchors = (
{
name = bottom;
position = "{276, 0}";
},
{
name = top;
position = "{276, 513}";
}
);
layerId = "7B60DD57-6012-4D0F-BD38-A72A4BAC0E9D";
paths = (
{
closed = 1;
nodes = (
"128 270 LINE SMOOTH",
"128 371 OFFCURVE",
"238 464 OFFCURVE",
"321 464 CURVE SMOOTH",
"398 464 OFFCURVE",
"433 422 OFFCURVE",
"433 293 CURVE SMOOTH",
"433 0 LINE",
"501 0 LINE",
"501 338 LINE SMOOTH",
"501 486 OFFCURVE",
"420 528 OFFCURVE",
"334 528 CURVE SMOOTH",
"249 528 OFFCURVE",
"147 469 OFFCURVE",
"128 405 CURVE",
"128 409 LINE",
"128 513 LINE",
"60 513 LINE",
"60 0 LINE",
"128 0 LINE"
);
}
);
width = 551;
}
);
leftKerningGroup = r;
rightKerningGroup = b;
unicode = 006E;
},
{
glyphname = eng;
lastChange = "2017-03-22 01:17:27 +0000";
layers = (
{
components = (
{
name = n;
}
);
layerId = "7B60DD57-6012-4D0F-BD38-A72A4BAC0E9D";
paths = (
{
closed = 1;
nodes = (
"501 -79 LINE SMOOTH",
"501 -180 OFFCURVE",
"473 -275 OFFCURVE",
"366 -275 CURVE SMOOTH",
"312 -275 OFFCURVE",
"278 -255 OFFCURVE",
"275 -253 CURVE",
"305 -190 LINE",
"305 -190 OFFCURVE",
"322 -213 OFFCURVE",
"364 -213 CURVE SMOOTH",
"424 -213 OFFCURVE",
"433 -143 OFFCURVE",
"433 -45 CURVE SMOOTH",
"433 0 LINE",
"501 0 LINE"
);
}
);
width = 551;
},
{
components = (
{
name = n;
}
);
layerId = "A4E552E4-62BE-43BB-A58F-34F0EE3B77B8";
paths = (
{
closed = 1;
nodes = (
"611 -79 LINE SMOOTH",
"611 -170 OFFCURVE",
"567 -275 OFFCURVE",
"426 -275 CURVE SMOOTH",
"342 -275 OFFCURVE",
"310 -254 OFFCURVE",
"285 -243 CURVE",
"340 -100 LINE",
"340 -100 OFFCURVE",
"363 -115 OFFCURVE",
"385 -115 CURVE SMOOTH",
"415 -115 OFFCURVE",
"434 -93 OFFCURVE",
"434 -45 CURVE SMOOTH",
"434 0 LINE",
"611 0 LINE"
);
}
);
width = 661;
}
);
unicode = 014B;
},
{
glyphname = o;
lastChange = "2018-06-08 12:45:59 +0000";
layers = (
{
anchors = (
{
name = bottom;
position = "{308, 0}";
},
{
name = center;
position = "{308, 257}";
},
{
name = ogonek;
position = "{554, 10}";
},
{
name = top;
position = "{308, 513}";
},
{
name = topright;
position = "{596, 513}";
}
);
layerId = "A4E552E4-62BE-43BB-A58F-34F0EE3B77B8";
paths = (
{
closed = 1;
nodes = (
"475 -15 OFFCURVE",
"596 98 OFFCURVE",
"596 255 CURVE SMOOTH",
"596 415 OFFCURVE",
"468 528 OFFCURVE",
"309 528 CURVE SMOOTH",
"147 528 OFFCURVE",
"20 415 OFFCURVE",
"20 255 CURVE SMOOTH",
"20 98 OFFCURVE",
"136 -15 OFFCURVE",
"309 -15 CURVE SMOOTH"
);
},
{
closed = 1;
nodes = (
"238 136 OFFCURVE",
"190 186 OFFCURVE",
"190 256 CURVE SMOOTH",
"190 327 OFFCURVE",
"243 377 OFFCURVE",
"310 377 CURVE SMOOTH",
"376 377 OFFCURVE",
"429 327 OFFCURVE",
"429 256 CURVE SMOOTH",
"429 186 OFFCURVE",
"379 136 OFFCURVE",
"310 136 CURVE SMOOTH"
);
}
);
width = 616;
},
{
anchors = (
{
name = bottom;
position = "{283, 0}";
},
{
name = center;
position = "{283, 257}";
},
{
name = ogonek;
position = "{509, 10}";
},
{
name = top;
position = "{283, 513}";
},
{
name = topright;
position = "{546, 513}";
}
);
layerId = "7B60DD57-6012-4D0F-BD38-A72A4BAC0E9D";
paths = (
{
closed = 1;
nodes = (
"450 -15 OFFCURVE",
"546 108 OFFCURVE",
"546 255 CURVE SMOOTH",
"546 405 OFFCURVE",
"443 528 OFFCURVE",
"284 528 CURVE SMOOTH",
"122 528 OFFCURVE",
"20 405 OFFCURVE",
"20 255 CURVE SMOOTH",
"20 108 OFFCURVE",
"111 -15 OFFCURVE",
"284 -15 CURVE SMOOTH"
);
},
{
closed = 1;
nodes = (
"168 49 OFFCURVE",
"91 132 OFFCURVE",
"91 256 CURVE SMOOTH",
"91 381 OFFCURVE",
"177 464 OFFCURVE",
"285 464 CURVE SMOOTH",
"392 464 OFFCURVE",
"478 381 OFFCURVE",
"478 256 CURVE SMOOTH",
"478 132 OFFCURVE",
"397 49 OFFCURVE",
"285 49 CURVE SMOOTH"
);
}
);
width = 566;
}
);
leftKerningGroup = c;
rightKerningGroup = c;
unicode = 006F;
},
{
glyphname = oslash;
lastChange = "2017-03-22 01:22:59 +0000";
layers = (
{
layerId = "A4E552E4-62BE-43BB-A58F-34F0EE3B77B8";
paths = (
{
closed = 1;
nodes = (
"127 46 LINE",
"179 7 OFFCURVE",
"250 -15 OFFCURVE",
"332 -15 CURVE SMOOTH",
"509 -15 OFFCURVE",
"638 98 OFFCURVE",
"638 256 CURVE SMOOTH",
"638 317 OFFCURVE",
"618 372 OFFCURVE",
"583 415 CURVE",
"668 484 LINE",
"623 538 LINE",
"533 465 LINE",
"479 505 OFFCURVE",
"409 528 OFFCURVE",
"332 528 CURVE SMOOTH",
"159 528 OFFCURVE",
"23 416 OFFCURVE",
"23 256 CURVE SMOOTH",
"23 194 OFFCURVE",
"42 139 OFFCURVE",
"76 95 CURVE",
"-7 28 LINE",
"38 -26 LINE"
);
},
{
closed = 1;
nodes = (
"304 136 OFFCURVE",
"281 143 OFFCURVE",
"262 155 CURVE",
"442 301 LINE",
"447 287 OFFCURVE",
"450 272 OFFCURVE",
"450 256 CURVE SMOOTH",
"450 186 OFFCURVE",
"400 136 OFFCURVE",
"331 136 CURVE SMOOTH"
);
},
{
closed = 1;
nodes = (
"213 224 OFFCURVE",
"211 239 OFFCURVE",
"211 256 CURVE SMOOTH",
"211 327 OFFCURVE",
"264 377 OFFCURVE",
"331 377 CURVE SMOOTH",
"356 377 OFFCURVE",
"380 369 OFFCURVE",
"399 356 CURVE",
"218 210 LINE"
);
}
);
width = 661;
},
{
layerId = "7B60DD57-6012-4D0F-BD38-A72A4BAC0E9D";
paths = (
{
closed = 1;
nodes = (
"108 45 LINE",
"151 7 OFFCURVE",
"210 -15 OFFCURVE",
"284 -15 CURVE SMOOTH",
"450 -15 OFFCURVE",
"546 108 OFFCURVE",
"546 255 CURVE SMOOTH",
"546 321 OFFCURVE",
"526 383 OFFCURVE",
"490 430 CURVE",
"543 484 LINE",
"498 538 LINE",
"440 479 LINE",
"398 510 OFFCURVE",
"345 528 OFFCURVE",
"284 528 CURVE SMOOTH",
"122 528 OFFCURVE",
"20 405 OFFCURVE",
"20 255 CURVE SMOOTH",
"20 197 OFFCURVE",
"34 142 OFFCURVE",
"62 98 CURVE",
"-7 28 LINE",
"38 -26 LINE"
);
},
{
closed = 1;
nodes = (
"233 49 OFFCURVE",
"190 65 OFFCURVE",
"157 94 CURVE",
"442 382 LINE",
"465 348 OFFCURVE",
"478 305 OFFCURVE",
"478 256 CURVE SMOOTH",
"478 132 OFFCURVE",
"397 49 OFFCURVE",
"285 49 CURVE SMOOTH"
);
},
{
closed = 1;
nodes = (
"99 180 OFFCURVE",
"91 216 OFFCURVE",
"91 256 CURVE SMOOTH",
"91 381 OFFCURVE",
"177 464 OFFCURVE",
"285 464 CURVE SMOOTH",
"325 464 OFFCURVE",
"362 452 OFFCURVE",
"393 432 CURVE",
"114 150 LINE"
);
}
);
width = 556;
}
);
leftKerningGroup = c;
rightKerningGroup = c;
unicode = 00F8;
},
{
glyphname = p;
lastChange = "2018-06-08 12:46:05 +0000";
layers = (
{
anchors = (
{
name = bottom;
position = "{342, 0}";
},
{
name = top;
position = "{342, 513}";
}
);
layerId = "A4E552E4-62BE-43BB-A58F-34F0EE3B77B8";
paths = (
{
closed = 1;
nodes = (
"554 -15 OFFCURVE",
"659 107 OFFCURVE",
"659 257 CURVE SMOOTH",
"659 407 OFFCURVE",
"554 528 OFFCURVE",
"404 528 CURVE SMOOTH",
"304 528 OFFCURVE",
"247 461 OFFCURVE",
"236 435 CURVE",
"235 435 LINE",
"235 513 LINE",
"61 513 LINE",
"60 513 LINE",
"60 -260 LINE",
"237 -260 LINE",
"236 69 LINE",
"252 38 OFFCURVE",
"305 -15 OFFCURVE",
"404 -15 CURVE SMOOTH"
);
},
{
closed = 1;
nodes = (
"426 377 OFFCURVE",
"474 327 OFFCURVE",
"474 257 CURVE SMOOTH",
"474 186 OFFCURVE",
"421 136 OFFCURVE",
"354 136 CURVE SMOOTH",
"288 136 OFFCURVE",
"239 186 OFFCURVE",
"239 257 CURVE SMOOTH",
"239 327 OFFCURVE",
"285 377 OFFCURVE",
"354 377 CURVE SMOOTH"
);
}
);
width = 683;
},
{
anchors = (
{
name = bottom;
position = "{297, 0}";
},
{
name = top;
position = "{297, 513}";
}
);
layerId = "7B60DD57-6012-4D0F-BD38-A72A4BAC0E9D";
paths = (
{
closed = 1;
nodes = (
"459 -15 OFFCURVE",
"569 97 OFFCURVE",
"569 257 CURVE SMOOTH",
"569 417 OFFCURVE",
"454 528 OFFCURVE",
"324 528 CURVE SMOOTH",
"188 528 OFFCURVE",
"138 441 OFFCURVE",
"127 415 CURVE",
"126 415 LINE",
"126 513 LINE",
"61 513 LINE",
"60 513 LINE",
"60 -260 LINE",
"128 -260 LINE",
"127 89 LINE",
"143 58 OFFCURVE",
"194 -15 OFFCURVE",
"324 -15 CURVE SMOOTH"
);
},
{
closed = 1;
nodes = (
"421 464 OFFCURVE",
"501 397 OFFCURVE",
"501 257 CURVE SMOOTH",
"501 116 OFFCURVE",
"416 49 OFFCURVE",
"319 49 CURVE SMOOTH",
"233 49 OFFCURVE",
"130 116 OFFCURVE",
"130 257 CURVE SMOOTH",
"130 397 OFFCURVE",
"230 464 OFFCURVE",
"319 464 CURVE SMOOTH"
);
}
);
width = 593;
}
);
leftKerningGroup = r;
rightKerningGroup = b;
unicode = 0070;
},
{
glyphname = thorn;
lastChange = "2018-06-08 12:46:11 +0000";
layers = (
{
anchors = (
{
name = bottom;
position = "{342, 0}";
},
{
name = top;
position = "{342, 513}";
}
);
layerId = "A4E552E4-62BE-43BB-A58F-34F0EE3B77B8";
paths = (
{
closed = 1;
nodes = (
"235 -260 LINE",
"235 58 LINE",
"273 16 OFFCURVE",
"335 -15 OFFCURVE",
"405 -15 CURVE SMOOTH",
"555 -15 OFFCURVE",
"660 106 OFFCURVE",
"660 256 CURVE SMOOTH",
"660 406 OFFCURVE",
"555 528 OFFCURVE",
"405 528 CURVE SMOOTH",
"336 528 OFFCURVE",
"279 505 OFFCURVE",
"237 464 CURVE",
"237 860 LINE",
"60 860 LINE",
"60 -260 LINE"
);
},
{
closed = 1;
nodes = (
"283 136 OFFCURVE",
"233 186 OFFCURVE",
"233 256 CURVE SMOOTH",
"233 327 OFFCURVE",
"286 377 OFFCURVE",
"352 377 CURVE SMOOTH",
"419 377 OFFCURVE",
"472 327 OFFCURVE",
"472 256 CURVE SMOOTH",
"472 186 OFFCURVE",
"424 136 OFFCURVE",
"352 136 CURVE SMOOTH"
);
}
);
width = 683;
},
{
anchors = (
{
name = bottom;
position = "{297, 0}";
},
{
name = top;
position = "{297, 513}";
}
);
layerId = "7B60DD57-6012-4D0F-BD38-A72A4BAC0E9D";
paths = (
{
closed = 1;
nodes = (
"128 -260 LINE",
"127 89 LINE",
"143 58 OFFCURVE",
"194 -15 OFFCURVE",
"324 -15 CURVE SMOOTH",
"459 -15 OFFCURVE",
"569 97 OFFCURVE",
"569 257 CURVE SMOOTH",
"569 417 OFFCURVE",
"454 528 OFFCURVE",
"324 528 CURVE SMOOTH",
"188 528 OFFCURVE",
"137 441 OFFCURVE",
"126 415 CURVE",
"126 860 LINE",
"60 860 LINE",
"60 -260 LINE"
);
},
{
closed = 1;
nodes = (
"233 49 OFFCURVE",
"130 116 OFFCURVE",
"130 257 CURVE SMOOTH",
"130 397 OFFCURVE",
"230 464 OFFCURVE",
"319 464 CURVE SMOOTH",
"421 464 OFFCURVE",
"501 397 OFFCURVE",
"501 257 CURVE SMOOTH",
"501 116 OFFCURVE",
"416 49 OFFCURVE",
"319 49 CURVE SMOOTH"
);
}
);
width = 593;
}
);
rightKerningGroup = b;
unicode = 00FE;
},
{
glyphname = q;
lastChange = "2017-03-17 12:49:43 +0000";
layers = (
{
layerId = "A4E552E4-62BE-43BB-A58F-34F0EE3B77B8";
paths = (
{
closed = 1;
nodes = (
"378 -15 OFFCURVE",
"431 38 OFFCURVE",
"447 69 CURVE",
"446 -260 LINE",
"623 -260 LINE",
"623 513 LINE",
"622 513 LINE",
"448 513 LINE",
"448 435 LINE",
"447 435 LINE",
"436 461 OFFCURVE",
"379 528 OFFCURVE",
"279 528 CURVE SMOOTH",
"129 528 OFFCURVE",
"24 407 OFFCURVE",
"24 257 CURVE SMOOTH",
"24 107 OFFCURVE",
"129 -15 OFFCURVE",
"279 -15 CURVE SMOOTH"
);
},
{
closed = 1;
nodes = (
"398 377 OFFCURVE",
"444 327 OFFCURVE",
"444 257 CURVE SMOOTH",
"444 186 OFFCURVE",
"395 136 OFFCURVE",
"329 136 CURVE SMOOTH",
"262 136 OFFCURVE",
"209 186 OFFCURVE",
"209 257 CURVE SMOOTH",
"209 327 OFFCURVE",
"257 377 OFFCURVE",
"329 377 CURVE SMOOTH"
);
}
);
width = 683;
},
{
layerId = "7B60DD57-6012-4D0F-BD38-A72A4BAC0E9D";
paths = (
{
closed = 1;
nodes = (
"387 -15 OFFCURVE",
"436 75 OFFCURVE",
"447 104 CURVE",
"446 -260 LINE",
"517 -260 LINE",
"517 513 LINE",
"516 513 LINE",
"448 513 LINE",
"448 415 LINE",
"447 415 LINE",
"443 437 OFFCURVE",
"387 528 OFFCURVE",
"259 528 CURVE SMOOTH",
"102 528 OFFCURVE",
"19 397 OFFCURVE",
"19 257 CURVE SMOOTH",
"19 117 OFFCURVE",
"102 -15 OFFCURVE",
"259 -15 CURVE SMOOTH"
);
},
{
closed = 1;
nodes = (
"360 467 OFFCURVE",
"444 387 OFFCURVE",
"444 257 CURVE SMOOTH",
"444 127 OFFCURVE",
"360 46 OFFCURVE",
"258 46 CURVE SMOOTH",
"149 46 OFFCURVE",
"89 136 OFFCURVE",
"89 257 CURVE SMOOTH",
"89 377 OFFCURVE",
"149 467 OFFCURVE",
"258 467 CURVE SMOOTH"
);
}
);
width = 577;
}
);
leftKerningGroup = d;
rightKerningGroup = d;
unicode = 0071;
},
{
glyphname = r;
lastChange = "2018-06-08 12:46:13 +0000";
layers = (
{
anchors = (
{
name = bottom;
position = "{249, 0}";
},
{
name = top;
position = "{249, 513}";
}
);
layerId = "A4E552E4-62BE-43BB-A58F-34F0EE3B77B8";
paths = (
{
closed = 1;
nodes = (
"237 270 LINE SMOOTH",
"237 283 OFFCURVE",
"250 374 OFFCURVE",
"342 374 CURVE SMOOTH",
"401 374 OFFCURVE",
"434 346 OFFCURVE",
"434 346 CURVE",
"508 496 LINE",
"508 496 OFFCURVE",
"462 528 OFFCURVE",
"396 528 CURVE SMOOTH",
"295 528 OFFCURVE",
"239 439 OFFCURVE",
"239 439 CURVE SMOOTH",
"237 439 LINE",
"237 513 LINE",
"60 513 LINE",
"60 0 LINE",
"237 0 LINE"
);
}
);
width = 498;
},
{
anchors = (
{
name = bottom;
position = "{187, 0}";
},
{
name = top;
position = "{187, 513}";
}
);
layerId = "7B60DD57-6012-4D0F-BD38-A72A4BAC0E9D";
paths = (
{
closed = 1;
nodes = (
"128 293 LINE SMOOTH",
"128 353 OFFCURVE",
"193 464 OFFCURVE",
"274 464 CURVE SMOOTH",
"325 464 OFFCURVE",
"353 438 OFFCURVE",
"353 438 CURVE",
"383 501 LINE",
"383 501 OFFCURVE",
"343 528 OFFCURVE",
"277 528 CURVE SMOOTH",
"185 528 OFFCURVE",
"139 462 OFFCURVE",
"129 436 CURVE",
"128 436 LINE",
"128 513 LINE",
"60 513 LINE",
"60 0 LINE",
"128 0 LINE"
);
}
);
width = 373;
}
);
leftKerningGroup = r;
rightKerningGroup = r;
unicode = 0072;
},
{
glyphname = s;
lastChange = "2018-06-08 12:46:17 +0000";
layers = (
{
anchors = (
{
name = bottom;
position = "{246, 0}";
},
{
name = top;
position = "{246, 513}";
}
);
layerId = "A4E552E4-62BE-43BB-A58F-34F0EE3B77B8";
paths = (
{
closed = 1;
nodes = (
"148 528 OFFCURVE",
"59 468 OFFCURVE",
"59 363 CURVE SMOOTH",
"59 286 OFFCURVE",
"111 250 OFFCURVE",
"163 223 CURVE SMOOTH",
"221 193 OFFCURVE",
"277 190 OFFCURVE",
"277 153 CURVE SMOOTH",
"277 119 OFFCURVE",
"247 116 OFFCURVE",
"222 116 CURVE SMOOTH",
"165 116 OFFCURVE",
"95 175 OFFCURVE",
"95 175 CURVE",
"23 54 LINE",
"23 54 OFFCURVE",
"97 -15 OFFCURVE",
"221 -15 CURVE SMOOTH",
"326 -15 OFFCURVE",
"464 9 OFFCURVE",
"464 160 CURVE SMOOTH",
"464 265 OFFCURVE",
"376 303 OFFCURVE",
"308 324 CURVE SMOOTH",
"264 338 OFFCURVE",
"228 346 OFFCURVE",
"228 373 CURVE SMOOTH",
"228 397 OFFCURVE",
"244 404 OFFCURVE",
"283 404 CURVE SMOOTH",
"337 404 OFFCURVE",
"397 372 OFFCURVE",
"397 372 CURVE",
"455 488 LINE",
"455 488 OFFCURVE",
"382 528 OFFCURVE",
"283 528 CURVE SMOOTH"
);
}
);
width = 492;
},
{
anchors = (
{
name = bottom;
position = "{215, 0}";
},
{
name = top;
position = "{215, 513}";
}
);
layerId = "7B60DD57-6012-4D0F-BD38-A72A4BAC0E9D";
paths = (
{
closed = 1;
nodes = (
"126 528 OFFCURVE",
"46 478 OFFCURVE",
"46 388 CURVE SMOOTH",
"46 286 OFFCURVE",
"157 257 OFFCURVE",
"208 238 CURVE SMOOTH",
"247 224 OFFCURVE",
"331 203 OFFCURVE",
"331 142 CURVE SMOOTH",
"331 82 OFFCURVE",
"273 49 OFFCURVE",
"200 49 CURVE SMOOTH",
"121 49 OFFCURVE",
"65 105 OFFCURVE",
"65 105 CURVE",
"23 44 LINE",
"23 44 OFFCURVE",
"96 -15 OFFCURVE",
"198 -15 CURVE SMOOTH",
"305 -15 OFFCURVE",
"401 33 OFFCURVE",
"401 143 CURVE SMOOTH",
"401 259 OFFCURVE",
"284 282 OFFCURVE",
"235 298 CURVE SMOOTH",
"196 311 OFFCURVE",
"118 331 OFFCURVE",
"118 389 CURVE SMOOTH",
"118 433 OFFCURVE",
"159 466 OFFCURVE",
"232 464 CURVE SMOOTH",
"303 462 OFFCURVE",
"345 432 OFFCURVE",
"345 432 CURVE",
"376 498 LINE",
"376 498 OFFCURVE",
"321 528 OFFCURVE",
"232 528 CURVE SMOOTH"
);
}
);
width = 429;
}
);
leftKerningGroup = s;
rightKerningGroup = s;
unicode = 0073;
},
{
glyphname = germandbls;
lastChange = "2018-06-08 12:46:21 +0000";
layers = (
{
anchors = (
{
name = bottom;
position = "{343, 0}";
},
{
name = top;
position = "{343, 513}";
}
);
layerId = "A4E552E4-62BE-43BB-A58F-34F0EE3B77B8";
paths = (
{
closed = 1;
nodes = (
"356 -15 LINE",
"534 -15 OFFCURVE",
"663 97 OFFCURVE",
"663 255 CURVE SMOOTH",
"663 356 OFFCURVE",
"611 423 OFFCURVE",
"531 460 CURVE",
"592 494 OFFCURVE",
"631 551 OFFCURVE",
"631 630 CURVE SMOOTH",
"631 768 OFFCURVE",
"517 875 OFFCURVE",
"363 875 CURVE SMOOTH",
"199 875 OFFCURVE",
"90 772 OFFCURVE",
"90 622 CURVE",
"90 0 LINE",
"267 0 LINE",
"267 636 LINE SMOOTH",
"267 695 OFFCURVE",
"329 726 OFFCURVE",
"363 726 CURVE SMOOTH",
"421 726 OFFCURVE",
"464 690 OFFCURVE",
"464 630 CURVE SMOOTH",
"464 567 OFFCURVE",
"414 524 OFFCURVE",
"356 524 CURVE",
"356 389 LINE",
"432 389 OFFCURVE",
"475 338 OFFCURVE",
"475 264 CURVE SMOOTH",
"475 194 OFFCURVE",
"425 147 OFFCURVE",
"356 147 CURVE"
);
}
);
width = 686;
},
{
anchors = (
{
name = bottom;
position = "{293, 0}";
},
{
name = top;
position = "{293, 513}";
}
);
layerId = "7B60DD57-6012-4D0F-BD38-A72A4BAC0E9D";
paths = (
{
closed = 1;
nodes = (
"276 -15 LINE",
"454 -15 OFFCURVE",
"563 77 OFFCURVE",
"563 235 CURVE SMOOTH",
"563 336 OFFCURVE",
"475 437 OFFCURVE",
"395 454 CURVE",
"459 472 OFFCURVE",
"525 571 OFFCURVE",
"525 660 CURVE SMOOTH",
"525 798 OFFCURVE",
"437 875 OFFCURVE",
"313 875 CURVE SMOOTH",
"179 875 OFFCURVE",
"90 772 OFFCURVE",
"90 622 CURVE",
"90 0 LINE",
"158 0 LINE",
"158 636 LINE SMOOTH",
"158 735 OFFCURVE",
"209 814 OFFCURVE",
"313 814 CURVE SMOOTH",
"391 814 OFFCURVE",
"454 777 OFFCURVE",
"454 667 CURVE SMOOTH",
"454 574 OFFCURVE",
"394 484 OFFCURVE",
"276 484 CURVE",
"276 419 LINE",
"412 419 OFFCURVE",
"490 327 OFFCURVE",
"490 233 CURVE SMOOTH",
"490 133 OFFCURVE",
"425 53 OFFCURVE",
"276 53 CURVE"
);
}
);
width = 586;
}
);
rightKerningGroup = d;
unicode = 00DF;
},
{
glyphname = t;
lastChange = "2018-06-08 12:30:34 +0000";
layers = (
{
anchors = (
{
name = bottom;
position = "{248, 0}";
},
{
name = center;
position = "{198, 257}";
},
{
name = top;
position = "{198, 655}";
},
{
name = topright;
position = "{375, 513}";
}
);
layerId = "A4E552E4-62BE-43BB-A58F-34F0EE3B77B8";
paths = (
{
closed = 1;
nodes = (
"16 378 LINE",
"90 378 LINE",
"90 181 LINE SMOOTH",
"90 90 OFFCURVE",
"124 -15 OFFCURVE",
"265 -15 CURVE SMOOTH",
"338 -15 OFFCURVE",
"395 17 OFFCURVE",
"395 17 CURVE",
"351 160 LINE",
"351 160 OFFCURVE",
"330 144 OFFCURVE",
"307 144 CURVE SMOOTH",
"279 144 OFFCURVE",
"267 167 OFFCURVE",
"267 215 CURVE SMOOTH",
"267 378 LINE",
"375 378 LINE",
"375 513 LINE",
"267 513 LINE",
"267 704 LINE",
"90 704 LINE",
"90 513 LINE",
"16 513 LINE"
);
}
);
width = 395;
},
{
anchors = (
{
name = bottom;
position = "{218, 0}";
},
{
name = center;
position = "{168, 257}";
},
{
name = top;
position = "{168, 673}";
},
{
name = topright;
position = "{315, 513}";
}
);
layerId = "7B60DD57-6012-4D0F-BD38-A72A4BAC0E9D";
paths = (
{
closed = 1;
nodes = (
"16 448 LINE",
"120 448 LINE",
"120 161 LINE SMOOTH",
"120 70 OFFCURVE",
"134 -15 OFFCURVE",
"235 -15 CURVE SMOOTH",
"292 -15 OFFCURVE",
"330 13 OFFCURVE",
"330 13 CURVE",
"307 68 LINE",
"307 68 OFFCURVE",
"276 49 OFFCURVE",
"240 49 CURVE SMOOTH",
"212 49 OFFCURVE",
"188 73 OFFCURVE",
"188 144 CURVE SMOOTH",
"188 448 LINE",
"326 448 LINE",
"326 513 LINE",
"188 513 LINE",
"188 704 LINE",
"120 704 LINE",
"120 513 LINE",
"16 513 LINE"
);
}
);
width = 335;
}
);
leftKerningGroup = t;
rightKerningGroup = t;
unicode = 0074;
},
{
glyphname = tbar;
lastChange = "2017-03-22 01:34:53 +0000";
layers = (
{
components = (
{
name = t;
}
);
layerId = "7B60DD57-6012-4D0F-BD38-A72A4BAC0E9D";
paths = (
{
closed = 1;
nodes = (
"16 278 LINE",
"326 278 LINE",
"326 343 LINE",
"16 343 LINE"
);
}
);
width = 335;
},
{
components = (
{
name = t;
}
);
layerId = "A4E552E4-62BE-43BB-A58F-34F0EE3B77B8";
paths = (
{
closed = 1;
nodes = (
"17 208 LINE",
"375 208 LINE",
"375 343 LINE",
"17 343 LINE"
);
}
);
width = 400;
}
);
unicode = 0167;
},
{
glyphname = u;
lastChange = "2018-06-08 12:46:26 +0000";
layers = (
{
anchors = (
{
name = bottom;
position = "{328, 0}";
},
{
name = ogonek;
position = "{590, 10}";
},
{
name = top;
position = "{328, 513}";
},
{
name = topright;
position = "{636, 513}";
}
);
layerId = "A4E552E4-62BE-43BB-A58F-34F0EE3B77B8";
paths = (
{
closed = 1;
nodes = (
"227 513 LINE",
"50 513 LINE",
"50 266 LINE SMOOTH",
"50 94 OFFCURVE",
"136 -15 OFFCURVE",
"328 -15 CURVE SMOOTH",
"520 -15 OFFCURVE",
"606 94 OFFCURVE",
"606 266 CURVE SMOOTH",
"606 513 LINE",
"429 513 LINE",
"429 279 LINE SMOOTH",
"429 178 OFFCURVE",
"402 129 OFFCURVE",
"328 129 CURVE SMOOTH",
"254 129 OFFCURVE",
"227 178 OFFCURVE",
"227 279 CURVE SMOOTH"
);
}
);
width = 656;
},
{
anchors = (
{
name = bottom;
position = "{278, 0}";
},
{
name = ogonek;
position = "{500, 10}";
},
{
name = top;
position = "{278, 513}";
},
{
name = topright;
position = "{536, 513}";
}
);
layerId = "7B60DD57-6012-4D0F-BD38-A72A4BAC0E9D";
paths = (
{
closed = 1;
nodes = (
"117 513 LINE",
"50 513 LINE",
"50 266 LINE SMOOTH",
"50 101 OFFCURVE",
"106 -15 OFFCURVE",
"278 -15 CURVE SMOOTH",
"450 -15 OFFCURVE",
"506 101 OFFCURVE",
"506 266 CURVE SMOOTH",
"506 513 LINE",
"439 513 LINE",
"439 299 LINE SMOOTH",
"439 138 OFFCURVE",
"402 49 OFFCURVE",
"278 49 CURVE SMOOTH",
"154 49 OFFCURVE",
"117 138 OFFCURVE",
"117 299 CURVE SMOOTH"
);
}
);
width = 556;
}
);
leftKerningGroup = u;
rightKerningGroup = u;
unicode = 0075;
},
{
glyphname = v;
lastChange = "2018-06-08 12:46:29 +0000";
layers = (
{
anchors = (
{
name = bottom;
position = "{315, 0}";
},
{
name = top;
position = "{315, 513}";
}
);
layerId = "A4E552E4-62BE-43BB-A58F-34F0EE3B77B8";
paths = (
{
closed = 1;
nodes = (
"255 0 LINE",
"375 0 LINE",
"650 513 LINE",
"440 513 LINE",
"315 234 LINE",
"190 513 LINE",
"-20 513 LINE"
);
}
);
width = 630;
},
{
anchors = (
{
name = bottom;
position = "{260, 0}";
},
{
name = top;
position = "{260, 513}";
}
);
layerId = "7B60DD57-6012-4D0F-BD38-A72A4BAC0E9D";
paths = (
{
closed = 1;
nodes = (
"230 0 LINE",
"290 0 LINE",
"525 513 LINE",
"452 513 LINE",
"260 82 LINE",
"68 513 LINE",
"-5 513 LINE"
);
}
);
width = 520;
}
);
leftKerningGroup = v;
rightKerningGroup = v;
unicode = 0076;
},
{
glyphname = w;
lastChange = "2018-06-08 12:46:32 +0000";
layers = (
{
anchors = (
{
name = bottom;
position = "{473, 0}";
},
{
name = top;
position = "{473, 513}";
}
);
layerId = "A4E552E4-62BE-43BB-A58F-34F0EE3B77B8";
paths = (
{
closed = 1;
nodes = (
"611 0 LINE",
"731 0 LINE",
"946 513 LINE",
"742 513 LINE",
"662 264 LINE",
"534 513 LINE",
"412 513 LINE",
"283 264 LINE",
"204 513 LINE",
"0 513 LINE",
"215 0 LINE",
"335 0 LINE",
"473 265 LINE"
);
}
);
width = 946;
},
{
anchors = (
{
name = bottom;
position = "{356, 0}";
},
{
name = top;
position = "{356, 513}";
}
);
layerId = "7B60DD57-6012-4D0F-BD38-A72A4BAC0E9D";
paths = (
{
closed = 1;
nodes = (
"484 0 LINE",
"544 0 LINE",
"702 513 LINE",
"625 513 LINE",
"512 114 LINE",
"387 513 LINE",
"325 513 LINE",
"199 114 LINE",
"87 513 LINE",
"10 513 LINE",
"168 0 LINE",
"228 0 LINE",
"356 395 LINE"
);
}
);
width = 712;
}
);
leftKerningGroup = v;
rightKerningGroup = v;
unicode = 0077;
},
{
glyphname = x;
lastChange = "2018-06-08 12:46:36 +0000";
layers = (
{
anchors = (
{
name = bottom;
position = "{327, 0}";
},
{
name = top;
position = "{327, 513}";
}
);
layerId = "A4E552E4-62BE-43BB-A58F-34F0EE3B77B8";
paths = (
{
closed = 1;
nodes = (
"623 513 LINE",
"416 513 LINE",
"327 394 LINE",
"238 513 LINE",
"31 513 LINE",
"219 268 LINE",
"0 0 LINE",
"214 0 LINE",
"327 145 LINE",
"440 0 LINE",
"654 0 LINE",
"435 268 LINE"
);
}
);
width = 654;
},
{
anchors = (
{
name = bottom;
position = "{272, 0}";
},
{
name = top;
position = "{272, 513}";
}
);
layerId = "7B60DD57-6012-4D0F-BD38-A72A4BAC0E9D";
paths = (
{
closed = 1;
nodes = (
"513 513 LINE",
"431 513 LINE",
"272 319 LINE",
"113 513 LINE",
"31 513 LINE",
"229 268 LINE",
"0 0 LINE",
"89 0 LINE",
"272 220 LINE",
"455 0 LINE",
"544 0 LINE",
"315 268 LINE"
);
}
);
width = 544;
}
);
rightKerningGroup = d;
unicode = 0078;
},
{
glyphname = y;
lastChange = "2018-06-08 12:46:39 +0000";
layers = (
{
anchors = (
{
name = bottom;
position = "{299, 0}";
},
{
name = top;
position = "{299, 513}";
}
);
layerId = "A4E552E4-62BE-43BB-A58F-34F0EE3B77B8";
paths = (
{
closed = 1;
nodes = (
"167 513 LINE",
"-17 513 LINE",
"213 0 LINE",
"86 -260 LINE",
"270 -260 LINE",
"623 513 LINE",
"439 513 LINE",
"302 197 LINE"
);
}
);
width = 598;
},
{
anchors = (
{
name = bottom;
position = "{239, 0}";
},
{
name = top;
position = "{239, 513}";
}
);
layerId = "7B60DD57-6012-4D0F-BD38-A72A4BAC0E9D";
paths = (
{
closed = 1;
nodes = (
"66 513 LINE",
"-8 513 LINE",
"212 0 LINE",
"85 -260 LINE",
"159 -260 LINE",
"502 513 LINE",
"428 513 LINE",
"247 77 LINE"
);
}
);
width = 477;
}
);
leftKerningGroup = v;
rightKerningGroup = v;
unicode = 0079;
},
{
glyphname = z;
lastChange = "2018-06-08 12:46:42 +0000";
layers = (
{
anchors = (
{
name = bottom;
position = "{281, 0}";
},
{
name = top;
position = "{281, 513}";
}
);
layerId = "A4E552E4-62BE-43BB-A58F-34F0EE3B77B8";
paths = (
{
closed = 1;
nodes = (
"47 378 LINE",
"259 378 LINE",
"5 0 LINE",
"536 0 LINE",
"536 135 LINE",
"302 135 LINE",
"556 513 LINE",
"47 513 LINE"
);
}
);
width = 561;
},
{
anchors = (
{
name = bottom;
position = "{226, 0}";
},
{
name = top;
position = "{226, 513}";
}
);
layerId = "7B60DD57-6012-4D0F-BD38-A72A4BAC0E9D";
paths = (
{
closed = 1;
nodes = (
"32 448 LINE",
"327 448 LINE",
"0 0 LINE",
"441 0 LINE",
"441 65 LINE",
"124 65 LINE",
"451 513 LINE",
"32 513 LINE"
);
}
);
width = 451;
}
);
leftKerningGroup = z;
rightKerningGroup = d;
unicode = 007A;
},
{
glyphname = f_f;
lastChange = "2017-03-22 01:40:21 +0000";
layers = (
{
layerId = "A4E552E4-62BE-43BB-A58F-34F0EE3B77B8";
paths = (
{
closed = 1;
nodes = (
"287 0 LINE",
"287 378 LINE",
"465 378 LINE",
"465 0 LINE",
"642 0 LINE",
"642 378 LINE",
"760 378 LINE",
"760 513 LINE",
"642 513 LINE",
"642 617 LINE SMOOTH",
"642 688 OFFCURVE",
"652 718 OFFCURVE",
"697 718 CURVE SMOOTH",
"726 718 OFFCURVE",
"750 704 OFFCURVE",
"750 704 CURVE",
"812 829 LINE",
"812 829 OFFCURVE",
"756 875 OFFCURVE",
"666 875 CURVE SMOOTH",
"538 875 OFFCURVE",
"466 772 OFFCURVE",
"465 622 CURVE SMOOTH",
"465 513 LINE",
"287 513 LINE",
"287 617 LINE SMOOTH",
"287 688 OFFCURVE",
"297 718 OFFCURVE",
"342 718 CURVE SMOOTH",
"371 718 OFFCURVE",
"395 704 OFFCURVE",
"395 704 CURVE",
"457 829 LINE",
"457 829 OFFCURVE",
"401 875 OFFCURVE",
"311 875 CURVE SMOOTH",
"183 875 OFFCURVE",
"111 772 OFFCURVE",
"110 622 CURVE SMOOTH",
"110 513 LINE",
"36 513 LINE",
"36 378 LINE",
"110 378 LINE",
"110 0 LINE"
);
}
);
width = 812;
},
{
layerId = "7B60DD57-6012-4D0F-BD38-A72A4BAC0E9D";
paths = (
{
closed = 1;
nodes = (
"216 0 LINE",
"216 448 LINE",
"436 448 LINE",
"436 0 LINE",
"503 0 LINE",
"503 448 LINE",
"654 448 LINE",
"654 513 LINE",
"503 513 LINE",
"503 617 LINE SMOOTH",
"503 768 OFFCURVE",
"554 813 OFFCURVE",
"601 813 CURVE SMOOTH",
"650 813 OFFCURVE",
"673 783 OFFCURVE",
"673 783 CURVE",
"699 847 LINE",
"699 847 OFFCURVE",
"665 875 OFFCURVE",
"602 875 CURVE SMOOTH",
"521 875 OFFCURVE",
"436 802 OFFCURVE",
"436 642 CURVE SMOOTH",
"436 513 LINE",
"216 513 LINE",
"216 617 LINE SMOOTH",
"216 768 OFFCURVE",
"267 813 OFFCURVE",
"314 813 CURVE SMOOTH",
"363 813 OFFCURVE",
"386 783 OFFCURVE",
"386 783 CURVE",
"412 847 LINE",
"412 847 OFFCURVE",
"378 875 OFFCURVE",
"315 875 CURVE SMOOTH",
"234 875 OFFCURVE",
"149 802 OFFCURVE",
"149 642 CURVE SMOOTH",
"149 513 LINE",
"35 513 LINE",
"35 448 LINE",
"149 448 LINE",
"149 0 LINE"
);
}
);
width = 699;
}
);
rightKerningGroup = d;
unicode = FB00;
},
{
glyphname = f_f_i;
lastChange = "2017-03-22 01:41:23 +0000";
layers = (
{
layerId = "A4E552E4-62BE-43BB-A58F-34F0EE3B77B8";
paths = (
{
closed = 1;
nodes = (
"287 0 LINE",
"287 378 LINE",
"465 378 LINE",
"465 0 LINE",
"642 0 LINE",
"642 378 LINE",
"810 378 LINE",
"810 0 LINE",
"987 0 LINE",
"987 513 LINE",
"642 513 LINE",
"642 617 LINE SMOOTH",
"642 688 OFFCURVE",
"658 719 OFFCURVE",
"728 719 CURVE SMOOTH",
"781 719 OFFCURVE",
"845 667 OFFCURVE",
"845 667 CURVE",
"907 792 LINE",
"907 792 OFFCURVE",
"814 875 OFFCURVE",
"676 875 CURVE SMOOTH",
"536 875 OFFCURVE",
"466 772 OFFCURVE",
"465 622 CURVE SMOOTH",
"465 513 LINE",
"287 513 LINE",
"287 617 LINE SMOOTH",
"287 688 OFFCURVE",
"297 718 OFFCURVE",
"342 718 CURVE SMOOTH",
"371 718 OFFCURVE",
"395 704 OFFCURVE",
"395 704 CURVE",
"457 829 LINE",
"457 829 OFFCURVE",
"401 875 OFFCURVE",
"311 875 CURVE SMOOTH",
"183 875 OFFCURVE",
"111 772 OFFCURVE",
"110 622 CURVE SMOOTH",
"110 513 LINE",
"36 513 LINE",
"36 378 LINE",
"110 378 LINE",
"110 0 LINE"
);
}
);
width = 1047;
},
{
layerId = "7B60DD57-6012-4D0F-BD38-A72A4BAC0E9D";
paths = (
{
closed = 1;
nodes = (
"216 0 LINE",
"216 448 LINE",
"436 448 LINE",
"436 0 LINE",
"503 0 LINE",
"503 448 LINE",
"728 448 LINE",
"728 0 LINE",
"795 0 LINE",
"795 513 LINE",
"503 513 LINE",
"503 617 LINE SMOOTH",
"503 768 OFFCURVE",
"564 813 OFFCURVE",
"611 813 CURVE SMOOTH",
"710 813 OFFCURVE",
"727 743 OFFCURVE",
"727 743 CURVE",
"763 796 LINE",
"763 796 OFFCURVE",
"725 875 OFFCURVE",
"612 875 CURVE SMOOTH",
"531 875 OFFCURVE",
"436 802 OFFCURVE",
"436 642 CURVE SMOOTH",
"436 513 LINE",
"216 513 LINE",
"216 617 LINE SMOOTH",
"216 768 OFFCURVE",
"267 813 OFFCURVE",
"314 813 CURVE SMOOTH",
"363 813 OFFCURVE",
"386 783 OFFCURVE",
"386 783 CURVE",
"412 847 LINE",
"412 847 OFFCURVE",
"378 875 OFFCURVE",
"315 875 CURVE SMOOTH",
"234 875 OFFCURVE",
"149 802 OFFCURVE",
"149 642 CURVE SMOOTH",
"149 513 LINE",
"35 513 LINE",
"35 448 LINE",
"149 448 LINE",
"149 0 LINE"
);
}
);
width = 855;
}
);
rightKerningGroup = d;
unicode = FB03;
},
{
glyphname = f_f_j;
lastChange = "2017-03-22 01:42:05 +0000";
layers = (
{
layerId = "A4E552E4-62BE-43BB-A58F-34F0EE3B77B8";
paths = (
{
closed = 1;
nodes = (
"943 -275 OFFCURVE",
"987 -170 OFFCURVE",
"987 -79 CURVE SMOOTH",
"987 513 LINE",
"642 513 LINE",
"642 617 LINE SMOOTH",
"642 688 OFFCURVE",
"658 719 OFFCURVE",
"728 719 CURVE SMOOTH",
"781 719 OFFCURVE",
"845 667 OFFCURVE",
"845 667 CURVE",
"907 792 LINE",
"907 792 OFFCURVE",
"814 875 OFFCURVE",
"676 875 CURVE SMOOTH",
"536 875 OFFCURVE",
"466 772 OFFCURVE",
"465 622 CURVE SMOOTH",
"465 513 LINE",
"287 513 LINE",
"287 617 LINE SMOOTH",
"287 688 OFFCURVE",
"297 718 OFFCURVE",
"342 718 CURVE SMOOTH",
"371 718 OFFCURVE",
"395 704 OFFCURVE",
"395 704 CURVE",
"457 829 LINE",
"457 829 OFFCURVE",
"401 875 OFFCURVE",
"311 875 CURVE SMOOTH",
"183 875 OFFCURVE",
"111 772 OFFCURVE",
"110 622 CURVE SMOOTH",
"110 513 LINE",
"36 513 LINE",
"36 378 LINE",
"110 378 LINE",
"110 0 LINE",
"287 0 LINE",
"287 378 LINE",
"465 378 LINE",
"465 0 LINE",
"642 0 LINE",
"642 378 LINE",
"810 378 LINE",
"810 -45 LINE SMOOTH",
"810 -93 OFFCURVE",
"791 -115 OFFCURVE",
"761 -115 CURVE SMOOTH",
"739 -115 OFFCURVE",
"716 -100 OFFCURVE",
"716 -100 CURVE",
"661 -243 LINE",
"686 -254 OFFCURVE",
"718 -275 OFFCURVE",
"802 -275 CURVE SMOOTH"
);
}
);
width = 1047;
},
{
layerId = "7B60DD57-6012-4D0F-BD38-A72A4BAC0E9D";
paths = (
{
closed = 1;
nodes = (
"756 -275 OFFCURVE",
"784 -180 OFFCURVE",
"784 -79 CURVE SMOOTH",
"784 513 LINE",
"503 513 LINE",
"503 617 LINE SMOOTH",
"503 768 OFFCURVE",
"564 813 OFFCURVE",
"611 813 CURVE SMOOTH",
"710 813 OFFCURVE",
"727 743 OFFCURVE",
"727 743 CURVE",
"763 796 LINE",
"763 796 OFFCURVE",
"725 875 OFFCURVE",
"612 875 CURVE SMOOTH",
"531 875 OFFCURVE",
"436 802 OFFCURVE",
"436 642 CURVE SMOOTH",
"436 513 LINE",
"216 513 LINE",
"216 617 LINE SMOOTH",
"216 768 OFFCURVE",
"267 813 OFFCURVE",
"314 813 CURVE SMOOTH",
"363 813 OFFCURVE",
"386 783 OFFCURVE",
"386 783 CURVE",
"412 847 LINE",
"412 847 OFFCURVE",
"378 875 OFFCURVE",
"315 875 CURVE SMOOTH",
"234 875 OFFCURVE",
"149 802 OFFCURVE",
"149 642 CURVE SMOOTH",
"149 513 LINE",
"35 513 LINE",
"35 448 LINE",
"149 448 LINE",
"149 0 LINE",
"216 0 LINE",
"216 448 LINE",
"436 448 LINE",
"436 0 LINE",
"503 0 LINE",
"503 448 LINE",
"716 448 LINE",
"716 -45 LINE SMOOTH",
"716 -143 OFFCURVE",
"707 -213 OFFCURVE",
"647 -213 CURVE SMOOTH",
"605 -213 OFFCURVE",
"588 -190 OFFCURVE",
"588 -190 CURVE",
"558 -253 LINE",
"561 -255 OFFCURVE",
"595 -275 OFFCURVE",
"649 -275 CURVE SMOOTH"
);
}
);
width = 855;
}
);
rightKerningGroup = d;
},
{
glyphname = f_f_l;
lastChange = "2017-03-22 02:18:21 +0000";
layers = (
{
layerId = "A4E552E4-62BE-43BB-A58F-34F0EE3B77B8";
paths = (
{
closed = 1;
nodes = (
"287 0 LINE",
"287 378 LINE",
"465 378 LINE",
"465 0 LINE",
"642 0 LINE",
"642 378 LINE",
"760 378 LINE",
"760 513 LINE",
"642 513 LINE",
"642 617 LINE SMOOTH",
"642 688 OFFCURVE",
"652 718 OFFCURVE",
"697 718 CURVE SMOOTH",
"726 718 OFFCURVE",
"750 704 OFFCURVE",
"750 704 CURVE",
"791 843 LINE",
"767 857 OFFCURVE",
"724 875 OFFCURVE",
"666 875 CURVE SMOOTH",
"538 875 OFFCURVE",
"466 772 OFFCURVE",
"465 622 CURVE SMOOTH",
"465 513 LINE",
"287 513 LINE",
"287 617 LINE SMOOTH",
"287 688 OFFCURVE",
"297 718 OFFCURVE",
"342 718 CURVE SMOOTH",
"371 718 OFFCURVE",
"395 704 OFFCURVE",
"395 704 CURVE",
"457 829 LINE",
"457 829 OFFCURVE",
"401 875 OFFCURVE",
"311 875 CURVE SMOOTH",
"183 875 OFFCURVE",
"111 772 OFFCURVE",
"110 622 CURVE SMOOTH",
"110 513 LINE",
"36 513 LINE",
"36 378 LINE",
"110 378 LINE",
"110 0 LINE"
);
},
{
closed = 1;
nodes = (
"987 0 LINE",
"987 860 LINE",
"810 860 LINE",
"810 0 LINE"
);
}
);
width = 1047;
},
{
layerId = "7B60DD57-6012-4D0F-BD38-A72A4BAC0E9D";
paths = (
{
closed = 1;
nodes = (
"216 0 LINE",
"216 448 LINE",
"436 448 LINE",
"436 0 LINE",
"503 0 LINE",
"503 448 LINE",
"654 448 LINE",
"654 513 LINE",
"503 513 LINE",
"503 617 LINE SMOOTH",
"503 768 OFFCURVE",
"554 813 OFFCURVE",
"601 813 CURVE SMOOTH",
"650 813 OFFCURVE",
"673 783 OFFCURVE",
"673 783 CURVE",
"699 847 LINE",
"699 847 OFFCURVE",
"665 875 OFFCURVE",
"602 875 CURVE SMOOTH",
"521 875 OFFCURVE",
"436 802 OFFCURVE",
"436 642 CURVE SMOOTH",
"436 513 LINE",
"216 513 LINE",
"216 617 LINE SMOOTH",
"216 768 OFFCURVE",
"267 813 OFFCURVE",
"314 813 CURVE SMOOTH",
"363 813 OFFCURVE",
"386 783 OFFCURVE",
"386 783 CURVE",
"412 847 LINE",
"412 847 OFFCURVE",
"378 875 OFFCURVE",
"315 875 CURVE SMOOTH",
"234 875 OFFCURVE",
"149 802 OFFCURVE",
"149 642 CURVE SMOOTH",
"149 513 LINE",
"35 513 LINE",
"35 448 LINE",
"149 448 LINE",
"149 0 LINE"
);
},
{
closed = 1;
nodes = (
"791 0 LINE",
"791 860 LINE",
"723 860 LINE",
"723 0 LINE"
);
}
);
width = 851;
}
);
rightKerningGroup = d;
unicode = FB04;
},
{
glyphname = f_f_t;
lastChange = "2017-03-22 01:43:32 +0000";
layers = (
{
layerId = "A4E552E4-62BE-43BB-A58F-34F0EE3B77B8";
paths = (
{
closed = 1;
nodes = (
"1058 -15 OFFCURVE",
"1115 17 OFFCURVE",
"1115 17 CURVE",
"1071 160 LINE",
"1071 160 OFFCURVE",
"1050 144 OFFCURVE",
"1027 144 CURVE SMOOTH",
"999 144 OFFCURVE",
"987 167 OFFCURVE",
"987 215 CURVE SMOOTH",
"987 378 LINE",
"1095 378 LINE",
"1095 513 LINE",
"987 513 LINE",
"987 704 LINE",
"810 704 LINE",
"810 513 LINE",
"642 513 LINE",
"642 617 LINE SMOOTH",
"642 688 OFFCURVE",
"652 718 OFFCURVE",
"697 718 CURVE SMOOTH",
"726 718 OFFCURVE",
"750 704 OFFCURVE",
"750 704 CURVE",
"812 829 LINE",
"812 829 OFFCURVE",
"756 875 OFFCURVE",
"666 875 CURVE SMOOTH",
"538 875 OFFCURVE",
"466 772 OFFCURVE",
"465 622 CURVE SMOOTH",
"465 513 LINE",
"287 513 LINE",
"287 617 LINE SMOOTH",
"287 688 OFFCURVE",
"297 718 OFFCURVE",
"342 718 CURVE SMOOTH",
"371 718 OFFCURVE",
"395 704 OFFCURVE",
"395 704 CURVE",
"457 829 LINE",
"457 829 OFFCURVE",
"401 875 OFFCURVE",
"311 875 CURVE SMOOTH",
"183 875 OFFCURVE",
"111 772 OFFCURVE",
"110 622 CURVE SMOOTH",
"110 513 LINE",
"36 513 LINE",
"36 378 LINE",
"110 378 LINE",
"110 0 LINE",
"287 0 LINE",
"287 378 LINE",
"465 378 LINE",
"465 0 LINE",
"642 0 LINE",
"642 378 LINE",
"810 378 LINE",
"810 181 LINE SMOOTH",
"810 90 OFFCURVE",
"844 -15 OFFCURVE",
"985 -15 CURVE SMOOTH"
);
}
);
width = 1115;
},
{
layerId = "7B60DD57-6012-4D0F-BD38-A72A4BAC0E9D";
paths = (
{
closed = 1;
nodes = (
"907 -15 OFFCURVE",
"945 13 OFFCURVE",
"945 13 CURVE",
"921 74 LINE",
"921 74 OFFCURVE",
"895 49 OFFCURVE",
"859 49 CURVE SMOOTH",
"831 49 OFFCURVE",
"803 73 OFFCURVE",
"803 144 CURVE SMOOTH",
"803 448 LINE",
"941 448 LINE",
"941 513 LINE",
"803 513 LINE",
"803 704 LINE",
"735 704 LINE",
"735 513 LINE",
"503 513 LINE",
"503 617 LINE SMOOTH",
"503 768 OFFCURVE",
"554 813 OFFCURVE",
"601 813 CURVE SMOOTH",
"650 813 OFFCURVE",
"673 783 OFFCURVE",
"673 783 CURVE",
"699 847 LINE",
"699 847 OFFCURVE",
"665 875 OFFCURVE",
"602 875 CURVE SMOOTH",
"521 875 OFFCURVE",
"436 802 OFFCURVE",
"436 642 CURVE SMOOTH",
"436 513 LINE",
"216 513 LINE",
"216 617 LINE SMOOTH",
"216 768 OFFCURVE",
"267 813 OFFCURVE",
"314 813 CURVE SMOOTH",
"363 813 OFFCURVE",
"386 783 OFFCURVE",
"386 783 CURVE",
"412 847 LINE",
"412 847 OFFCURVE",
"378 875 OFFCURVE",
"315 875 CURVE SMOOTH",
"234 875 OFFCURVE",
"149 802 OFFCURVE",
"149 642 CURVE SMOOTH",
"149 513 LINE",
"35 513 LINE",
"35 448 LINE",
"149 448 LINE",
"149 0 LINE",
"216 0 LINE",
"216 448 LINE",
"436 448 LINE",
"436 0 LINE",
"503 0 LINE",
"503 448 LINE",
"735 448 LINE",
"735 161 LINE SMOOTH",
"735 70 OFFCURVE",
"749 -15 OFFCURVE",
"850 -15 CURVE SMOOTH"
);
}
);
width = 945;
}
);
rightKerningGroup = d;
},
{
glyphname = f_j;
lastChange = "2017-03-22 01:44:24 +0000";
layers = (
{
layerId = "A4E552E4-62BE-43BB-A58F-34F0EE3B77B8";
paths = (
{
closed = 1;
nodes = (
"568 -275 OFFCURVE",
"612 -170 OFFCURVE",
"612 -79 CURVE SMOOTH",
"612 513 LINE",
"267 513 LINE",
"267 617 LINE SMOOTH",
"267 688 OFFCURVE",
"283 719 OFFCURVE",
"353 719 CURVE SMOOTH",
"406 719 OFFCURVE",
"470 667 OFFCURVE",
"470 667 CURVE",
"532 792 LINE",
"532 792 OFFCURVE",
"439 875 OFFCURVE",
"301 875 CURVE SMOOTH",
"161 875 OFFCURVE",
"91 772 OFFCURVE",
"90 622 CURVE SMOOTH",
"90 513 LINE",
"16 513 LINE",
"16 378 LINE",
"90 378 LINE",
"90 0 LINE",
"267 0 LINE",
"267 378 LINE",
"435 378 LINE",
"435 -45 LINE SMOOTH",
"435 -93 OFFCURVE",
"416 -115 OFFCURVE",
"386 -115 CURVE SMOOTH",
"364 -115 OFFCURVE",
"341 -100 OFFCURVE",
"341 -100 CURVE",
"286 -243 LINE",
"311 -254 OFFCURVE",
"343 -275 OFFCURVE",
"427 -275 CURVE SMOOTH"
);
}
);
width = 672;
},
{
layerId = "7B60DD57-6012-4D0F-BD38-A72A4BAC0E9D";
paths = (
{
closed = 1;
nodes = (
"432 -275 OFFCURVE",
"460 -180 OFFCURVE",
"460 -79 CURVE SMOOTH",
"460 513 LINE",
"197 513 LINE",
"197 617 LINE SMOOTH",
"197 768 OFFCURVE",
"258 813 OFFCURVE",
"305 813 CURVE SMOOTH",
"384 813 OFFCURVE",
"407 753 OFFCURVE",
"407 753 CURVE",
"433 817 LINE",
"433 817 OFFCURVE",
"399 875 OFFCURVE",
"306 875 CURVE SMOOTH",
"225 875 OFFCURVE",
"130 802 OFFCURVE",
"130 642 CURVE SMOOTH",
"130 513 LINE",
"16 513 LINE",
"16 448 LINE",
"130 448 LINE",
"130 0 LINE",
"197 0 LINE",
"197 448 LINE",
"392 448 LINE",
"392 -45 LINE SMOOTH",
"392 -143 OFFCURVE",
"383 -213 OFFCURVE",
"323 -213 CURVE SMOOTH",
"281 -213 OFFCURVE",
"264 -190 OFFCURVE",
"264 -190 CURVE",
"234 -253 LINE",
"237 -255 OFFCURVE",
"271 -275 OFFCURVE",
"325 -275 CURVE SMOOTH"
);
}
);
width = 520;
}
);
rightKerningGroup = d;
},
{
glyphname = f_t;
lastChange = "2017-03-22 01:44:55 +0000";
layers = (
{
layerId = "A4E552E4-62BE-43BB-A58F-34F0EE3B77B8";
paths = (
{
closed = 1;
nodes = (
"683 -15 OFFCURVE",
"740 17 OFFCURVE",
"740 17 CURVE",
"696 160 LINE",
"696 160 OFFCURVE",
"675 144 OFFCURVE",
"652 144 CURVE SMOOTH",
"624 144 OFFCURVE",
"612 167 OFFCURVE",
"612 215 CURVE SMOOTH",
"612 378 LINE",
"720 378 LINE",
"720 513 LINE",
"612 513 LINE",
"612 704 LINE",
"435 704 LINE",
"435 513 LINE",
"267 513 LINE",
"267 617 LINE SMOOTH",
"267 688 OFFCURVE",
"277 718 OFFCURVE",
"322 718 CURVE SMOOTH",
"351 718 OFFCURVE",
"375 704 OFFCURVE",
"375 704 CURVE",
"437 829 LINE",
"437 829 OFFCURVE",
"381 875 OFFCURVE",
"291 875 CURVE SMOOTH",
"163 875 OFFCURVE",
"91 772 OFFCURVE",
"90 622 CURVE SMOOTH",
"90 513 LINE",
"16 513 LINE",
"16 378 LINE",
"90 378 LINE",
"90 0 LINE",
"267 0 LINE",
"267 378 LINE",
"435 378 LINE",
"435 181 LINE SMOOTH",
"435 90 OFFCURVE",
"469 -15 OFFCURVE",
"610 -15 CURVE SMOOTH"
);
}
);
width = 740;
},
{
layerId = "7B60DD57-6012-4D0F-BD38-A72A4BAC0E9D";
paths = (
{
closed = 1;
nodes = (
"571 -15 OFFCURVE",
"609 13 OFFCURVE",
"609 13 CURVE",
"585 74 LINE",
"585 74 OFFCURVE",
"559 49 OFFCURVE",
"523 49 CURVE SMOOTH",
"495 49 OFFCURVE",
"467 73 OFFCURVE",
"467 144 CURVE SMOOTH",
"467 448 LINE",
"605 448 LINE",
"605 513 LINE",
"467 513 LINE",
"467 704 LINE",
"399 704 LINE",
"399 513 LINE",
"197 513 LINE",
"197 617 LINE SMOOTH",
"197 768 OFFCURVE",
"248 813 OFFCURVE",
"295 813 CURVE SMOOTH",
"344 813 OFFCURVE",
"367 783 OFFCURVE",
"367 783 CURVE",
"393 847 LINE",
"393 847 OFFCURVE",
"359 875 OFFCURVE",
"296 875 CURVE SMOOTH",
"215 875 OFFCURVE",
"130 802 OFFCURVE",
"130 642 CURVE SMOOTH",
"130 513 LINE",
"16 513 LINE",
"16 448 LINE",
"130 448 LINE",
"130 0 LINE",
"197 0 LINE",
"197 448 LINE",
"399 448 LINE",
"399 161 LINE SMOOTH",
"399 70 OFFCURVE",
"413 -15 OFFCURVE",
"514 -15 CURVE SMOOTH"
);
}
);
width = 609;
}
);
rightKerningGroup = d;
},
{
glyphname = fi;
lastChange = "2017-03-22 01:48:42 +0000";
layers = (
{
layerId = "A4E552E4-62BE-43BB-A58F-34F0EE3B77B8";
paths = (
{
closed = 1;
nodes = (
"267 0 LINE",
"267 378 LINE",
"435 378 LINE",
"435 0 LINE",
"612 0 LINE",
"612 513 LINE",
"267 513 LINE",
"267 617 LINE SMOOTH",
"267 688 OFFCURVE",
"283 719 OFFCURVE",
"353 719 CURVE SMOOTH",
"406 719 OFFCURVE",
"470 667 OFFCURVE",
"470 667 CURVE",
"532 792 LINE",
"532 792 OFFCURVE",
"439 875 OFFCURVE",
"301 875 CURVE SMOOTH",
"161 875 OFFCURVE",
"91 772 OFFCURVE",
"90 622 CURVE SMOOTH",
"90 513 LINE",
"16 513 LINE",
"16 378 LINE",
"90 378 LINE",
"90 0 LINE"
);
}
);
width = 672;
},
{
layerId = "7B60DD57-6012-4D0F-BD38-A72A4BAC0E9D";
paths = (
{
closed = 1;
nodes = (
"197 0 LINE",
"197 448 LINE",
"375 448 LINE",
"375 0 LINE",
"442 0 LINE",
"442 513 LINE",
"197 513 LINE",
"197 617 LINE SMOOTH",
"197 768 OFFCURVE",
"258 813 OFFCURVE",
"305 813 CURVE SMOOTH",
"374 813 OFFCURVE",
"397 763 OFFCURVE",
"397 763 CURVE",
"423 827 LINE",
"423 827 OFFCURVE",
"389 875 OFFCURVE",
"306 875 CURVE SMOOTH",
"225 875 OFFCURVE",
"130 802 OFFCURVE",
"130 642 CURVE SMOOTH",
"130 513 LINE",
"16 513 LINE",
"16 448 LINE",
"130 448 LINE",
"130 0 LINE"
);
}
);
width = 502;
}
);
rightKerningGroup = d;
unicode = FB01;
},
{
glyphname = fl;
lastChange = "2017-03-22 01:46:22 +0000";
layers = (
{
layerId = "A4E552E4-62BE-43BB-A58F-34F0EE3B77B8";
paths = (
{
closed = 1;
nodes = (
"267 0 LINE",
"267 378 LINE",
"385 378 LINE",
"385 513 LINE",
"267 513 LINE",
"267 617 LINE SMOOTH",
"267 688 OFFCURVE",
"277 718 OFFCURVE",
"322 718 CURVE SMOOTH",
"351 718 OFFCURVE",
"375 704 OFFCURVE",
"375 704 CURVE",
"416 843 LINE",
"392 857 OFFCURVE",
"349 875 OFFCURVE",
"291 875 CURVE SMOOTH",
"163 875 OFFCURVE",
"91 772 OFFCURVE",
"90 622 CURVE SMOOTH",
"90 513 LINE",
"16 513 LINE",
"16 378 LINE",
"90 378 LINE",
"90 0 LINE"
);
},
{
closed = 1;
nodes = (
"612 0 LINE",
"612 860 LINE",
"435 860 LINE",
"435 0 LINE"
);
}
);
width = 672;
},
{
layerId = "7B60DD57-6012-4D0F-BD38-A72A4BAC0E9D";
paths = (
{
closed = 1;
nodes = (
"187 0 LINE",
"187 448 LINE",
"338 448 LINE",
"338 513 LINE",
"187 513 LINE",
"187 617 LINE SMOOTH",
"187 768 OFFCURVE",
"238 813 OFFCURVE",
"285 813 CURVE SMOOTH",
"310 813 OFFCURVE",
"329 805 OFFCURVE",
"341 797 CURVE",
"355 862 LINE",
"339 869 OFFCURVE",
"316 875 OFFCURVE",
"286 875 CURVE SMOOTH",
"205 875 OFFCURVE",
"120 802 OFFCURVE",
"120 642 CURVE SMOOTH",
"120 513 LINE",
"6 513 LINE",
"6 448 LINE",
"120 448 LINE",
"120 0 LINE"
);
},
{
closed = 1;
nodes = (
"454 0 LINE",
"454 860 LINE",
"386 860 LINE",
"386 0 LINE"
);
}
);
width = 524;
}
);
rightKerningGroup = d;
unicode = FB02;
},
{
glyphname = ordfeminine;
lastChange = "2017-03-22 01:47:27 +0000";
layers = (
{
layerId = "A4E552E4-62BE-43BB-A58F-34F0EE3B77B8";
paths = (
{
closed = 1;
nodes = (
"70 579 OFFCURVE",
"135 504 OFFCURVE",
"228 504 CURVE SMOOTH",
"272 504 OFFCURVE",
"309 523 OFFCURVE",
"333 549 CURVE",
"334 549 LINE",
"334 513 LINE",
"442 513 LINE",
"442 830 LINE",
"333 830 LINE",
"333 800 LINE",
"306 825 OFFCURVE",
"271 840 OFFCURVE",
"228 840 CURVE SMOOTH",
"135 840 OFFCURVE",
"70 764 OFFCURVE",
"70 671 CURVE SMOOTH"
);
},
{
closed = 1;
nodes = (
"187 715 OFFCURVE",
"220 746 OFFCURVE",
"261 746 CURVE SMOOTH",
"302 746 OFFCURVE",
"335 715 OFFCURVE",
"335 671 CURVE SMOOTH",
"335 628 OFFCURVE",
"304 597 OFFCURVE",
"261 597 CURVE SMOOTH",
"217 597 OFFCURVE",
"187 628 OFFCURVE",
"187 671 CURVE SMOOTH"
);
}
);
width = 512;
},
{
layerId = "7B60DD57-6012-4D0F-BD38-A72A4BAC0E9D";
paths = (
{
closed = 1;
nodes = (
"70 565 OFFCURVE",
"144 503 OFFCURVE",
"230 503 CURVE SMOOTH",
"294 503 OFFCURVE",
"335 542 OFFCURVE",
"339 559 CURVE",
"340 559 LINE",
"340 513 LINE",
"396 513 LINE",
"396 830 LINE",
"339 831 LINE",
"339 786 LINE",
"333 806 OFFCURVE",
"293 840 OFFCURVE",
"230 840 CURVE SMOOTH",
"144 840 OFFCURVE",
"70 778 OFFCURVE",
"70 672 CURVE SMOOTH"
);
},
{
closed = 1;
nodes = (
"125 744 OFFCURVE",
"176 787 OFFCURVE",
"230 787 CURVE SMOOTH",
"290 787 OFFCURVE",
"341 739 OFFCURVE",
"341 672 CURVE SMOOTH",
"341 605 OFFCURVE",
"292 556 OFFCURVE",
"230 556 CURVE SMOOTH",
"176 556 OFFCURVE",
"125 599 OFFCURVE",
"125 672 CURVE SMOOTH"
);
}
);
width = 466;
}
);
rightKerningGroup = d;
unicode = 00AA;
},
{
glyphname = ordmasculine;
lastChange = "2017-03-22 01:47:56 +0000";
layers = (
{
layerId = "A4E552E4-62BE-43BB-A58F-34F0EE3B77B8";
paths = (
{
closed = 1;
nodes = (
"70 574 OFFCURVE",
"147 504 OFFCURVE",
"262 504 CURVE SMOOTH",
"371 504 OFFCURVE",
"451 574 OFFCURVE",
"451 671 CURVE SMOOTH",
"451 770 OFFCURVE",
"367 840 OFFCURVE",
"262 840 CURVE SMOOTH",
"155 840 OFFCURVE",
"70 770 OFFCURVE",
"70 671 CURVE SMOOTH"
);
},
{
closed = 1;
nodes = (
"187 715 OFFCURVE",
"220 746 OFFCURVE",
"261 746 CURVE SMOOTH",
"302 746 OFFCURVE",
"335 715 OFFCURVE",
"335 671 CURVE SMOOTH",
"335 628 OFFCURVE",
"304 597 OFFCURVE",
"261 597 CURVE SMOOTH",
"216 597 OFFCURVE",
"187 628 OFFCURVE",
"187 671 CURVE SMOOTH"
);
}
);
width = 521;
},
{
layerId = "7B60DD57-6012-4D0F-BD38-A72A4BAC0E9D";
paths = (
{
closed = 1;
nodes = (
"70 574 OFFCURVE",
"147 504 OFFCURVE",
"242 504 CURVE SMOOTH",
"331 504 OFFCURVE",
"411 574 OFFCURVE",
"411 671 CURVE SMOOTH",
"411 770 OFFCURVE",
"327 840 OFFCURVE",
"242 840 CURVE SMOOTH",
"155 840 OFFCURVE",
"70 770 OFFCURVE",
"70 671 CURVE SMOOTH"
);
},
{
closed = 1;
nodes = (
"129 741 OFFCURVE",
"185 791 OFFCURVE",
"241 791 CURVE SMOOTH",
"297 791 OFFCURVE",
"353 741 OFFCURVE",
"353 671 CURVE SMOOTH",
"353 602 OFFCURVE",
"300 552 OFFCURVE",
"241 552 CURVE SMOOTH",
"179 552 OFFCURVE",
"129 602 OFFCURVE",
"129 671 CURVE SMOOTH"
);
}
);
width = 481;
}
);
rightKerningGroup = d;
unicode = 00BA;
},
{
glyphname = zero;
lastChange = "2017-03-21 21:30:11 +0000";
layers = (
{
layerId = "A4E552E4-62BE-43BB-A58F-34F0EE3B77B8";
paths = (
{
closed = 1;
nodes = (
"28 106 OFFCURVE",
"187 -15 OFFCURVE",
"364 -15 CURVE SMOOTH",
"541 -15 OFFCURVE",
"699 106 OFFCURVE",
"699 412 CURVE SMOOTH",
"699 698 OFFCURVE",
"541 840 OFFCURVE",
"364 840 CURVE SMOOTH",
"187 840 OFFCURVE",
"28 698 OFFCURVE",
"28 412 CURVE SMOOTH"
);
},
{
closed = 1;
nodes = (
"218 578 OFFCURVE",
"273 675 OFFCURVE",
"364 675 CURVE SMOOTH",
"454 675 OFFCURVE",
"509 579 OFFCURVE",
"509 412 CURVE SMOOTH",
"509 234 OFFCURVE",
"454 150 OFFCURVE",
"364 150 CURVE SMOOTH",
"273 150 OFFCURVE",
"218 234 OFFCURVE",
"218 412 CURVE SMOOTH"
);
}
);
width = 727;
},
{
layerId = "7B60DD57-6012-4D0F-BD38-A72A4BAC0E9D";
paths = (
{
closed = 1;
nodes = (
"35 116 OFFCURVE",
"188 -15 OFFCURVE",
"335 -15 CURVE SMOOTH",
"482 -15 OFFCURVE",
"634 116 OFFCURVE",
"634 412 CURVE SMOOTH",
"634 708 OFFCURVE",
"482 840 OFFCURVE",
"335 840 CURVE SMOOTH",
"188 840 OFFCURVE",
"35 708 OFFCURVE",
"35 412 CURVE SMOOTH"
);
},
{
closed = 1;
nodes = (
"109 654 OFFCURVE",
"214 778 OFFCURVE",
"335 778 CURVE SMOOTH",
"455 778 OFFCURVE",
"560 655 OFFCURVE",
"560 412 CURVE SMOOTH",
"560 170 OFFCURVE",
"455 47 OFFCURVE",
"335 47 CURVE SMOOTH",
"214 47 OFFCURVE",
"109 170 OFFCURVE",
"109 412 CURVE SMOOTH"
);
}
);
width = 669;
}
);
unicode = 0030;
},
{
glyphname = one;
lastChange = "2017-03-21 21:29:32 +0000";
layers = (
{
layerId = "A4E552E4-62BE-43BB-A58F-34F0EE3B77B8";
paths = (
{
closed = 1;
nodes = (
"156 0 LINE",
"344 0 LINE",
"344 825 LINE",
"255 825 LINE",
"20 693 LINE",
"20 507 LINE",
"156 575 LINE"
);
}
);
width = 404;
},
{
layerId = "7B60DD57-6012-4D0F-BD38-A72A4BAC0E9D";
paths = (
{
closed = 1;
nodes = (
"186 0 LINE",
"254 0 LINE",
"254 825 LINE",
"205 825 LINE",
"20 713 LINE",
"20 637 LINE",
"186 735 LINE"
);
}
);
width = 314;
}
);
unicode = 0031;
},
{
glyphname = two;
lastChange = "2017-03-21 23:10:40 +0000";
layers = (
{
layerId = "A4E552E4-62BE-43BB-A58F-34F0EE3B77B8";
paths = (
{
closed = 1;
nodes = (
"435 681 OFFCURVE",
"471 643 OFFCURVE",
"464 560 CURVE SMOOTH",
"452 418 OFFCURVE",
"56 149 OFFCURVE",
"56 149 CURVE",
"56 0 LINE",
"649 0 LINE",
"649 165 LINE",
"348 165 LINE SMOOTH",
"348 165 OFFCURVE",
"644 350 OFFCURVE",
"654 560 CURVE SMOOTH",
"659 664 OFFCURVE",
"607 840 OFFCURVE",
"354 840 CURVE SMOOTH",
"100 840 OFFCURVE",
"30 600 OFFCURVE",
"30 600 CURVE",
"187 524 LINE",
"187 524 OFFCURVE",
"244 681 OFFCURVE",
"354 681 CURVE SMOOTH"
);
}
);
width = 709;
},
{
layerId = "7B60DD57-6012-4D0F-BD38-A72A4BAC0E9D";
paths = (
{
closed = 1;
nodes = (
"455 778 OFFCURVE",
"504 695 OFFCURVE",
"474 553 CURVE SMOOTH",
"431 353 OFFCURVE",
"36 57 OFFCURVE",
"36 57 CURVE",
"36 0 LINE",
"549 0 LINE",
"549 68 LINE",
"158 68 LINE SMOOTH",
"158 68 OFFCURVE",
"497 331 OFFCURVE",
"549 558 CURVE SMOOTH",
"575 671 OFFCURVE",
"526 840 OFFCURVE",
"304 840 CURVE SMOOTH",
"100 840 OFFCURVE",
"40 650 OFFCURVE",
"40 650 CURVE",
"108 624 LINE",
"108 624 OFFCURVE",
"154 778 OFFCURVE",
"304 778 CURVE SMOOTH"
);
}
);
width = 609;
}
);
unicode = 0032;
},
{
glyphname = three;
lastChange = "2017-03-21 21:29:49 +0000";
layers = (
{
layerId = "A4E552E4-62BE-43BB-A58F-34F0EE3B77B8";
paths = (
{
closed = 1;
nodes = (
"205 587 LINE",
"205 587 OFFCURVE",
"224 689 OFFCURVE",
"328 689 CURVE SMOOTH",
"381 689 OFFCURVE",
"430 651 OFFCURVE",
"430 598 CURVE SMOOTH",
"430 538 OFFCURVE",
"381 494 OFFCURVE",
"331 494 CURVE SMOOTH",
"290 494 LINE",
"290 371 LINE",
"290 371 OFFCURVE",
"306 371 OFFCURVE",
"326 371 CURVE SMOOTH",
"392 371 OFFCURVE",
"445 327 OFFCURVE",
"445 256 CURVE SMOOTH",
"445 186 OFFCURVE",
"395 147 OFFCURVE",
"326 147 CURVE SMOOTH",
"202 147 OFFCURVE",
"191 273 OFFCURVE",
"191 273 CURVE",
"17 188 LINE",
"17 188 OFFCURVE",
"73 -15 OFFCURVE",
"327 -15 CURVE SMOOTH",
"504 -15 OFFCURVE",
"633 98 OFFCURVE",
"633 256 CURVE SMOOTH",
"633 353 OFFCURVE",
"572 428 OFFCURVE",
"508 445 CURVE",
"563 460 OFFCURVE",
"601 532 OFFCURVE",
"601 600 CURVE SMOOTH",
"601 740 OFFCURVE",
"487 840 OFFCURVE",
"330 840 CURVE SMOOTH",
"99 840 OFFCURVE",
"57 659 OFFCURVE",
"57 659 CURVE"
);
}
);
width = 665;
},
{
layerId = "7B60DD57-6012-4D0F-BD38-A72A4BAC0E9D";
paths = (
{
closed = 1;
nodes = (
"120 681 LINE",
"120 681 OFFCURVE",
"142 778 OFFCURVE",
"282 778 CURVE SMOOTH",
"399 778 OFFCURVE",
"452 706 OFFCURVE",
"452 618 CURVE SMOOTH",
"452 513 OFFCURVE",
"375 466 OFFCURVE",
"285 466 CURVE SMOOTH",
"244 466 LINE",
"244 399 LINE",
"244 399 OFFCURVE",
"280 399 OFFCURVE",
"280 399 CURVE SMOOTH",
"406 399 OFFCURVE",
"472 353 OFFCURVE",
"472 236 CURVE SMOOTH",
"472 132 OFFCURVE",
"407 47 OFFCURVE",
"280 47 CURVE SMOOTH",
"124 47 OFFCURVE",
"84 177 OFFCURVE",
"84 177 CURVE",
"17 144 LINE",
"17 144 OFFCURVE",
"71 -15 OFFCURVE",
"281 -15 CURVE SMOOTH",
"442 -15 OFFCURVE",
"548 95 OFFCURVE",
"548 236 CURVE SMOOTH",
"548 360 OFFCURVE",
"467 427 OFFCURVE",
"392 436 CURVE",
"466 450 OFFCURVE",
"525 521 OFFCURVE",
"525 620 CURVE SMOOTH",
"525 739 OFFCURVE",
"442 840 OFFCURVE",
"284 840 CURVE SMOOTH",
"104 840 OFFCURVE",
"51 709 OFFCURVE",
"51 709 CURVE"
);
}
);
width = 580;
}
);
unicode = 0033;
},
{
glyphname = four;
lastChange = "2017-03-21 21:31:23 +0000";
layers = (
{
layerId = "A4E552E4-62BE-43BB-A58F-34F0EE3B77B8";
paths = (
{
closed = 1;
nodes = (
"341 825 LINE",
"11 309 LINE",
"11 174 LINE",
"351 174 LINE",
"351 0 LINE",
"527 0 LINE",
"527 174 LINE",
"623 174 LINE",
"623 339 LINE",
"527 339 LINE",
"527 825 LINE"
);
},
{
closed = 1;
nodes = (
"202 339 LINE",
"349 574 LINE",
"351 574 LINE",
"351 339 LINE"
);
}
);
width = 636;
},
{
layerId = "7B60DD57-6012-4D0F-BD38-A72A4BAC0E9D";
paths = (
{
closed = 1;
nodes = (
"378 825 LINE",
"11 234 LINE",
"11 174 LINE",
"361 174 LINE",
"361 0 LINE",
"427 0 LINE",
"427 174 LINE",
"523 174 LINE",
"523 242 LINE",
"427 242 LINE",
"427 825 LINE"
);
},
{
closed = 1;
nodes = (
"96 242 LINE",
"361 668 LINE",
"361 668 LINE",
"361 242 LINE"
);
}
);
width = 536;
}
);
unicode = 0034;
},
{
glyphname = five;
lastChange = "2017-03-21 23:10:20 +0000";
layers = (
{
layerId = "A4E552E4-62BE-43BB-A58F-34F0EE3B77B8";
paths = (
{
closed = 1;
nodes = (
"25 164 LINE",
"56 80 OFFCURVE",
"143 -15 OFFCURVE",
"319 -15 CURVE SMOOTH",
"496 -15 OFFCURVE",
"625 102 OFFCURVE",
"625 286 CURVE SMOOTH",
"625 470 OFFCURVE",
"483 552 OFFCURVE",
"357 546 CURVE SMOOTH",
"284 543 OFFCURVE",
"264 519 OFFCURVE",
"264 519 CURVE",
"287 660 LINE",
"572 660 LINE",
"572 825 LINE",
"131 825 LINE",
"62 381 LINE",
"233 359 LINE",
"233 359 OFFCURVE",
"260 400 OFFCURVE",
"318 402 CURVE SMOOTH",
"409 405 OFFCURVE",
"441 357 OFFCURVE",
"441 276 CURVE SMOOTH",
"441 201 OFFCURVE",
"387 142 OFFCURVE",
"319 142 CURVE SMOOTH",
"233 142 OFFCURVE",
"189 185 OFFCURVE",
"174 236 CURVE"
);
}
);
width = 660;
},
{
layerId = "7B60DD57-6012-4D0F-BD38-A72A4BAC0E9D";
paths = (
{
closed = 1;
nodes = (
"40 131 LINE",
"52 99 OFFCURVE",
"117 -15 OFFCURVE",
"284 -15 CURVE SMOOTH",
"460 -15 OFFCURVE",
"564 105 OFFCURVE",
"563 273 CURVE SMOOTH",
"562 443 OFFCURVE",
"439 529 OFFCURVE",
"311 526 CURVE SMOOTH",
"200 523 OFFCURVE",
"163 457 OFFCURVE",
"163 457 CURVE",
"212 757 LINE",
"527 757 LINE",
"527 825 LINE",
"151 825 LINE",
"75 360 LINE",
"145 352 LINE",
"145 352 OFFCURVE",
"172 461 OFFCURVE",
"300 462 CURVE SMOOTH",
"401 463 OFFCURVE",
"487 393 OFFCURVE",
"489 271 CURVE SMOOTH",
"491 137 OFFCURVE",
"408 47 OFFCURVE",
"284 47 CURVE SMOOTH",
"164 47 OFFCURVE",
"114 143 OFFCURVE",
"107 167 CURVE"
);
}
);
width = 603;
}
);
unicode = 0035;
},
{
glyphname = six;
lastChange = "2017-03-21 21:30:42 +0000";
layers = (
{
layerId = "A4E552E4-62BE-43BB-A58F-34F0EE3B77B8";
paths = (
{
closed = 1;
nodes = (
"519 -15 OFFCURVE",
"648 103 OFFCURVE",
"648 267 CURVE SMOOTH",
"648 434 OFFCURVE",
"512 552 OFFCURVE",
"363 552 CURVE SMOOTH",
"332 552 OFFCURVE",
"282 537 OFFCURVE",
"253 527 CURVE SMOOTH",
"126 485 OFFCURVE",
"35 370 OFFCURVE",
"35 267 CURVE SMOOTH",
"35 103 OFFCURVE",
"159 -15 OFFCURVE",
"343 -15 CURVE SMOOTH"
);
},
{
closed = 1;
nodes = (
"267 143 OFFCURVE",
"216 194 OFFCURVE",
"216 268 CURVE SMOOTH",
"216 342 OFFCURVE",
"272 394 OFFCURVE",
"344 394 CURVE SMOOTH",
"414 394 OFFCURVE",
"471 342 OFFCURVE",
"471 268 CURVE SMOOTH",
"471 194 OFFCURVE",
"417 143 OFFCURVE",
"344 143 CURVE SMOOTH"
);
},
{
closed = 1;
nodes = (
"66 486 OFFCURVE",
"35 383 OFFCURVE",
"35 267 CURVE",
"291 521 LINE",
"312 535 OFFCURVE",
"336 553 OFFCURVE",
"347 566 CURVE",
"569 825 LINE",
"341 825 LINE",
"153 594 LINE"
);
}
);
width = 689;
},
{
layerId = "7B60DD57-6012-4D0F-BD38-A72A4BAC0E9D";
paths = (
{
closed = 1;
nodes = (
"487 -15 OFFCURVE",
"589 93 OFFCURVE",
"589 257 CURVE SMOOTH",
"589 424 OFFCURVE",
"474 532 OFFCURVE",
"333 532 CURVE SMOOTH",
"242 532 OFFCURVE",
"201 504 OFFCURVE",
"174 487 CURVE SMOOTH",
"115 449 OFFCURVE",
"35 370 OFFCURVE",
"35 267 CURVE SMOOTH",
"35 103 OFFCURVE",
"135 -15 OFFCURVE",
"313 -15 CURVE SMOOTH"
);
},
{
closed = 1;
nodes = (
"180 47 OFFCURVE",
"109 143 OFFCURVE",
"109 267 CURVE SMOOTH",
"109 391 OFFCURVE",
"192 470 OFFCURVE",
"324 470 CURVE SMOOTH",
"446 470 OFFCURVE",
"515 381 OFFCURVE",
"515 257 CURVE SMOOTH",
"515 133 OFFCURVE",
"442 47 OFFCURVE",
"313 47 CURVE SMOOTH"
);
},
{
closed = 1;
nodes = (
"123 513 OFFCURVE",
"35 413 OFFCURVE",
"35 267 CURVE",
"191 498 LINE",
"195 501 OFFCURVE",
"234 553 OFFCURVE",
"245 566 CURVE",
"457 825 LINE",
"371 825 LINE",
"183 594 LINE"
);
}
);
width = 630;
}
);
unicode = 0036;
},
{
glyphname = seven;
lastChange = "2017-03-21 21:29:41 +0000";
layers = (
{
layerId = "A4E552E4-62BE-43BB-A58F-34F0EE3B77B8";
paths = (
{
closed = 1;
nodes = (
"70 660 LINE",
"425 660 LINE",
"45 0 LINE",
"267 0 LINE",
"665 697 LINE",
"665 825 LINE",
"70 825 LINE"
);
}
);
width = 678;
},
{
layerId = "7B60DD57-6012-4D0F-BD38-A72A4BAC0E9D";
paths = (
{
closed = 1;
nodes = (
"60 757 LINE",
"485 757 LINE",
"45 0 LINE",
"125 0 LINE",
"565 765 LINE",
"565 825 LINE",
"60 825 LINE"
);
}
);
width = 578;
}
);
unicode = 0037;
},
{
glyphname = eight;
lastChange = "2017-03-21 21:30:58 +0000";
layers = (
{
layerId = "A4E552E4-62BE-43BB-A58F-34F0EE3B77B8";
paths = (
{
closed = 1;
nodes = (
"613 769 OFFCURVE",
"484 840 OFFCURVE",
"343 840 CURVE SMOOTH",
"207 840 OFFCURVE",
"70 769 OFFCURVE",
"70 622 CURVE SMOOTH",
"70 531 OFFCURVE",
"116 481 OFFCURVE",
"179 445 CURVE",
"96 407 OFFCURVE",
"35 345 OFFCURVE",
"35 232 CURVE SMOOTH",
"35 78 OFFCURVE",
"184 -15 OFFCURVE",
"344 -15 CURVE SMOOTH",
"499 -15 OFFCURVE",
"652 78 OFFCURVE",
"652 232 CURVE SMOOTH",
"652 345 OFFCURVE",
"590 407 OFFCURVE",
"507 445 CURVE",
"569 481 OFFCURVE",
"613 531 OFFCURVE",
"613 622 CURVE SMOOTH"
);
},
{
closed = 1;
nodes = (
"239 314 OFFCURVE",
"284 357 OFFCURVE",
"343 357 CURVE SMOOTH",
"401 357 OFFCURVE",
"448 314 OFFCURVE",
"448 252 CURVE SMOOTH",
"448 191 OFFCURVE",
"403 147 OFFCURVE",
"343 147 CURVE SMOOTH",
"281 147 OFFCURVE",
"239 191 OFFCURVE",
"239 252 CURVE SMOOTH"
);
},
{
closed = 1;
nodes = (
"435 550 OFFCURVE",
"397 513 OFFCURVE",
"344 513 CURVE SMOOTH",
"293 513 OFFCURVE",
"251 550 OFFCURVE",
"251 605 CURVE SMOOTH",
"251 658 OFFCURVE",
"291 698 OFFCURVE",
"344 698 CURVE SMOOTH",
"398 698 OFFCURVE",
"435 658 OFFCURVE",
"435 605 CURVE SMOOTH"
);
}
);
width = 687;
},
{
layerId = "7B60DD57-6012-4D0F-BD38-A72A4BAC0E9D";
paths = (
{
closed = 1;
nodes = (
"553 773 OFFCURVE",
"454 840 OFFCURVE",
"313 840 CURVE SMOOTH",
"177 840 OFFCURVE",
"70 773 OFFCURVE",
"70 626 CURVE SMOOTH",
"70 535 OFFCURVE",
"126 471 OFFCURVE",
"189 445 CURVE",
"106 417 OFFCURVE",
"35 355 OFFCURVE",
"35 232 CURVE SMOOTH",
"35 88 OFFCURVE",
"144 -15 OFFCURVE",
"314 -15 CURVE SMOOTH",
"479 -15 OFFCURVE",
"592 88 OFFCURVE",
"592 232 CURVE SMOOTH",
"592 355 OFFCURVE",
"520 417 OFFCURVE",
"437 445 CURVE",
"499 471 OFFCURVE",
"553 535 OFFCURVE",
"553 626 CURVE SMOOTH"
);
},
{
closed = 1;
nodes = (
"109 343 OFFCURVE",
"184 414 OFFCURVE",
"313 414 CURVE SMOOTH",
"441 414 OFFCURVE",
"518 343 OFFCURVE",
"518 232 CURVE SMOOTH",
"518 123 OFFCURVE",
"443 47 OFFCURVE",
"313 47 CURVE SMOOTH",
"181 47 OFFCURVE",
"109 123 OFFCURVE",
"109 232 CURVE SMOOTH"
);
},
{
closed = 1;
nodes = (
"485 543 OFFCURVE",
"437 476 OFFCURVE",
"314 476 CURVE SMOOTH",
"193 476 OFFCURVE",
"141 543 OFFCURVE",
"141 623 CURVE SMOOTH",
"141 716 OFFCURVE",
"191 778 OFFCURVE",
"314 778 CURVE SMOOTH",
"438 778 OFFCURVE",
"485 716 OFFCURVE",
"485 623 CURVE SMOOTH"
);
}
);
width = 627;
}
);
unicode = 0038;
},
{
glyphname = fraction;
lastChange = "2017-03-22 01:49:39 +0000";
layers = (
{
layerId = "A4E552E4-62BE-43BB-A58F-34F0EE3B77B8";
paths = (
{
closed = 1;
nodes = (
"-167 0 LINE",
"-49 0 LINE",
"431 825 LINE",
"313 825 LINE"
);
}
);
width = 264;
},
{
layerId = "7B60DD57-6012-4D0F-BD38-A72A4BAC0E9D";
paths = (
{
closed = 1;
nodes = (
"-167 0 LINE",
"-109 0 LINE",
"371 825 LINE",
"313 825 LINE"
);
}
);
width = 204;
}
);
rightKerningGroup = d;
unicode = 2044;
},
{
glyphname = period;
lastChange = "2017-03-21 01:26:04 +0000";
layers = (
{
layerId = "A4E552E4-62BE-43BB-A58F-34F0EE3B77B8";
paths = (
{
closed = 1;
nodes = (
"238 -15 OFFCURVE",
"289 36 OFFCURVE",
"289 99 CURVE SMOOTH",
"289 163 OFFCURVE",
"238 214 OFFCURVE",
"174 214 CURVE SMOOTH",
"111 214 OFFCURVE",
"60 163 OFFCURVE",
"60 99 CURVE SMOOTH",
"60 36 OFFCURVE",
"111 -15 OFFCURVE",
"174 -15 CURVE SMOOTH"
);
}
);
width = 349;
},
{
layerId = "7B60DD57-6012-4D0F-BD38-A72A4BAC0E9D";
paths = (
{
closed = 1;
nodes = (
"213 -15 OFFCURVE",
"244 16 OFFCURVE",
"244 55 CURVE SMOOTH",
"244 95 OFFCURVE",
"213 126 OFFCURVE",
"174 126 CURVE SMOOTH",
"135 126 OFFCURVE",
"104 95 OFFCURVE",
"104 55 CURVE SMOOTH",
"104 16 OFFCURVE",
"135 -15 OFFCURVE",
"174 -15 CURVE SMOOTH"
);
}
);
width = 349;
}
);
leftKerningGroup = comma;
rightKerningGroup = d;
unicode = 002E;
},
{
glyphname = comma;
lastChange = "2017-03-22 02:20:11 +0000";
layers = (
{
layerId = "A4E552E4-62BE-43BB-A58F-34F0EE3B77B8";
paths = (
{
closed = 1;
nodes = (
"111 214 OFFCURVE",
"60 163 OFFCURVE",
"60 99 CURVE SMOOTH",
"60 46 OFFCURVE",
"97 6 OFFCURVE",
"146 -6 CURVE",
"130 -89 OFFCURVE",
"70 -146 OFFCURVE",
"70 -146 CURVE",
"121 -188 LINE",
"203 -120 OFFCURVE",
"289 -22 OFFCURVE",
"289 99 CURVE SMOOTH",
"289 163 OFFCURVE",
"238 214 OFFCURVE",
"174 214 CURVE SMOOTH"
);
}
);
width = 349;
},
{
layerId = "7B60DD57-6012-4D0F-BD38-A72A4BAC0E9D";
paths = (
{
closed = 1;
nodes = (
"98 131 OFFCURVE",
"66 99 OFFCURVE",
"66 53 CURVE SMOOTH",
"66 14 OFFCURVE",
"106 -27 OFFCURVE",
"157 -11 CURVE",
"145 -72 OFFCURVE",
"70 -111 OFFCURVE",
"70 -111 CURVE",
"107 -142 LINE",
"166 -106 OFFCURVE",
"225 -40 OFFCURVE",
"225 48 CURVE SMOOTH",
"225 94 OFFCURVE",
"189 131 OFFCURVE",
"143 131 CURVE SMOOTH"
);
}
);
width = 287;
}
);
leftKerningGroup = comma;
rightKerningGroup = d;
unicode = 002C;
},
{
glyphname = exclam;
lastChange = "2017-03-21 02:07:20 +0000";
layers = (
{
layerId = "A4E552E4-62BE-43BB-A58F-34F0EE3B77B8";
paths = (
{
closed = 1;
nodes = (
"239 270 LINE",
"263 860 LINE",
"86 860 LINE",
"110 270 LINE"
);
},
{
closed = 1;
nodes = (
"238 -15 OFFCURVE",
"289 36 OFFCURVE",
"289 99 CURVE SMOOTH",
"289 163 OFFCURVE",
"238 214 OFFCURVE",
"174 214 CURVE SMOOTH",
"111 214 OFFCURVE",
"60 163 OFFCURVE",
"60 99 CURVE SMOOTH",
"60 36 OFFCURVE",
"111 -15 OFFCURVE",
"174 -15 CURVE SMOOTH"
);
}
);
width = 349;
},
{
layerId = "7B60DD57-6012-4D0F-BD38-A72A4BAC0E9D";
paths = (
{
closed = 1;
nodes = (
"199 210 LINE",
"213 860 LINE",
"136 860 LINE",
"150 210 LINE"
);
},
{
closed = 1;
nodes = (
"213 -15 OFFCURVE",
"244 16 OFFCURVE",
"244 55 CURVE SMOOTH",
"244 95 OFFCURVE",
"213 126 OFFCURVE",
"174 126 CURVE SMOOTH",
"135 126 OFFCURVE",
"104 95 OFFCURVE",
"104 55 CURVE SMOOTH",
"104 16 OFFCURVE",
"135 -15 OFFCURVE",
"174 -15 CURVE SMOOTH"
);
}
);
width = 349;
}
);
rightKerningGroup = d;
unicode = 0021;
},
{
glyphname = question;
lastChange = "2017-03-22 02:13:21 +0000";
layers = (
{
layerId = "A4E552E4-62BE-43BB-A58F-34F0EE3B77B8";
paths = (
{
closed = 1;
nodes = (
"369 270 LINE",
"369 326 LINE SMOOTH",
"369 359 OFFCURVE",
"370 387 OFFCURVE",
"404 402 CURVE SMOOTH",
"500 443 OFFCURVE",
"573 503 OFFCURVE",
"573 601 CURVE SMOOTH",
"573 742 OFFCURVE",
"439 840 OFFCURVE",
"289 840 CURVE SMOOTH",
"66 840 OFFCURVE",
"23 656 OFFCURVE",
"23 651 CURVE",
"170 580 LINE",
"181 623 OFFCURVE",
"216 683 OFFCURVE",
"288 683 CURVE SMOOTH",
"333 683 OFFCURVE",
"369 649 OFFCURVE",
"369 601 CURVE SMOOTH",
"369 530 OFFCURVE",
"312 527 OFFCURVE",
"251 488 CURVE SMOOTH",
"206 459 OFFCURVE",
"204 423 OFFCURVE",
"204 379 CURVE SMOOTH",
"204 270 LINE"
);
},
{
closed = 1;
nodes = (
"350 -15 OFFCURVE",
"401 36 OFFCURVE",
"401 99 CURVE SMOOTH",
"401 163 OFFCURVE",
"350 214 OFFCURVE",
"286 214 CURVE SMOOTH",
"223 214 OFFCURVE",
"172 163 OFFCURVE",
"172 99 CURVE SMOOTH",
"172 36 OFFCURVE",
"223 -15 OFFCURVE",
"286 -15 CURVE SMOOTH"
);
}
);
width = 596;
},
{
layerId = "7B60DD57-6012-4D0F-BD38-A72A4BAC0E9D";
paths = (
{
closed = 1;
nodes = (
"285 210 LINE",
"285 326 LINE SMOOTH",
"285 349 OFFCURVE",
"278 392 OFFCURVE",
"310 412 CURVE SMOOTH",
"407 473 OFFCURVE",
"489 533 OFFCURVE",
"489 641 CURVE SMOOTH",
"489 762 OFFCURVE",
"405 840 OFFCURVE",
"255 840 CURVE SMOOTH",
"82 840 OFFCURVE",
"23 686 OFFCURVE",
"23 681 CURVE",
"86 660 LINE",
"94 703 OFFCURVE",
"152 780 OFFCURVE",
"254 780 CURVE SMOOTH",
"350 780 OFFCURVE",
"416 733 OFFCURVE",
"416 641 CURVE SMOOTH",
"416 550 OFFCURVE",
"328 502 OFFCURVE",
"267 463 CURVE SMOOTH",
"222 434 OFFCURVE",
"220 393 OFFCURVE",
"220 349 CURVE SMOOTH",
"220 210 LINE"
);
},
{
closed = 1;
nodes = (
"291 -15 OFFCURVE",
"322 16 OFFCURVE",
"322 55 CURVE SMOOTH",
"322 95 OFFCURVE",
"291 126 OFFCURVE",
"252 126 CURVE SMOOTH",
"213 126 OFFCURVE",
"182 95 OFFCURVE",
"182 55 CURVE SMOOTH",
"182 16 OFFCURVE",
"213 -15 OFFCURVE",
"252 -15 CURVE SMOOTH"
);
}
);
width = 512;
}
);
rightKerningGroup = d;
unicode = 003F;
},
{
glyphname = bullet;
lastChange = "2017-03-22 02:21:12 +0000";
layers = (
{
layerId = "A4E552E4-62BE-43BB-A58F-34F0EE3B77B8";
paths = (
{
closed = 1;
nodes = (
"249 553 OFFCURVE",
"162 465 OFFCURVE",
"162 356 CURVE SMOOTH",
"162 248 OFFCURVE",
"249 161 OFFCURVE",
"357 161 CURVE SMOOTH",
"466 161 OFFCURVE",
"554 248 OFFCURVE",
"554 356 CURVE SMOOTH",
"554 465 OFFCURVE",
"466 553 OFFCURVE",
"357 553 CURVE SMOOTH"
);
}
);
width = 716;
},
{
layerId = "7B60DD57-6012-4D0F-BD38-A72A4BAC0E9D";
paths = (
{
closed = 1;
nodes = (
"211 469 OFFCURVE",
"162 419 OFFCURVE",
"162 356 CURVE SMOOTH",
"162 294 OFFCURVE",
"211 245 OFFCURVE",
"273 245 CURVE SMOOTH",
"336 245 OFFCURVE",
"386 294 OFFCURVE",
"386 356 CURVE SMOOTH",
"386 419 OFFCURVE",
"336 469 OFFCURVE",
"273 469 CURVE SMOOTH"
);
}
);
width = 548;
}
);
rightKerningGroup = d;
unicode = 2022;
},
{
glyphname = asterisk;
lastChange = "2017-03-25 14:13:33 +0000";
layers = (
{
layerId = "A4E552E4-62BE-43BB-A58F-34F0EE3B77B8";
paths = (
{
closed = 1;
nodes = (
"287 860 LINE",
"201 860 LINE",
"200 743 LINE",
"86 778 LINE",
"60 698 LINE",
"174 657 LINE",
"108 558 LINE",
"174 513 LINE",
"244 604 LINE",
"314 513 LINE",
"380 558 LINE",
"314 657 LINE",
"428 698 LINE",
"402 778 LINE",
"288 743 LINE"
);
}
);
width = 488;
},
{
layerId = "7B60DD57-6012-4D0F-BD38-A72A4BAC0E9D";
paths = (
{
closed = 1;
nodes = (
"269 850 LINE",
"219 850 LINE",
"218 719 LINE",
"94 761 LINE",
"79 714 LINE",
"203 669 LINE",
"127 563 LINE",
"165 537 LINE",
"244 639 LINE",
"318 536 LINE",
"356 562 LINE",
"285 669 LINE",
"409 714 LINE",
"394 761 LINE",
"270 719 LINE"
);
}
);
width = 488;
}
);
rightKerningGroup = d;
unicode = 002A;
},
{
glyphname = numbersign;
lastChange = "2017-03-22 02:25:33 +0000";
layers = (
{
layerId = "A4E552E4-62BE-43BB-A58F-34F0EE3B77B8";
paths = (
{
closed = 1;
nodes = (
"110 0 LINE",
"238 0 LINE",
"456 825 LINE",
"328 825 LINE"
);
},
{
closed = 1;
nodes = (
"343 0 LINE",
"471 0 LINE",
"689 825 LINE",
"561 825 LINE"
);
},
{
closed = 1;
nodes = (
"133 486 LINE",
"695 486 LINE",
"732 609 LINE",
"170 609 LINE"
);
},
{
closed = 1;
nodes = (
"68 217 LINE",
"630 217 LINE",
"667 340 LINE",
"105 340 LINE"
);
}
);
width = 833;
},
{
layerId = "7B60DD57-6012-4D0F-BD38-A72A4BAC0E9D";
paths = (
{
closed = 1;
nodes = (
"125 0 LINE",
"178 0 LINE",
"396 825 LINE",
"343 825 LINE"
);
},
{
closed = 1;
nodes = (
"343 0 LINE",
"396 0 LINE",
"614 825 LINE",
"561 825 LINE"
);
},
{
closed = 1;
nodes = (
"133 526 LINE",
"655 526 LINE",
"672 579 LINE",
"150 579 LINE"
);
},
{
closed = 1;
nodes = (
"68 247 LINE",
"590 247 LINE",
"607 300 LINE",
"85 300 LINE"
);
}
);
width = 773;
}
);
rightKerningGroup = d;
unicode = 0023;
},
{
glyphname = slash;
lastChange = "2017-03-22 01:53:06 +0000";
layers = (
{
layerId = "A4E552E4-62BE-43BB-A58F-34F0EE3B77B8";
paths = (
{
closed = 1;
nodes = (
"23 -120 LINE",
"176 -120 LINE",
"588 860 LINE",
"435 860 LINE"
);
}
);
width = 611;
},
{
layerId = "7B60DD57-6012-4D0F-BD38-A72A4BAC0E9D";
paths = (
{
closed = 1;
nodes = (
"23 -120 LINE",
"96 -120 LINE",
"508 860 LINE",
"435 860 LINE"
);
}
);
width = 531;
}
);
rightKerningGroup = d;
unicode = 002F;
},
{
glyphname = backslash;
lastChange = "2017-03-22 02:22:05 +0000";
layers = (
{
layerId = "A4E552E4-62BE-43BB-A58F-34F0EE3B77B8";
paths = (
{
closed = 1;
nodes = (
"176 860 LINE",
"23 860 LINE",
"435 0 LINE",
"588 0 LINE"
);
}
);
width = 611;
},
{
layerId = "7B60DD57-6012-4D0F-BD38-A72A4BAC0E9D";
paths = (
{
closed = 1;
nodes = (
"96 860 LINE",
"23 860 LINE",
"435 0 LINE",
"508 0 LINE"
);
}
);
width = 531;
}
);
rightKerningGroup = d;
unicode = 005C;
},
{
glyphname = parenleft;
lastChange = "2017-03-22 02:34:15 +0000";
layers = (
{
layerId = "A4E552E4-62BE-43BB-A58F-34F0EE3B77B8";
paths = (
{
closed = 1;
nodes = (
"345 -211 LINE",
"345 -211 OFFCURVE",
"218 -41 OFFCURVE",
"218 297 CURVE SMOOTH",
"218 655 OFFCURVE",
"359 826 OFFCURVE",
"359 826 CURVE",
"244 875 LINE",
"244 875 OFFCURVE",
"55 653 OFFCURVE",
"55 297 CURVE SMOOTH",
"55 -49 OFFCURVE",
"230 -260 OFFCURVE",
"230 -260 CURVE"
);
}
);
width = 403;
},
{
layerId = "7B60DD57-6012-4D0F-BD38-A72A4BAC0E9D";
paths = (
{
closed = 1;
nodes = (
"265 -219 LINE",
"265 -219 OFFCURVE",
"118 -41 OFFCURVE",
"118 297 CURVE SMOOTH",
"118 655 OFFCURVE",
"269 841 OFFCURVE",
"269 841 CURVE",
"210 871 LINE",
"210 871 OFFCURVE",
"55 653 OFFCURVE",
"55 297 CURVE SMOOTH",
"55 -49 OFFCURVE",
"210 -250 OFFCURVE",
"210 -250 CURVE"
);
}
);
width = 313;
}
);
rightKerningGroup = d;
unicode = 0028;
},
{
glyphname = braceleft;
lastChange = "2017-03-22 02:29:09 +0000";
layers = (
{
layerId = "A4E552E4-62BE-43BB-A58F-34F0EE3B77B8";
paths = (
{
closed = 1;
nodes = (
"60 253 LINE",
"103 253 OFFCURVE",
"130 234 OFFCURVE",
"130 188 CURVE SMOOTH",
"130 -79 LINE SMOOTH",
"130 -162 OFFCURVE",
"161 -260 OFFCURVE",
"289 -260 CURVE SMOOTH",
"386 -260 LINE",
"386 -132 LINE",
"346 -132 LINE SMOOTH",
"311 -132 OFFCURVE",
"283 -104 OFFCURVE",
"283 -64 CURVE SMOOTH",
"283 193 LINE SMOOTH",
"283 249 OFFCURVE",
"256 282 OFFCURVE",
"222 300 CURVE",
"256 318 OFFCURVE",
"283 350 OFFCURVE",
"283 407 CURVE SMOOTH",
"283 664 LINE SMOOTH",
"283 704 OFFCURVE",
"311 732 OFFCURVE",
"346 732 CURVE SMOOTH",
"386 732 LINE",
"386 860 LINE",
"289 860 LINE SMOOTH",
"161 860 OFFCURVE",
"130 762 OFFCURVE",
"130 679 CURVE SMOOTH",
"130 412 LINE SMOOTH",
"130 366 OFFCURVE",
"103 347 OFFCURVE",
"60 347 CURVE"
);
}
);
width = 446;
},
{
layerId = "7B60DD57-6012-4D0F-BD38-A72A4BAC0E9D";
paths = (
{
closed = 1;
nodes = (
"60 263 LINE",
"123 263 OFFCURVE",
"140 234 OFFCURVE",
"140 188 CURVE SMOOTH",
"140 -79 LINE SMOOTH",
"140 -162 OFFCURVE",
"131 -260 OFFCURVE",
"259 -260 CURVE SMOOTH",
"316 -260 LINE",
"316 -192 LINE",
"296 -192 LINE SMOOTH",
"221 -192 OFFCURVE",
"213 -164 OFFCURVE",
"213 -124 CURVE SMOOTH",
"213 193 LINE SMOOTH",
"213 249 OFFCURVE",
"187 291 OFFCURVE",
"143 299 CURVE",
"187 307 OFFCURVE",
"213 350 OFFCURVE",
"213 407 CURVE SMOOTH",
"213 724 LINE SMOOTH",
"213 764 OFFCURVE",
"221 792 OFFCURVE",
"296 792 CURVE SMOOTH",
"316 792 LINE",
"316 860 LINE",
"259 860 LINE SMOOTH",
"131 860 OFFCURVE",
"140 762 OFFCURVE",
"140 679 CURVE SMOOTH",
"140 412 LINE SMOOTH",
"140 366 OFFCURVE",
"123 337 OFFCURVE",
"60 337 CURVE"
);
}
);
width = 376;
}
);
rightKerningGroup = d;
unicode = 007B;
},
{
glyphname = bracketleft;
lastChange = "2017-03-22 02:32:41 +0000";
layers = (
{
layerId = "A4E552E4-62BE-43BB-A58F-34F0EE3B77B8";
paths = (
{
closed = 1;
nodes = (
"382 -260 LINE",
"382 -143 LINE",
"213 -143 LINE",
"213 743 LINE",
"382 743 LINE",
"382 860 LINE",
"60 860 LINE",
"60 -260 LINE"
);
}
);
width = 442;
},
{
layerId = "7B60DD57-6012-4D0F-BD38-A72A4BAC0E9D";
paths = (
{
closed = 1;
nodes = (
"302 -260 LINE",
"302 -193 LINE",
"133 -193 LINE",
"133 793 LINE",
"302 793 LINE",
"302 860 LINE",
"60 860 LINE",
"60 -260 LINE"
);
}
);
width = 362;
}
);
rightKerningGroup = d;
unicode = 005B;
},
{
glyphname = hyphen;
lastChange = "2017-03-22 02:35:12 +0000";
layers = (
{
layerId = "A4E552E4-62BE-43BB-A58F-34F0EE3B77B8";
paths = (
{
closed = 1;
nodes = (
"382 213 LINE",
"382 366 LINE",
"60 366 LINE",
"60 213 LINE"
);
}
);
width = 442;
},
{
layerId = "7B60DD57-6012-4D0F-BD38-A72A4BAC0E9D";
paths = (
{
closed = 1;
nodes = (
"382 263 LINE",
"382 316 LINE",
"60 316 LINE",
"60 263 LINE"
);
}
);
width = 442;
}
);
rightKerningGroup = d;
unicode = 002D;
},
{
glyphname = endash;
lastChange = "2017-03-25 14:09:09 +0000";
layers = (
{
layerId = "A4E552E4-62BE-43BB-A58F-34F0EE3B77B8";
paths = (
{
closed = 1;
nodes = (
"540 213 LINE",
"540 366 LINE",
"0 366 LINE",
"0 213 LINE"
);
}
);
width = 540;
},
{
layerId = "7B60DD57-6012-4D0F-BD38-A72A4BAC0E9D";
paths = (
{
closed = 1;
nodes = (
"490 263 LINE",
"490 316 LINE",
"0 316 LINE",
"0 263 LINE"
);
}
);
width = 490;
}
);
rightKerningGroup = d;
unicode = 2013;
},
{
glyphname = emdash;
lastChange = "2017-03-25 14:09:18 +0000";
layers = (
{
layerId = "A4E552E4-62BE-43BB-A58F-34F0EE3B77B8";
paths = (
{
closed = 1;
nodes = (
"1080 213 LINE",
"1080 366 LINE",
"0 366 LINE",
"0 213 LINE"
);
}
);
width = 1080;
},
{
layerId = "7B60DD57-6012-4D0F-BD38-A72A4BAC0E9D";
paths = (
{
closed = 1;
nodes = (
"940 263 LINE",
"940 316 LINE",
"0 316 LINE",
"0 263 LINE"
);
}
);
width = 940;
}
);
rightKerningGroup = d;
unicode = 2014;
},
{
glyphname = underscore;
lastChange = "2017-03-22 02:26:02 +0000";
layers = (
{
layerId = "A4E552E4-62BE-43BB-A58F-34F0EE3B77B8";
paths = (
{
closed = 1;
nodes = (
"513 -100 LINE",
"513 -15 LINE",
"0 -15 LINE",
"0 -100 LINE"
);
}
);
width = 513;
},
{
layerId = "7B60DD57-6012-4D0F-BD38-A72A4BAC0E9D";
paths = (
{
closed = 1;
nodes = (
"453 -80 LINE",
"453 -35 LINE",
"0 -35 LINE",
"0 -80 LINE"
);
}
);
width = 453;
}
);
rightKerningGroup = d;
unicode = 005F;
},
{
glyphname = quotesinglbase;
lastChange = "2017-03-25 14:12:41 +0000";
layers = (
{
layerId = "A4E552E4-62BE-43BB-A58F-34F0EE3B77B8";
paths = (
{
closed = 1;
nodes = (
"106 214 OFFCURVE",
"60 167 OFFCURVE",
"60 109 CURVE SMOOTH",
"60 62 OFFCURVE",
"94 26 OFFCURVE",
"138 15 CURVE",
"124 -61 OFFCURVE",
"69 -113 OFFCURVE",
"69 -113 CURVE",
"116 -150 LINE",
"189 -89 OFFCURVE",
"268 0 OFFCURVE",
"268 109 CURVE SMOOTH",
"268 167 OFFCURVE",
"221 214 OFFCURVE",
"163 214 CURVE SMOOTH"
);
}
);
width = 291;
},
{
layerId = "7B60DD57-6012-4D0F-BD38-A72A4BAC0E9D";
paths = (
{
closed = 1;
nodes = (
"92 131 OFFCURVE",
"60 99 OFFCURVE",
"60 53 CURVE SMOOTH",
"60 14 OFFCURVE",
"100 -27 OFFCURVE",
"151 -11 CURVE",
"139 -72 OFFCURVE",
"64 -111 OFFCURVE",
"64 -111 CURVE",
"101 -142 LINE",
"160 -106 OFFCURVE",
"219 -40 OFFCURVE",
"219 48 CURVE SMOOTH",
"219 94 OFFCURVE",
"183 131 OFFCURVE",
"137 131 CURVE SMOOTH"
);
}
);
width = 242;
}
);
rightKerningGroup = d;
unicode = 201A;
},
{
glyphname = quotedblbase;
lastChange = "2017-03-30 15:38:45 +0000";
layers = (
{
layerId = "A4E552E4-62BE-43BB-A58F-34F0EE3B77B8";
paths = (
{
closed = 1;
nodes = (
"107 214 OFFCURVE",
"60 167 OFFCURVE",
"60 109 CURVE SMOOTH",
"60 62 OFFCURVE",
"94 26 OFFCURVE",
"139 15 CURVE",
"124 -61 OFFCURVE",
"69 -113 OFFCURVE",
"69 -113 CURVE",
"116 -150 LINE",
"190 -89 OFFCURVE",
"267 0 OFFCURVE",
"267 109 CURVE SMOOTH",
"267 167 OFFCURVE",
"222 214 OFFCURVE",
"164 214 CURVE SMOOTH"
);
},
{
closed = 1;
nodes = (
"360 214 OFFCURVE",
"314 167 OFFCURVE",
"314 109 CURVE SMOOTH",
"314 62 OFFCURVE",
"348 26 OFFCURVE",
"392 15 CURVE",
"378 -61 OFFCURVE",
"323 -113 OFFCURVE",
"323 -113 CURVE",
"370 -150 LINE",
"443 -89 OFFCURVE",
"522 0 OFFCURVE",
"522 109 CURVE SMOOTH",
"522 167 OFFCURVE",
"475 214 OFFCURVE",
"417 214 CURVE SMOOTH"
);
}
);
width = 545;
},
{
layerId = "7B60DD57-6012-4D0F-BD38-A72A4BAC0E9D";
paths = (
{
closed = 1;
nodes = (
"92 131 OFFCURVE",
"60 99 OFFCURVE",
"60 53 CURVE SMOOTH",
"60 14 OFFCURVE",
"100 -27 OFFCURVE",
"151 -11 CURVE",
"139 -72 OFFCURVE",
"64 -111 OFFCURVE",
"64 -111 CURVE",
"101 -142 LINE",
"160 -106 OFFCURVE",
"219 -40 OFFCURVE",
"219 48 CURVE SMOOTH",
"219 94 OFFCURVE",
"183 131 OFFCURVE",
"137 131 CURVE SMOOTH"
);
},
{
closed = 1;
nodes = (
"335 131 OFFCURVE",
"303 99 OFFCURVE",
"303 53 CURVE SMOOTH",
"303 14 OFFCURVE",
"343 -27 OFFCURVE",
"394 -11 CURVE",
"382 -72 OFFCURVE",
"307 -111 OFFCURVE",
"307 -111 CURVE",
"344 -142 LINE",
"403 -106 OFFCURVE",
"462 -40 OFFCURVE",
"462 48 CURVE SMOOTH",
"462 94 OFFCURVE",
"426 131 OFFCURVE",
"380 131 CURVE SMOOTH"
);
}
);
width = 485;
}
);
rightKerningGroup = d;
unicode = 201E;
},
{
glyphname = quotedblleft;
lastChange = "2017-05-25 18:24:50 +0000";
layers = (
{
layerId = "A4E552E4-62BE-43BB-A58F-34F0EE3B77B8";
paths = (
{
closed = 1;
nodes = (
"195 476 OFFCURVE",
"241 523 OFFCURVE",
"241 581 CURVE SMOOTH",
"241 628 OFFCURVE",
"207 664 OFFCURVE",
"163 675 CURVE",
"177 751 OFFCURVE",
"232 803 OFFCURVE",
"232 803 CURVE",
"185 840 LINE",
"112 779 OFFCURVE",
"33 690 OFFCURVE",
"33 581 CURVE SMOOTH",
"33 523 OFFCURVE",
"80 476 OFFCURVE",
"138 476 CURVE SMOOTH"
);
},
{
closed = 1;
nodes = (
"448 476 OFFCURVE",
"495 523 OFFCURVE",
"495 581 CURVE SMOOTH",
"495 628 OFFCURVE",
"461 664 OFFCURVE",
"416 675 CURVE",
"431 751 OFFCURVE",
"486 803 OFFCURVE",
"486 803 CURVE",
"439 840 LINE",
"365 779 OFFCURVE",
"288 690 OFFCURVE",
"288 581 CURVE SMOOTH",
"288 523 OFFCURVE",
"333 476 OFFCURVE",
"391 476 CURVE SMOOTH"
);
}
);
width = 545;
},
{
layerId = "7B60DD57-6012-4D0F-BD38-A72A4BAC0E9D";
paths = (
{
closed = 1;
nodes = (
"152 557 OFFCURVE",
"190 594 OFFCURVE",
"190 640 CURVE SMOOTH",
"190 689 OFFCURVE",
"131 721 OFFCURVE",
"89 689 CURVE",
"101 750 OFFCURVE",
"158 790 OFFCURVE",
"158 790 CURVE",
"125 821 LINE",
"78 785 OFFCURVE",
"23 714 OFFCURVE",
"23 640 CURVE SMOOTH",
"23 594 OFFCURVE",
"61 557 OFFCURVE",
"107 557 CURVE SMOOTH"
);
},
{
closed = 1;
nodes = (
"375 557 OFFCURVE",
"413 594 OFFCURVE",
"413 640 CURVE SMOOTH",
"413 689 OFFCURVE",
"354 721 OFFCURVE",
"312 689 CURVE",
"324 750 OFFCURVE",
"381 790 OFFCURVE",
"381 790 CURVE",
"348 821 LINE",
"301 785 OFFCURVE",
"246 714 OFFCURVE",
"246 640 CURVE SMOOTH",
"246 594 OFFCURVE",
"284 557 OFFCURVE",
"330 557 CURVE SMOOTH"
);
}
);
width = 473;
}
);
leftKerningGroup = quotesingle;
rightKerningGroup = quotesingle;
unicode = 201C;
},
{
glyphname = quotedblright;
lastChange = "2017-03-22 02:08:52 +0000";
layers = (
{
layerId = "A4E552E4-62BE-43BB-A58F-34F0EE3B77B8";
paths = (
{
closed = 1;
nodes = (
"350 840 OFFCURVE",
"304 793 OFFCURVE",
"304 735 CURVE SMOOTH",
"304 688 OFFCURVE",
"338 652 OFFCURVE",
"382 641 CURVE",
"368 565 OFFCURVE",
"313 513 OFFCURVE",
"313 513 CURVE",
"360 476 LINE",
"433 537 OFFCURVE",
"512 626 OFFCURVE",
"512 735 CURVE SMOOTH",
"512 793 OFFCURVE",
"465 840 OFFCURVE",
"407 840 CURVE SMOOTH"
);
},
{
closed = 1;
nodes = (
"97 840 OFFCURVE",
"50 793 OFFCURVE",
"50 735 CURVE SMOOTH",
"50 688 OFFCURVE",
"84 652 OFFCURVE",
"129 641 CURVE",
"114 565 OFFCURVE",
"59 513 OFFCURVE",
"59 513 CURVE",
"106 476 LINE",
"180 537 OFFCURVE",
"257 626 OFFCURVE",
"257 735 CURVE SMOOTH",
"257 793 OFFCURVE",
"212 840 OFFCURVE",
"154 840 CURVE SMOOTH"
);
}
);
width = 545;
},
{
layerId = "7B60DD57-6012-4D0F-BD38-A72A4BAC0E9D";
paths = (
{
closed = 1;
nodes = (
"311 809 OFFCURVE",
"273 772 OFFCURVE",
"273 726 CURVE SMOOTH",
"273 677 OFFCURVE",
"332 645 OFFCURVE",
"374 677 CURVE",
"362 616 OFFCURVE",
"305 576 OFFCURVE",
"305 576 CURVE",
"338 545 LINE",
"385 581 OFFCURVE",
"440 652 OFFCURVE",
"440 726 CURVE SMOOTH",
"440 772 OFFCURVE",
"402 809 OFFCURVE",
"356 809 CURVE SMOOTH"
);
},
{
closed = 1;
nodes = (
"88 809 OFFCURVE",
"50 772 OFFCURVE",
"50 726 CURVE SMOOTH",
"50 677 OFFCURVE",
"109 645 OFFCURVE",
"151 677 CURVE",
"139 616 OFFCURVE",
"82 576 OFFCURVE",
"82 576 CURVE",
"115 545 LINE",
"162 581 OFFCURVE",
"217 652 OFFCURVE",
"217 726 CURVE SMOOTH",
"217 772 OFFCURVE",
"179 809 OFFCURVE",
"133 809 CURVE SMOOTH"
);
}
);
width = 473;
}
);
leftKerningGroup = quotesingle;
rightKerningGroup = quotesingle;
unicode = 201D;
},
{
glyphname = quoteleft;
lastChange = "2017-05-25 18:24:49 +0000";
layers = (
{
layerId = "A4E552E4-62BE-43BB-A58F-34F0EE3B77B8";
paths = (
{
closed = 1;
nodes = (
"185 476 OFFCURVE",
"231 523 OFFCURVE",
"231 581 CURVE SMOOTH",
"231 628 OFFCURVE",
"197 664 OFFCURVE",
"153 675 CURVE",
"167 751 OFFCURVE",
"222 803 OFFCURVE",
"222 803 CURVE",
"175 840 LINE",
"102 779 OFFCURVE",
"23 690 OFFCURVE",
"23 581 CURVE SMOOTH",
"23 523 OFFCURVE",
"70 476 OFFCURVE",
"128 476 CURVE SMOOTH"
);
}
);
width = 291;
},
{
layerId = "7B60DD57-6012-4D0F-BD38-A72A4BAC0E9D";
paths = (
{
closed = 1;
nodes = (
"152 557 OFFCURVE",
"190 594 OFFCURVE",
"190 640 CURVE SMOOTH",
"190 689 OFFCURVE",
"131 721 OFFCURVE",
"89 689 CURVE",
"101 750 OFFCURVE",
"158 790 OFFCURVE",
"158 790 CURVE",
"125 821 LINE",
"78 785 OFFCURVE",
"23 714 OFFCURVE",
"23 640 CURVE SMOOTH",
"23 594 OFFCURVE",
"61 557 OFFCURVE",
"107 557 CURVE SMOOTH"
);
}
);
width = 220;
}
);
leftKerningGroup = quotesingle;
rightKerningGroup = quotesingle;
unicode = 2018;
},
{
glyphname = quoteright;
lastChange = "2017-03-22 02:09:43 +0000";
layers = (
{
layerId = "A4E552E4-62BE-43BB-A58F-34F0EE3B77B8";
paths = (
{
closed = 1;
nodes = (
"86 840 OFFCURVE",
"40 793 OFFCURVE",
"40 735 CURVE SMOOTH",
"40 688 OFFCURVE",
"74 652 OFFCURVE",
"118 641 CURVE",
"104 565 OFFCURVE",
"49 513 OFFCURVE",
"49 513 CURVE",
"96 476 LINE",
"169 537 OFFCURVE",
"248 626 OFFCURVE",
"248 735 CURVE SMOOTH",
"248 793 OFFCURVE",
"201 840 OFFCURVE",
"143 840 CURVE SMOOTH"
);
}
);
width = 291;
},
{
layerId = "7B60DD57-6012-4D0F-BD38-A72A4BAC0E9D";
paths = (
{
closed = 1;
nodes = (
"78 809 OFFCURVE",
"40 772 OFFCURVE",
"40 726 CURVE SMOOTH",
"40 677 OFFCURVE",
"99 645 OFFCURVE",
"141 677 CURVE",
"129 616 OFFCURVE",
"72 576 OFFCURVE",
"72 576 CURVE",
"105 545 LINE",
"152 581 OFFCURVE",
"207 652 OFFCURVE",
"207 726 CURVE SMOOTH",
"207 772 OFFCURVE",
"169 809 OFFCURVE",
"123 809 CURVE SMOOTH"
);
}
);
width = 247;
}
);
leftKerningGroup = quotesingle;
rightKerningGroup = quotesingle;
unicode = 2019;
},
{
glyphname = guillemetleft;
lastChange = "2017-03-25 14:11:19 +0000";
layers = (
{
layerId = "A4E552E4-62BE-43BB-A58F-34F0EE3B77B8";
paths = (
{
closed = 1;
nodes = (
"183 278 LINE",
"321 455 LINE",
"228 528 LINE",
"33 278 LINE",
"228 28 LINE",
"321 101 LINE"
);
},
{
closed = 1;
nodes = (
"433 278 LINE",
"571 455 LINE",
"478 528 LINE",
"283 278 LINE",
"478 28 LINE",
"571 101 LINE"
);
}
);
width = 625;
},
{
layerId = "7B60DD57-6012-4D0F-BD38-A72A4BAC0E9D";
paths = (
{
closed = 1;
nodes = (
"92 278 LINE",
"249 475 LINE",
"211 504 LINE",
"33 278 LINE",
"211 51 LINE",
"249 82 LINE"
);
},
{
closed = 1;
nodes = (
"324 278 LINE",
"481 475 LINE",
"443 504 LINE",
"265 278 LINE",
"443 51 LINE",
"481 82 LINE"
);
}
);
width = 535;
}
);
rightKerningGroup = d;
unicode = 00AB;
},
{
glyphname = guilsinglleft;
lastChange = "2017-03-25 14:11:48 +0000";
layers = (
{
layerId = "A4E552E4-62BE-43BB-A58F-34F0EE3B77B8";
paths = (
{
closed = 1;
nodes = (
"183 278 LINE",
"321 455 LINE",
"228 528 LINE",
"33 278 LINE",
"228 28 LINE",
"321 101 LINE"
);
}
);
width = 375;
},
{
layerId = "7B60DD57-6012-4D0F-BD38-A72A4BAC0E9D";
paths = (
{
closed = 1;
nodes = (
"92 278 LINE",
"249 475 LINE",
"211 504 LINE",
"33 278 LINE",
"211 51 LINE",
"249 82 LINE"
);
}
);
width = 303;
}
);
rightKerningGroup = d;
unicode = 2039;
},
{
glyphname = quotedbl;
lastChange = "2017-03-22 02:10:27 +0000";
layers = (
{
layerId = "A4E552E4-62BE-43BB-A58F-34F0EE3B77B8";
paths = (
{
closed = 1;
nodes = (
"100 840 OFFCURVE",
"60 804 OFFCURVE",
"60 765 CURVE SMOOTH",
"60 761 LINE SMOOTH",
"60 715 OFFCURVE",
"102 475 OFFCURVE",
"102 475 CURVE",
"169 475 LINE",
"169 475 OFFCURVE",
"231 715 OFFCURVE",
"231 761 CURVE SMOOTH",
"231 765 LINE SMOOTH",
"231 804 OFFCURVE",
"191 840 OFFCURVE",
"145 840 CURVE SMOOTH"
);
},
{
closed = 1;
nodes = (
"322 840 OFFCURVE",
"282 804 OFFCURVE",
"282 765 CURVE SMOOTH",
"282 761 LINE SMOOTH",
"282 715 OFFCURVE",
"324 475 OFFCURVE",
"324 475 CURVE",
"391 475 LINE",
"391 475 OFFCURVE",
"453 715 OFFCURVE",
"453 761 CURVE SMOOTH",
"453 765 LINE SMOOTH",
"453 804 OFFCURVE",
"413 840 OFFCURVE",
"367 840 CURVE SMOOTH"
);
}
);
width = 513;
},
{
layerId = "7B60DD57-6012-4D0F-BD38-A72A4BAC0E9D";
paths = (
{
closed = 1;
nodes = (
"78 810 OFFCURVE",
"60 785 OFFCURVE",
"60 757 CURVE SMOOTH",
"60 754 LINE SMOOTH",
"60 722 OFFCURVE",
"83 552 OFFCURVE",
"83 552 CURVE",
"123 552 LINE",
"123 552 OFFCURVE",
"160 722 OFFCURVE",
"160 754 CURVE SMOOTH",
"160 757 LINE SMOOTH",
"160 785 OFFCURVE",
"142 810 OFFCURVE",
"110 810 CURVE SMOOTH"
);
},
{
closed = 1;
nodes = (
"255 810 OFFCURVE",
"237 785 OFFCURVE",
"237 757 CURVE SMOOTH",
"237 754 LINE SMOOTH",
"237 722 OFFCURVE",
"260 552 OFFCURVE",
"260 552 CURVE",
"300 552 LINE",
"300 552 OFFCURVE",
"337 722 OFFCURVE",
"337 754 CURVE SMOOTH",
"337 757 LINE SMOOTH",
"337 785 OFFCURVE",
"319 810 OFFCURVE",
"287 810 CURVE SMOOTH"
);
}
);
width = 397;
}
);
rightKerningGroup = d;
unicode = 0022;
},
{
glyphname = quotesingle;
lastChange = "2017-03-22 02:10:38 +0000";
layers = (
{
layerId = "A4E552E4-62BE-43BB-A58F-34F0EE3B77B8";
paths = (
{
closed = 1;
nodes = (
"100 840 OFFCURVE",
"60 804 OFFCURVE",
"60 765 CURVE SMOOTH",
"60 761 LINE SMOOTH",
"60 715 OFFCURVE",
"102 475 OFFCURVE",
"102 475 CURVE",
"169 475 LINE",
"169 475 OFFCURVE",
"231 715 OFFCURVE",
"231 761 CURVE SMOOTH",
"231 765 LINE SMOOTH",
"231 804 OFFCURVE",
"191 840 OFFCURVE",
"145 840 CURVE SMOOTH"
);
}
);
width = 291;
},
{
layerId = "7B60DD57-6012-4D0F-BD38-A72A4BAC0E9D";
paths = (
{
closed = 1;
nodes = (
"78 810 OFFCURVE",
"60 785 OFFCURVE",
"60 757 CURVE SMOOTH",
"60 754 LINE SMOOTH",
"60 722 OFFCURVE",
"83 552 OFFCURVE",
"83 552 CURVE",
"123 552 LINE",
"123 552 OFFCURVE",
"160 722 OFFCURVE",
"160 754 CURVE SMOOTH",
"160 757 LINE SMOOTH",
"160 785 OFFCURVE",
"142 810 OFFCURVE",
"110 810 CURVE SMOOTH"
);
}
);
width = 220;
}
);
leftKerningGroup = quotesingle;
rightKerningGroup = quotesingle;
unicode = 0027;
},
{
glyphname = cent;
lastChange = "2017-03-25 14:16:13 +0000";
layers = (
{
components = (
{
name = c;
}
);
layerId = "A4E552E4-62BE-43BB-A58F-34F0EE3B77B8";
paths = (
{
closed = 1;
nodes = (
"249 494 LINE",
"356 494 LINE",
"356 636 LINE",
"249 636 LINE"
);
},
{
closed = 1;
nodes = (
"249 -129 LINE",
"356 -129 LINE",
"356 13 LINE",
"249 13 LINE"
);
}
);
width = 491;
},
{
components = (
{
name = c;
}
);
layerId = "7B60DD57-6012-4D0F-BD38-A72A4BAC0E9D";
paths = (
{
closed = 1;
nodes = (
"259 494 LINE",
"306 494 LINE",
"306 636 LINE",
"259 636 LINE"
);
},
{
closed = 1;
nodes = (
"259 -129 LINE",
"306 -129 LINE",
"306 13 LINE",
"259 13 LINE"
);
}
);
width = 491;
}
);
leftKerningGroup = c;
rightKerningGroup = c;
unicode = 00A2;
},
{
glyphname = dollar;
lastChange = "2017-03-25 14:17:21 +0000";
layers = (
{
components = (
{
name = S;
}
);
layerId = "A4E552E4-62BE-43BB-A58F-34F0EE3B77B8";
paths = (
{
closed = 1;
nodes = (
"281 817 LINE",
"388 817 LINE",
"388 959 LINE",
"281 959 LINE"
);
},
{
closed = 1;
nodes = (
"281 -129 LINE",
"388 -129 LINE",
"388 13 LINE",
"281 13 LINE"
);
}
);
width = 672;
},
{
components = (
{
name = S;
}
);
layerId = "7B60DD57-6012-4D0F-BD38-A72A4BAC0E9D";
paths = (
{
closed = 1;
nodes = (
"281 817 LINE",
"328 817 LINE",
"328 959 LINE",
"281 959 LINE"
);
},
{
closed = 1;
nodes = (
"281 -129 LINE",
"328 -129 LINE",
"328 13 LINE",
"281 13 LINE"
);
}
);
width = 582;
}
);
leftKerningGroup = S;
rightKerningGroup = d;
unicode = 0024;
},
{
glyphname = euro;
lastChange = "2017-03-25 14:22:10 +0000";
layers = (
{
components = (
{
alignment = -1;
name = C.ss01;
transform = "{1, 0, 0, 1, 33, 0}";
}
);
layerId = "A4E552E4-62BE-43BB-A58F-34F0EE3B77B8";
paths = (
{
closed = 1;
nodes = (
"7 441 LINE",
"629 441 LINE",
"629 549 LINE",
"7 549 LINE"
);
},
{
closed = 1;
nodes = (
"7 274 LINE",
"629 274 LINE",
"629 382 LINE",
"7 382 LINE"
);
}
);
width = 797;
},
{
components = (
{
alignment = -1;
name = C.ss01;
transform = "{1, 0, 0, 1, 33, 0}";
}
);
layerId = "7B60DD57-6012-4D0F-BD38-A72A4BAC0E9D";
paths = (
{
closed = 1;
nodes = (
"7 461 LINE",
"629 461 LINE",
"629 529 LINE",
"7 529 LINE"
);
},
{
closed = 1;
nodes = (
"7 294 LINE",
"629 294 LINE",
"629 362 LINE",
"7 362 LINE"
);
}
);
width = 767;
}
);
rightKerningGroup = d;
unicode = 20AC;
},
{
glyphname = sterling;
lastChange = "2017-03-25 14:34:11 +0000";
layers = (
{
layerId = "A4E552E4-62BE-43BB-A58F-34F0EE3B77B8";
paths = (
{
closed = 1;
nodes = (
"55 289 LINE",
"205 289 LINE",
"212 272 OFFCURVE",
"217 255 OFFCURVE",
"217 236 CURVE SMOOTH",
"217 213 OFFCURVE",
"214 197 OFFCURVE",
"201 178 CURVE",
"111 178 OFFCURVE",
"55 54 OFFCURVE",
"55 0 CURVE",
"170 0 LINE",
"170 0 OFFCURVE",
"176 43 OFFCURVE",
"217 43 CURVE SMOOTH",
"311 43 OFFCURVE",
"404 -15 OFFCURVE",
"528 -15 CURVE SMOOTH",
"688 -15 OFFCURVE",
"711 133 OFFCURVE",
"711 133 CURVE",
"574 201 LINE",
"574 201 OFFCURVE",
"564 129 OFFCURVE",
"507 129 CURVE SMOOTH",
"433 129 OFFCURVE",
"366 162 OFFCURVE",
"350 162 CURVE SMOOTH",
"350 162 OFFCURVE",
"378 196 OFFCURVE",
"378 243 CURVE SMOOTH",
"378 260 OFFCURVE",
"377 275 OFFCURVE",
"375 289 CURVE",
"512 289 LINE",
"512 387 LINE",
"339 387 LINE",
"317 436 OFFCURVE",
"291 496 OFFCURVE",
"291 578 CURVE SMOOTH",
"291 654 OFFCURVE",
"324 689 OFFCURVE",
"386 689 CURVE SMOOTH",
"483 689 OFFCURVE",
"502 574 OFFCURVE",
"502 574 CURVE",
"660 651 LINE",
"660 651 OFFCURVE",
"620 841 OFFCURVE",
"386 841 CURVE SMOOTH",
"201 841 OFFCURVE",
"105 724 OFFCURVE",
"105 578 CURVE SMOOTH",
"105 503 OFFCURVE",
"129 431 OFFCURVE",
"157 387 CURVE",
"55 387 LINE"
);
}
);
width = 749;
},
{
layerId = "7B60DD57-6012-4D0F-BD38-A72A4BAC0E9D";
paths = (
{
closed = 1;
nodes = (
"55 306 LINE",
"187 306 LINE",
"194 292 OFFCURVE",
"208 239 OFFCURVE",
"208 220 CURVE SMOOTH",
"208 197 OFFCURVE",
"201 156 OFFCURVE",
"191 148 CURVE",
"111 148 OFFCURVE",
"55 64 OFFCURVE",
"55 0 CURVE",
"120 0 LINE",
"120 0 OFFCURVE",
"136 86 OFFCURVE",
"207 86 CURVE SMOOTH",
"301 86 OFFCURVE",
"374 -15 OFFCURVE",
"498 -15 CURVE SMOOTH",
"627 -15 OFFCURVE",
"661 113 OFFCURVE",
"661 113 CURVE",
"604 141 LINE",
"604 141 OFFCURVE",
"594 48 OFFCURVE",
"497 48 CURVE SMOOTH",
"423 48 OFFCURVE",
"342 128 OFFCURVE",
"265 143 CURVE SMOOTH",
"265 143 OFFCURVE",
"280 180 OFFCURVE",
"281 217 CURVE SMOOTH",
"282 247 OFFCURVE",
"270 297 OFFCURVE",
"266 306 CURVE",
"492 306 LINE",
"492 367 LINE",
"240 367 LINE",
"225 397 OFFCURVE",
"181 496 OFFCURVE",
"181 578 CURVE SMOOTH",
"181 694 OFFCURVE",
"244 774 OFFCURVE",
"366 774 CURVE SMOOTH",
"513 774 OFFCURVE",
"552 649 OFFCURVE",
"552 649 CURVE",
"620 681 LINE",
"620 681 OFFCURVE",
"560 841 OFFCURVE",
"366 841 CURVE SMOOTH",
"181 841 OFFCURVE",
"105 714 OFFCURVE",
"105 578 CURVE SMOOTH",
"105 503 OFFCURVE",
"148 396 OFFCURVE",
"162 367 CURVE",
"55 367 LINE"
);
}
);
width = 699;
}
);
rightKerningGroup = d;
unicode = 00A3;
},
{
glyphname = yen;
lastChange = "2017-03-25 14:23:39 +0000";
layers = (
{
components = (
{
name = Y;
}
);
layerId = "A4E552E4-62BE-43BB-A58F-34F0EE3B77B8";
paths = (
{
closed = 1;
nodes = (
"62 302 LINE",
"675 302 LINE",
"675 435 LINE",
"62 435 LINE"
);
},
{
closed = 1;
nodes = (
"62 110 LINE",
"675 110 LINE",
"675 243 LINE",
"62 243 LINE"
);
}
);
width = 736;
},
{
components = (
{
name = Y;
}
);
layerId = "7B60DD57-6012-4D0F-BD38-A72A4BAC0E9D";
paths = (
{
closed = 1;
nodes = (
"26 312 LINE",
"568 312 LINE",
"568 375 LINE",
"26 375 LINE"
);
},
{
closed = 1;
nodes = (
"26 170 LINE",
"568 170 LINE",
"568 233 LINE",
"26 233 LINE"
);
}
);
width = 596;
}
);
rightKerningGroup = d;
unicode = 00A5;
},
{
glyphname = plus;
lastChange = "2017-03-25 14:24:45 +0000";
layers = (
{
layerId = "A4E552E4-62BE-43BB-A58F-34F0EE3B77B8";
paths = (
{
closed = 1;
nodes = (
"573 338 LINE",
"573 491 LINE",
"393 491 LINE",
"393 671 LINE",
"240 671 LINE",
"240 491 LINE",
"60 491 LINE",
"60 338 LINE",
"240 338 LINE",
"240 158 LINE",
"393 158 LINE",
"393 338 LINE"
);
}
);
width = 633;
},
{
layerId = "7B60DD57-6012-4D0F-BD38-A72A4BAC0E9D";
paths = (
{
closed = 1;
nodes = (
"573 388 LINE",
"573 441 LINE",
"343 441 LINE",
"343 671 LINE",
"290 671 LINE",
"290 441 LINE",
"60 441 LINE",
"60 388 LINE",
"290 388 LINE",
"290 158 LINE",
"343 158 LINE",
"343 388 LINE"
);
}
);
width = 633;
}
);
rightKerningGroup = d;
unicode = 002B;
},
{
glyphname = minus;
lastChange = "2017-03-25 14:25:40 +0000";
layers = (
{
layerId = "A4E552E4-62BE-43BB-A58F-34F0EE3B77B8";
paths = (
{
closed = 1;
nodes = (
"573 338 LINE",
"573 491 LINE",
"60 491 LINE",
"60 338 LINE"
);
}
);
width = 633;
},
{
layerId = "7B60DD57-6012-4D0F-BD38-A72A4BAC0E9D";
paths = (
{
closed = 1;
nodes = (
"523 386 LINE",
"523 439 LINE",
"60 439 LINE",
"60 386 LINE"
);
}
);
width = 583;
}
);
rightKerningGroup = d;
unicode = 2212;
},
{
glyphname = multiply;
lastChange = "2017-03-25 14:25:33 +0000";
layers = (
{
layerId = "A4E552E4-62BE-43BB-A58F-34F0EE3B77B8";
paths = (
{
closed = 1;
nodes = (
"577 567 LINE",
"469 675 LINE",
"316 523 LINE",
"164 675 LINE",
"56 568 LINE",
"208 415 LINE",
"56 263 LINE",
"164 154 LINE",
"317 307 LINE",
"470 154 LINE",
"577 262 LINE",
"424 414 LINE"
);
}
);
width = 633;
},
{
layerId = "7B60DD57-6012-4D0F-BD38-A72A4BAC0E9D";
paths = (
{
closed = 1;
nodes = (
"513 605 LINE",
"475 643 LINE",
"285 452 LINE",
"94 643 LINE",
"56 605 LINE",
"247 415 LINE",
"56 224 LINE",
"94 186 LINE",
"285 377 LINE",
"475 186 LINE",
"513 224 LINE",
"322 415 LINE"
);
}
);
width = 569;
}
);
rightKerningGroup = d;
unicode = 00D7;
},
{
glyphname = divide;
lastChange = "2017-03-25 14:35:31 +0000";
layers = (
{
layerId = "A4E552E4-62BE-43BB-A58F-34F0EE3B77B8";
paths = (
{
closed = 1;
nodes = (
"271 720 OFFCURVE",
"235 684 OFFCURVE",
"235 638 CURVE SMOOTH",
"235 594 OFFCURVE",
"271 558 OFFCURVE",
"315 558 CURVE SMOOTH",
"361 558 OFFCURVE",
"397 594 OFFCURVE",
"397 638 CURVE SMOOTH",
"397 684 OFFCURVE",
"361 720 OFFCURVE",
"315 720 CURVE SMOOTH"
);
},
{
closed = 1;
nodes = (
"573 338 LINE",
"573 491 LINE",
"60 491 LINE",
"60 338 LINE"
);
},
{
closed = 1;
nodes = (
"271 271 OFFCURVE",
"235 235 OFFCURVE",
"235 189 CURVE SMOOTH",
"235 145 OFFCURVE",
"271 109 OFFCURVE",
"315 109 CURVE SMOOTH",
"361 109 OFFCURVE",
"397 145 OFFCURVE",
"397 189 CURVE SMOOTH",
"397 235 OFFCURVE",
"361 271 OFFCURVE",
"315 271 CURVE SMOOTH"
);
}
);
width = 633;
},
{
layerId = "7B60DD57-6012-4D0F-BD38-A72A4BAC0E9D";
paths = (
{
closed = 1;
nodes = (
"262 662 OFFCURVE",
"239 639 OFFCURVE",
"239 609 CURVE SMOOTH",
"239 581 OFFCURVE",
"262 558 OFFCURVE",
"290 558 CURVE SMOOTH",
"320 558 OFFCURVE",
"343 581 OFFCURVE",
"343 609 CURVE SMOOTH",
"343 639 OFFCURVE",
"320 662 OFFCURVE",
"290 662 CURVE SMOOTH"
);
},
{
closed = 1;
nodes = (
"523 386 LINE",
"523 439 LINE",
"60 439 LINE",
"60 386 LINE"
);
},
{
closed = 1;
nodes = (
"262 271 OFFCURVE",
"239 248 OFFCURVE",
"239 218 CURVE SMOOTH",
"239 190 OFFCURVE",
"262 167 OFFCURVE",
"290 167 CURVE SMOOTH",
"320 167 OFFCURVE",
"343 190 OFFCURVE",
"343 218 CURVE SMOOTH",
"343 248 OFFCURVE",
"320 271 OFFCURVE",
"290 271 CURVE SMOOTH"
);
}
);
width = 583;
}
);
rightKerningGroup = d;
unicode = 00F7;
},
{
glyphname = equal;
lastChange = "2017-03-25 14:35:55 +0000";
layers = (
{
layerId = "A4E552E4-62BE-43BB-A58F-34F0EE3B77B8";
paths = (
{
closed = 1;
nodes = (
"573 458 LINE",
"573 611 LINE",
"60 611 LINE",
"60 458 LINE"
);
},
{
closed = 1;
nodes = (
"573 218 LINE",
"573 371 LINE",
"60 371 LINE",
"60 218 LINE"
);
}
);
width = 633;
},
{
layerId = "7B60DD57-6012-4D0F-BD38-A72A4BAC0E9D";
paths = (
{
closed = 1;
nodes = (
"523 490 LINE",
"523 543 LINE",
"60 543 LINE",
"60 490 LINE"
);
},
{
closed = 1;
nodes = (
"523 288 LINE",
"523 341 LINE",
"60 341 LINE",
"60 288 LINE"
);
}
);
width = 583;
}
);
rightKerningGroup = d;
unicode = 003D;
},
{
glyphname = notequal;
lastChange = "2017-03-25 21:01:13 +0000";
layers = (
{
components = (
{
name = equal;
}
);
layerId = "A4E552E4-62BE-43BB-A58F-34F0EE3B77B8";
paths = (
{
closed = 1;
nodes = (
"551 755 LINE",
"433 755 LINE",
"35 70 LINE",
"153 70 LINE"
);
}
);
width = 633;
},
{
components = (
{
name = equal;
}
);
layerId = "7B60DD57-6012-4D0F-BD38-A72A4BAC0E9D";
paths = (
{
closed = 1;
nodes = (
"511 725 LINE",
"453 725 LINE",
"75 100 LINE",
"133 100 LINE"
);
}
);
width = 633;
}
);
rightKerningGroup = d;
unicode = 2260;
},
{
glyphname = greater;
lastChange = "2017-03-25 21:02:30 +0000";
layers = (
{
layerId = "A4E552E4-62BE-43BB-A58F-34F0EE3B77B8";
paths = (
{
closed = 1;
nodes = (
"602 357 LINE",
"602 475 LINE",
"55 697 LINE",
"55 555 LINE",
"413 415 LINE",
"55 277 LINE",
"55 135 LINE"
);
}
);
width = 662;
},
{
layerId = "7B60DD57-6012-4D0F-BD38-A72A4BAC0E9D";
paths = (
{
closed = 1;
nodes = (
"562 377 LINE",
"562 455 LINE",
"55 687 LINE",
"55 630 LINE",
"523 415 LINE",
"55 202 LINE",
"55 145 LINE"
);
}
);
width = 622;
}
);
rightKerningGroup = d;
unicode = 003E;
},
{
glyphname = plusminus;
lastChange = "2017-03-25 21:04:36 +0000";
layers = (
{
layerId = "A4E552E4-62BE-43BB-A58F-34F0EE3B77B8";
paths = (
{
closed = 1;
nodes = (
"573 363 LINE",
"573 516 LINE",
"393 516 LINE",
"393 671 LINE",
"240 671 LINE",
"240 516 LINE",
"60 516 LINE",
"60 363 LINE",
"240 363 LINE",
"240 208 LINE",
"393 208 LINE",
"393 363 LINE"
);
},
{
closed = 1;
nodes = (
"573 0 LINE",
"573 153 LINE",
"60 153 LINE",
"60 0 LINE"
);
}
);
width = 633;
},
{
layerId = "7B60DD57-6012-4D0F-BD38-A72A4BAC0E9D";
paths = (
{
closed = 1;
nodes = (
"573 413 LINE",
"573 466 LINE",
"343 466 LINE",
"343 671 LINE",
"290 671 LINE",
"290 466 LINE",
"60 466 LINE",
"60 413 LINE",
"290 413 LINE",
"290 208 LINE",
"343 208 LINE",
"343 413 LINE"
);
},
{
closed = 1;
nodes = (
"573 50 LINE",
"573 103 LINE",
"60 103 LINE",
"60 50 LINE"
);
}
);
width = 633;
}
);
rightKerningGroup = d;
unicode = 00B1;
},
{
glyphname = asciitilde;
lastChange = "2017-03-25 23:32:10 +0000";
layers = (
{
layerId = "A4E552E4-62BE-43BB-A58F-34F0EE3B77B8";
paths = (
{
closed = 1;
nodes = (
"541 521 LINE",
"541 521 OFFCURVE",
"515 443 OFFCURVE",
"457 443 CURVE SMOOTH",
"404 443 OFFCURVE",
"337 528 OFFCURVE",
"237 528 CURVE SMOOTH",
"125 528 OFFCURVE",
"60 391 OFFCURVE",
"60 391 CURVE",
"153 310 LINE",
"153 310 OFFCURVE",
"179 388 OFFCURVE",
"237 388 CURVE SMOOTH",
"291 388 OFFCURVE",
"360 303 OFFCURVE",
"457 303 CURVE SMOOTH",
"569 303 OFFCURVE",
"634 440 OFFCURVE",
"634 440 CURVE"
);
}
);
width = 694;
},
{
layerId = "7B60DD57-6012-4D0F-BD38-A72A4BAC0E9D";
paths = (
{
closed = 1;
nodes = (
"582 486 LINE",
"582 486 OFFCURVE",
"544 383 OFFCURVE",
"466 383 CURVE SMOOTH",
"393 383 OFFCURVE",
"330 508 OFFCURVE",
"230 508 CURVE SMOOTH",
"118 508 OFFCURVE",
"60 391 OFFCURVE",
"60 391 CURVE",
"115 344 LINE",
"115 344 OFFCURVE",
"152 448 OFFCURVE",
"230 448 CURVE SMOOTH",
"304 448 OFFCURVE",
"367 323 OFFCURVE",
"464 323 CURVE SMOOTH",
"576 323 OFFCURVE",
"634 440 OFFCURVE",
"634 440 CURVE"
);
}
);
width = 694;
}
);
rightKerningGroup = d;
unicode = 007E;
},
{
glyphname = asciicircum;
lastChange = "2017-03-27 21:14:35 +0000";
layers = (
{
layerId = "A4E552E4-62BE-43BB-A58F-34F0EE3B77B8";
paths = (
{
closed = 1;
nodes = (
"294 840 LINE",
"202 840 LINE",
"-5 605 LINE",
"156 605 LINE",
"248 714 LINE",
"340 605 LINE",
"501 605 LINE"
);
}
);
width = 496;
},
{
layerId = "7B60DD57-6012-4D0F-BD38-A72A4BAC0E9D";
paths = (
{
closed = 1;
nodes = (
"274 840 LINE",
"222 840 LINE",
"25 605 LINE",
"96 605 LINE",
"248 794 LINE",
"400 605 LINE",
"471 605 LINE"
);
}
);
width = 496;
}
);
rightKerningGroup = d;
unicode = 005E;
},
{
glyphname = percent;
lastChange = "2017-03-25 23:35:47 +0000";
layers = (
{
layerId = "A4E552E4-62BE-43BB-A58F-34F0EE3B77B8";
paths = (
{
closed = 1;
nodes = (
"193 0 LINE",
"311 0 LINE",
"791 825 LINE",
"673 825 LINE"
);
},
{
closed = 1;
nodes = (
"23 529 OFFCURVE",
"111 446 OFFCURVE",
"246 446 CURVE SMOOTH",
"374 446 OFFCURVE",
"465 529 OFFCURVE",
"465 643 CURVE SMOOTH",
"465 759 OFFCURVE",
"368 840 OFFCURVE",
"246 840 CURVE SMOOTH",
"120 840 OFFCURVE",
"23 759 OFFCURVE",
"23 643 CURVE SMOOTH"
);
},
{
closed = 1;
nodes = (
"152 697 OFFCURVE",
"193 736 OFFCURVE",
"244 736 CURVE SMOOTH",
"294 736 OFFCURVE",
"334 697 OFFCURVE",
"334 643 CURVE SMOOTH",
"334 589 OFFCURVE",
"295 552 OFFCURVE",
"244 552 CURVE SMOOTH",
"190 552 OFFCURVE",
"152 589 OFFCURVE",
"152 643 CURVE SMOOTH"
);
},
{
closed = 1;
nodes = (
"516 66 OFFCURVE",
"613 -15 OFFCURVE",
"739 -15 CURVE SMOOTH",
"861 -15 OFFCURVE",
"958 66 OFFCURVE",
"958 182 CURVE SMOOTH",
"958 296 OFFCURVE",
"867 379 OFFCURVE",
"739 379 CURVE SMOOTH",
"604 379 OFFCURVE",
"516 296 OFFCURVE",
"516 182 CURVE SMOOTH"
);
},
{
closed = 1;
nodes = (
"645 236 OFFCURVE",
"683 273 OFFCURVE",
"737 273 CURVE SMOOTH",
"788 273 OFFCURVE",
"827 236 OFFCURVE",
"827 182 CURVE SMOOTH",
"827 128 OFFCURVE",
"787 89 OFFCURVE",
"737 89 CURVE SMOOTH",
"686 89 OFFCURVE",
"645 128 OFFCURVE",
"645 182 CURVE SMOOTH"
);
}
);
width = 981;
},
{
layerId = "7B60DD57-6012-4D0F-BD38-A72A4BAC0E9D";
paths = (
{
closed = 1;
nodes = (
"141 0 LINE",
"199 0 LINE",
"679 825 LINE",
"621 825 LINE"
);
},
{
closed = 1;
nodes = (
"23 556 OFFCURVE",
"90 492 OFFCURVE",
"194 492 CURVE SMOOTH",
"292 492 OFFCURVE",
"361 556 OFFCURVE",
"361 643 CURVE SMOOTH",
"361 732 OFFCURVE",
"287 794 OFFCURVE",
"194 794 CURVE SMOOTH",
"97 794 OFFCURVE",
"23 732 OFFCURVE",
"23 643 CURVE SMOOTH"
);
},
{
closed = 1;
nodes = (
"77 706 OFFCURVE",
"129 749 OFFCURVE",
"193 749 CURVE SMOOTH",
"254 749 OFFCURVE",
"305 706 OFFCURVE",
"305 643 CURVE SMOOTH",
"305 578 OFFCURVE",
"256 538 OFFCURVE",
"193 538 CURVE SMOOTH",
"126 538 OFFCURVE",
"77 578 OFFCURVE",
"77 643 CURVE SMOOTH"
);
},
{
closed = 1;
nodes = (
"456 94 OFFCURVE",
"523 30 OFFCURVE",
"627 30 CURVE SMOOTH",
"725 30 OFFCURVE",
"794 94 OFFCURVE",
"794 181 CURVE SMOOTH",
"794 270 OFFCURVE",
"720 332 OFFCURVE",
"627 332 CURVE SMOOTH",
"530 332 OFFCURVE",
"456 270 OFFCURVE",
"456 181 CURVE SMOOTH"
);
},
{
closed = 1;
nodes = (
"510 244 OFFCURVE",
"562 287 OFFCURVE",
"626 287 CURVE SMOOTH",
"687 287 OFFCURVE",
"738 244 OFFCURVE",
"738 181 CURVE SMOOTH",
"738 116 OFFCURVE",
"689 76 OFFCURVE",
"626 76 CURVE SMOOTH",
"559 76 OFFCURVE",
"510 116 OFFCURVE",
"510 181 CURVE SMOOTH"
);
}
);
width = 817;
}
);
rightKerningGroup = d;
unicode = 0025;
},
{
glyphname = perthousand;
lastChange = "2017-03-25 23:36:15 +0000";
layers = (
{
layerId = "A4E552E4-62BE-43BB-A58F-34F0EE3B77B8";
paths = (
{
closed = 1;
nodes = (
"193 0 LINE",
"311 0 LINE",
"791 825 LINE",
"673 825 LINE"
);
},
{
closed = 1;
nodes = (
"23 529 OFFCURVE",
"111 446 OFFCURVE",
"246 446 CURVE SMOOTH",
"374 446 OFFCURVE",
"465 529 OFFCURVE",
"465 643 CURVE SMOOTH",
"465 759 OFFCURVE",
"368 840 OFFCURVE",
"246 840 CURVE SMOOTH",
"120 840 OFFCURVE",
"23 759 OFFCURVE",
"23 643 CURVE SMOOTH"
);
},
{
closed = 1;
nodes = (
"152 697 OFFCURVE",
"193 736 OFFCURVE",
"244 736 CURVE SMOOTH",
"294 736 OFFCURVE",
"334 697 OFFCURVE",
"334 643 CURVE SMOOTH",
"334 589 OFFCURVE",
"295 552 OFFCURVE",
"244 552 CURVE SMOOTH",
"190 552 OFFCURVE",
"152 589 OFFCURVE",
"152 643 CURVE SMOOTH"
);
},
{
closed = 1;
nodes = (
"516 66 OFFCURVE",
"613 -15 OFFCURVE",
"739 -15 CURVE SMOOTH",
"861 -15 OFFCURVE",
"958 66 OFFCURVE",
"958 182 CURVE SMOOTH",
"958 296 OFFCURVE",
"867 379 OFFCURVE",
"739 379 CURVE SMOOTH",
"604 379 OFFCURVE",
"516 296 OFFCURVE",
"516 182 CURVE SMOOTH"
);
},
{
closed = 1;
nodes = (
"645 236 OFFCURVE",
"683 273 OFFCURVE",
"737 273 CURVE SMOOTH",
"788 273 OFFCURVE",
"827 236 OFFCURVE",
"827 182 CURVE SMOOTH",
"827 128 OFFCURVE",
"787 89 OFFCURVE",
"737 89 CURVE SMOOTH",
"686 89 OFFCURVE",
"645 128 OFFCURVE",
"645 182 CURVE SMOOTH"
);
},
{
closed = 1;
nodes = (
"1004 66 OFFCURVE",
"1101 -15 OFFCURVE",
"1227 -15 CURVE SMOOTH",
"1349 -15 OFFCURVE",
"1446 66 OFFCURVE",
"1446 182 CURVE SMOOTH",
"1446 296 OFFCURVE",
"1355 379 OFFCURVE",
"1227 379 CURVE SMOOTH",
"1092 379 OFFCURVE",
"1004 296 OFFCURVE",
"1004 182 CURVE SMOOTH"
);
},
{
closed = 1;
nodes = (
"1133 236 OFFCURVE",
"1171 273 OFFCURVE",
"1225 273 CURVE SMOOTH",
"1276 273 OFFCURVE",
"1315 236 OFFCURVE",
"1315 182 CURVE SMOOTH",
"1315 128 OFFCURVE",
"1275 89 OFFCURVE",
"1225 89 CURVE SMOOTH",
"1174 89 OFFCURVE",
"1133 128 OFFCURVE",
"1133 182 CURVE SMOOTH"
);
}
);
width = 1469;
},
{
layerId = "7B60DD57-6012-4D0F-BD38-A72A4BAC0E9D";
paths = (
{
closed = 1;
nodes = (
"141 0 LINE",
"199 0 LINE",
"679 825 LINE",
"621 825 LINE"
);
},
{
closed = 1;
nodes = (
"23 556 OFFCURVE",
"90 492 OFFCURVE",
"194 492 CURVE SMOOTH",
"292 492 OFFCURVE",
"361 556 OFFCURVE",
"361 643 CURVE SMOOTH",
"361 732 OFFCURVE",
"287 794 OFFCURVE",
"194 794 CURVE SMOOTH",
"97 794 OFFCURVE",
"23 732 OFFCURVE",
"23 643 CURVE SMOOTH"
);
},
{
closed = 1;
nodes = (
"77 706 OFFCURVE",
"129 749 OFFCURVE",
"193 749 CURVE SMOOTH",
"254 749 OFFCURVE",
"305 706 OFFCURVE",
"305 643 CURVE SMOOTH",
"305 578 OFFCURVE",
"256 538 OFFCURVE",
"193 538 CURVE SMOOTH",
"126 538 OFFCURVE",
"77 578 OFFCURVE",
"77 643 CURVE SMOOTH"
);
},
{
closed = 1;
nodes = (
"456 94 OFFCURVE",
"523 30 OFFCURVE",
"627 30 CURVE SMOOTH",
"725 30 OFFCURVE",
"794 94 OFFCURVE",
"794 181 CURVE SMOOTH",
"794 270 OFFCURVE",
"720 332 OFFCURVE",
"627 332 CURVE SMOOTH",
"530 332 OFFCURVE",
"456 270 OFFCURVE",
"456 181 CURVE SMOOTH"
);
},
{
closed = 1;
nodes = (
"510 244 OFFCURVE",
"562 287 OFFCURVE",
"626 287 CURVE SMOOTH",
"687 287 OFFCURVE",
"738 244 OFFCURVE",
"738 181 CURVE SMOOTH",
"738 116 OFFCURVE",
"689 76 OFFCURVE",
"626 76 CURVE SMOOTH",
"559 76 OFFCURVE",
"510 116 OFFCURVE",
"510 181 CURVE SMOOTH"
);
},
{
closed = 1;
nodes = (
"852 94 OFFCURVE",
"919 30 OFFCURVE",
"1023 30 CURVE SMOOTH",
"1121 30 OFFCURVE",
"1190 94 OFFCURVE",
"1190 181 CURVE SMOOTH",
"1190 270 OFFCURVE",
"1116 332 OFFCURVE",
"1023 332 CURVE SMOOTH",
"926 332 OFFCURVE",
"852 270 OFFCURVE",
"852 181 CURVE SMOOTH"
);
},
{
closed = 1;
nodes = (
"906 244 OFFCURVE",
"958 287 OFFCURVE",
"1022 287 CURVE SMOOTH",
"1083 287 OFFCURVE",
"1134 244 OFFCURVE",
"1134 181 CURVE SMOOTH",
"1134 116 OFFCURVE",
"1085 76 OFFCURVE",
"1022 76 CURVE SMOOTH",
"955 76 OFFCURVE",
"906 116 OFFCURVE",
"906 181 CURVE SMOOTH"
);
}
);
width = 1213;
}
);
rightKerningGroup = d;
unicode = 2030;
},
{
glyphname = at;
lastChange = "2017-03-27 19:20:35 +0000";
layers = (
{
layerId = "A4E552E4-62BE-43BB-A58F-34F0EE3B77B8";
paths = (
{
closed = 1;
nodes = (
"670 344 OFFCURVE",
"667 386 OFFCURVE",
"667 386 CURVE",
"667 595 LINE",
"548 595 LINE",
"548 558 LINE",
"517 588 OFFCURVE",
"474 606 OFFCURVE",
"422 606 CURVE SMOOTH",
"312 606 OFFCURVE",
"233 516 OFFCURVE",
"233 403 CURVE SMOOTH",
"233 291 OFFCURVE",
"312 202 OFFCURVE",
"422 202 CURVE SMOOTH",
"475 202 OFFCURVE",
"520 225 OFFCURVE",
"548 256 CURVE",
"557 269 LINE",
"590 241 OFFCURVE",
"642 223 OFFCURVE",
"696 223 CURVE SMOOTH",
"794 223 OFFCURVE",
"899 286 OFFCURVE",
"899 442 CURVE SMOOTH",
"899 678 OFFCURVE",
"707 840 OFFCURVE",
"473 840 CURVE SMOOTH",
"229 840 OFFCURVE",
"23 667 OFFCURVE",
"23 413 CURVE SMOOTH",
"23 159 OFFCURVE",
"229 -15 OFFCURVE",
"473 -15 CURVE SMOOTH",
"689 -15 OFFCURVE",
"776 118 OFFCURVE",
"776 118 CURVE",
"660 195 LINE",
"660 195 OFFCURVE",
"605 127 OFFCURVE",
"473 127 CURVE SMOOTH",
"306 127 OFFCURVE",
"169 250 OFFCURVE",
"169 413 CURVE SMOOTH",
"169 576 OFFCURVE",
"303 709 OFFCURVE",
"473 709 CURVE SMOOTH",
"647 709 OFFCURVE",
"780 599 OFFCURVE",
"780 442 CURVE SMOOTH",
"780 368 OFFCURVE",
"761 344 OFFCURVE",
"718 344 CURVE SMOOTH"
);
},
{
closed = 1;
nodes = (
"388 452 OFFCURVE",
"424 487 OFFCURVE",
"469 487 CURVE SMOOTH",
"512 487 OFFCURVE",
"548 452 OFFCURVE",
"548 405 CURVE SMOOTH",
"548 359 OFFCURVE",
"514 325 OFFCURVE",
"469 325 CURVE SMOOTH",
"421 325 OFFCURVE",
"388 359 OFFCURVE",
"388 405 CURVE SMOOTH"
);
}
);
width = 921;
},
{
layerId = "7B60DD57-6012-4D0F-BD38-A72A4BAC0E9D";
paths = (
{
closed = 1;
nodes = (
"655 269 OFFCURVE",
"657 336 OFFCURVE",
"657 336 CURVE",
"657 595 LINE",
"598 595 LINE",
"598 538 LINE",
"589 557 OFFCURVE",
"534 606 OFFCURVE",
"442 606 CURVE SMOOTH",
"313 606 OFFCURVE",
"233 516 OFFCURVE",
"233 403 CURVE SMOOTH",
"233 291 OFFCURVE",
"313 202 OFFCURVE",
"442 202 CURVE SMOOTH",
"545 202 OFFCURVE",
"596 271 OFFCURVE",
"602 287 CURVE",
"605 294 LINE",
"617 258 OFFCURVE",
"650 218 OFFCURVE",
"714 218 CURVE SMOOTH",
"802 218 OFFCURVE",
"899 296 OFFCURVE",
"899 442 CURVE SMOOTH",
"899 678 OFFCURVE",
"707 840 OFFCURVE",
"473 840 CURVE SMOOTH",
"229 840 OFFCURVE",
"23 667 OFFCURVE",
"23 413 CURVE SMOOTH",
"23 159 OFFCURVE",
"229 -15 OFFCURVE",
"473 -15 CURVE SMOOTH",
"685 -15 OFFCURVE",
"776 118 OFFCURVE",
"776 118 CURVE",
"722 155 LINE",
"722 155 OFFCURVE",
"651 47 OFFCURVE",
"473 47 CURVE SMOOTH",
"273 47 OFFCURVE",
"89 200 OFFCURVE",
"89 413 CURVE SMOOTH",
"89 626 OFFCURVE",
"269 780 OFFCURVE",
"473 780 CURVE SMOOTH",
"681 780 OFFCURVE",
"833 634 OFFCURVE",
"833 442 CURVE SMOOTH",
"833 318 OFFCURVE",
"761 269 OFFCURVE",
"718 269 CURVE SMOOTH"
);
},
{
closed = 1;
nodes = (
"292 492 OFFCURVE",
"358 557 OFFCURVE",
"447 557 CURVE SMOOTH",
"531 557 OFFCURVE",
"599 496 OFFCURVE",
"599 410 CURVE SMOOTH",
"599 325 OFFCURVE",
"534 253 OFFCURVE",
"447 253 CURVE SMOOTH",
"353 253 OFFCURVE",
"292 321 OFFCURVE",
"292 406 CURVE SMOOTH"
);
}
);
width = 921;
}
);
rightKerningGroup = d;
unicode = 0040;
},
{
glyphname = ampersand;
lastChange = "2017-03-27 20:54:44 +0000";
layers = (
{
layerId = "A4E552E4-62BE-43BB-A58F-34F0EE3B77B8";
paths = (
{
closed = 1;
nodes = (
"29 34 OFFCURVE",
"194 -15 OFFCURVE",
"316 -15 CURVE SMOOTH",
"443 -15 OFFCURVE",
"509 34 OFFCURVE",
"581 85 CURVE",
"663 0 LINE",
"900 0 LINE",
"722 185 LINE",
"783 234 OFFCURVE",
"839 298 OFFCURVE",
"839 298 CURVE",
"723 412 LINE",
"638 324 OFFCURVE",
"602 308 OFFCURVE",
"602 308 CURVE",
"492 422 LINE",
"492 422 OFFCURVE",
"655 501 OFFCURVE",
"655 625 CURVE SMOOTH",
"655 728 OFFCURVE",
"575 840 OFFCURVE",
"410 840 CURVE SMOOTH",
"239 840 OFFCURVE",
"147 753 OFFCURVE",
"147 625 CURVE SMOOTH",
"147 560 OFFCURVE",
"182 502 OFFCURVE",
"230 442 CURVE",
"133 391 OFFCURVE",
"29 320 OFFCURVE",
"29 217 CURVE SMOOTH"
);
},
{
closed = 1;
nodes = (
"459 210 LINE",
"459 210 OFFCURVE",
"403 163 OFFCURVE",
"335 163 CURVE SMOOTH",
"291 163 OFFCURVE",
"242 184 OFFCURVE",
"242 232 CURVE SMOOTH",
"242 308 OFFCURVE",
"328 339 OFFCURVE",
"328 339 CURVE"
);
},
{
closed = 1;
nodes = (
"471 707 OFFCURVE",
"490 669 OFFCURVE",
"490 625 CURVE SMOOTH",
"490 581 OFFCURVE",
"440 547 OFFCURVE",
"398 524 CURVE",
"398 524 OFFCURVE",
"338 577 OFFCURVE",
"338 625 CURVE SMOOTH",
"338 669 OFFCURVE",
"359 707 OFFCURVE",
"410 707 CURVE SMOOTH"
);
}
);
width = 870;
},
{
layerId = "7B60DD57-6012-4D0F-BD38-A72A4BAC0E9D";
paths = (
{
closed = 1;
nodes = (
"29 66 OFFCURVE",
"132 -15 OFFCURVE",
"269 -15 CURVE SMOOTH",
"399 -15 OFFCURVE",
"503 59 OFFCURVE",
"571 126 CURVE",
"692 0 LINE",
"784 0 LINE",
"616 174 LINE",
"670 226 OFFCURVE",
"726 294 OFFCURVE",
"726 294 CURVE",
"683 334 LINE",
"632 267 OFFCURVE",
"577 216 OFFCURVE",
"577 216 CURVE",
"380 433 LINE",
"380 433 OFFCURVE",
"572 505 OFFCURVE",
"572 662 CURVE SMOOTH",
"572 760 OFFCURVE",
"496 840 OFFCURVE",
"373 840 CURVE SMOOTH",
"254 840 OFFCURVE",
"165 766 OFFCURVE",
"165 662 CURVE SMOOTH",
"165 557 OFFCURVE",
"257 474 OFFCURVE",
"275 452 CURVE",
"234 435 OFFCURVE",
"29 353 OFFCURVE",
"29 190 CURVE SMOOTH"
);
},
{
closed = 1;
nodes = (
"533 171 LINE",
"533 171 OFFCURVE",
"421 43 OFFCURVE",
"271 43 CURVE SMOOTH",
"183 43 OFFCURVE",
"97 90 OFFCURVE",
"97 190 CURVE SMOOTH",
"97 341 OFFCURVE",
"316 406 OFFCURVE",
"316 406 CURVE"
);
},
{
closed = 1;
nodes = (
"453 782 OFFCURVE",
"506 730 OFFCURVE",
"506 662 CURVE SMOOTH",
"506 569 OFFCURVE",
"424 509 OFFCURVE",
"342 478 CURVE",
"342 478 OFFCURVE",
"231 576 OFFCURVE",
"231 662 CURVE SMOOTH",
"231 721 OFFCURVE",
"281 782 OFFCURVE",
"370 782 CURVE SMOOTH"
);
}
);
width = 764;
}
);
rightKerningGroup = d;
unicode = 0026;
},
{
glyphname = paragraph;
lastChange = "2017-03-27 21:04:05 +0000";
layers = (
{
layerId = "A4E552E4-62BE-43BB-A58F-34F0EE3B77B8";
paths = (
{
closed = 1;
nodes = (
"648 825 LINE",
"285 825 LINE SMOOTH",
"124 825 OFFCURVE",
"23 712 OFFCURVE",
"23 571 CURVE SMOOTH",
"23 431 OFFCURVE",
"124 306 OFFCURVE",
"285 306 CURVE SMOOTH",
"381 306 LINE",
"381 0 LINE",
"484 0 LINE",
"484 721 LINE",
"545 721 LINE",
"545 0 LINE",
"648 0 LINE"
);
}
);
width = 708;
},
{
layerId = "7B60DD57-6012-4D0F-BD38-A72A4BAC0E9D";
paths = (
{
closed = 1;
nodes = (
"483 825 LINE",
"265 825 LINE SMOOTH",
"94 825 OFFCURVE",
"23 712 OFFCURVE",
"23 611 CURVE SMOOTH",
"23 511 OFFCURVE",
"94 386 OFFCURVE",
"265 386 CURVE SMOOTH",
"311 386 LINE",
"311 0 LINE",
"359 0 LINE",
"359 771 LINE",
"435 771 LINE",
"435 0 LINE",
"483 0 LINE"
);
}
);
width = 543;
}
);
rightKerningGroup = d;
unicode = 00B6;
},
{
glyphname = section;
lastChange = "2017-03-27 21:03:38 +0000";
layers = (
{
layerId = "A4E552E4-62BE-43BB-A58F-34F0EE3B77B8";
paths = (
{
closed = 1;
nodes = (
"498 -275 OFFCURVE",
"567 -152 OFFCURVE",
"567 -66 CURVE SMOOTH",
"567 15 OFFCURVE",
"536 77 OFFCURVE",
"471 115 CURVE",
"554 152 OFFCURVE",
"612 214 OFFCURVE",
"612 289 CURVE SMOOTH",
"612 403 OFFCURVE",
"536 470 OFFCURVE",
"415 527 CURVE SMOOTH",
"328 567 OFFCURVE",
"263 597 OFFCURVE",
"263 637 CURVE SMOOTH",
"263 668 OFFCURVE",
"284 692 OFFCURVE",
"326 692 CURVE SMOOTH",
"402 692 OFFCURVE",
"407 627 OFFCURVE",
"407 627 CURVE",
"567 661 LINE",
"567 661 OFFCURVE",
"539 840 OFFCURVE",
"326 840 CURVE SMOOTH",
"156 840 OFFCURVE",
"68 739 OFFCURVE",
"68 631 CURVE SMOOTH",
"68 549 OFFCURVE",
"114 493 OFFCURVE",
"174 450 CURVE",
"108 432 OFFCURVE",
"23 371 OFFCURVE",
"23 276 CURVE SMOOTH",
"23 162 OFFCURVE",
"99 95 OFFCURVE",
"220 38 CURVE SMOOTH",
"307 -2 OFFCURVE",
"370 -31 OFFCURVE",
"370 -72 CURVE SMOOTH",
"370 -101 OFFCURVE",
"349 -127 OFFCURVE",
"288 -127 CURVE SMOOTH",
"206 -127 OFFCURVE",
"183 -50 OFFCURVE",
"183 -50 CURVE",
"23 -84 LINE",
"23 -84 OFFCURVE",
"55 -275 OFFCURVE",
"288 -275 CURVE SMOOTH"
);
},
{
closed = 1;
nodes = (
"279 387 OFFCURVE",
"316 370 OFFCURVE",
"316 370 CURVE SMOOTH",
"376 342 OFFCURVE",
"448 309 OFFCURVE",
"448 260 CURVE SMOOTH",
"448 211 OFFCURVE",
"402 187 OFFCURVE",
"359 176 CURVE",
"335 188 OFFCURVE",
"322 194 OFFCURVE",
"319 195 CURVE SMOOTH",
"259 223 OFFCURVE",
"187 256 OFFCURVE",
"187 305 CURVE SMOOTH",
"187 353 OFFCURVE",
"233 377 OFFCURVE",
"275 389 CURVE"
);
}
);
width = 640;
},
{
layerId = "7B60DD57-6012-4D0F-BD38-A72A4BAC0E9D";
paths = (
{
closed = 1;
nodes = (
"494 -275 OFFCURVE",
"537 -152 OFFCURVE",
"537 -66 CURVE SMOOTH",
"537 15 OFFCURVE",
"507 62 OFFCURVE",
"442 100 CURVE",
"502 127 OFFCURVE",
"562 186 OFFCURVE",
"562 271 CURVE SMOOTH",
"562 384 OFFCURVE",
"464 419 OFFCURVE",
"343 476 CURVE SMOOTH",
"256 516 OFFCURVE",
"156 557 OFFCURVE",
"156 657 CURVE SMOOTH",
"156 736 OFFCURVE",
"229 792 OFFCURVE",
"329 792 CURVE SMOOTH",
"455 792 OFFCURVE",
"485 679 OFFCURVE",
"485 679 CURVE",
"538 691 LINE",
"538 691 OFFCURVE",
"509 840 OFFCURVE",
"326 840 CURVE SMOOTH",
"168 840 OFFCURVE",
"98 737 OFFCURVE",
"98 651 CURVE SMOOTH",
"98 557 OFFCURVE",
"159 515 OFFCURVE",
"219 472 CURVE",
"169 459 OFFCURVE",
"73 407 OFFCURVE",
"73 304 CURVE SMOOTH",
"73 199 OFFCURVE",
"178 157 OFFCURVE",
"299 100 CURVE SMOOTH",
"386 60 OFFCURVE",
"477 29 OFFCURVE",
"477 -72 CURVE SMOOTH",
"477 -149 OFFCURVE",
"448 -227 OFFCURVE",
"288 -227 CURVE SMOOTH",
"142 -227 OFFCURVE",
"115 -107 OFFCURVE",
"115 -107 CURVE",
"55 -120 LINE",
"55 -120 OFFCURVE",
"86 -275 OFFCURVE",
"288 -275 CURVE SMOOTH"
);
},
{
closed = 1;
nodes = (
"280 447 OFFCURVE",
"324 426 OFFCURVE",
"324 426 CURVE SMOOTH",
"409 387 OFFCURVE",
"501 351 OFFCURVE",
"501 273 CURVE SMOOTH",
"501 194 OFFCURVE",
"427 136 OFFCURVE",
"391 125 CURVE",
"356 139 OFFCURVE",
"323 155 OFFCURVE",
"319 157 CURVE SMOOTH",
"235 199 OFFCURVE",
"134 234 OFFCURVE",
"134 308 CURVE SMOOTH",
"134 393 OFFCURVE",
"216 433 OFFCURVE",
"275 450 CURVE"
);
}
);
width = 640;
}
);
rightKerningGroup = d;
unicode = 00A7;
},
{
glyphname = copyright;
lastChange = "2017-03-27 21:06:21 +0000";
layers = (
{
layerId = "A4E552E4-62BE-43BB-A58F-34F0EE3B77B8";
paths = (
{
closed = 1;
nodes = (
"23 177 OFFCURVE",
"215 -15 OFFCURVE",
"450 -15 CURVE SMOOTH",
"686 -15 OFFCURVE",
"878 177 OFFCURVE",
"878 412 CURVE SMOOTH",
"878 648 OFFCURVE",
"686 840 OFFCURVE",
"450 840 CURVE SMOOTH",
"215 840 OFFCURVE",
"23 648 OFFCURVE",
"23 412 CURVE SMOOTH"
);
},
{
closed = 1;
nodes = (
"137 585 OFFCURVE",
"278 726 OFFCURVE",
"450 726 CURVE SMOOTH",
"623 726 OFFCURVE",
"764 585 OFFCURVE",
"764 412 CURVE SMOOTH",
"764 240 OFFCURVE",
"623 99 OFFCURVE",
"450 99 CURVE SMOOTH",
"278 99 OFFCURVE",
"137 240 OFFCURVE",
"137 412 CURVE SMOOTH"
);
},
{
closed = 1;
nodes = (
"436 516 OFFCURVE",
"392 471 OFFCURVE",
"392 415 CURVE SMOOTH",
"392 357 OFFCURVE",
"436 313 OFFCURVE",
"490 313 CURVE SMOOTH",
"528 313 OFFCURVE",
"551 326 OFFCURVE",
"556 329 CURVE",
"600 239 LINE",
"600 239 OFFCURVE",
"546 206 OFFCURVE",
"469 206 CURVE SMOOTH",
"356 206 OFFCURVE",
"251 298 OFFCURVE",
"251 413 CURVE SMOOTH",
"251 530 OFFCURVE",
"356 624 OFFCURVE",
"469 624 CURVE SMOOTH",
"554 624 OFFCURVE",
"597 592 OFFCURVE",
"600 589 CURVE",
"557 500 LINE",
"557 500 OFFCURVE",
"523 516 OFFCURVE",
"490 516 CURVE SMOOTH"
);
}
);
width = 901;
},
{
layerId = "7B60DD57-6012-4D0F-BD38-A72A4BAC0E9D";
paths = (
{
closed = 1;
nodes = (
"23 177 OFFCURVE",
"215 -15 OFFCURVE",
"450 -15 CURVE SMOOTH",
"686 -15 OFFCURVE",
"878 177 OFFCURVE",
"878 412 CURVE SMOOTH",
"878 648 OFFCURVE",
"686 840 OFFCURVE",
"450 840 CURVE SMOOTH",
"215 840 OFFCURVE",
"23 648 OFFCURVE",
"23 412 CURVE SMOOTH"
);
},
{
closed = 1;
nodes = (
"84 614 OFFCURVE",
"249 779 OFFCURVE",
"450 779 CURVE SMOOTH",
"652 779 OFFCURVE",
"817 614 OFFCURVE",
"817 412 CURVE SMOOTH",
"817 211 OFFCURVE",
"652 46 OFFCURVE",
"450 46 CURVE SMOOTH",
"249 46 OFFCURVE",
"84 211 OFFCURVE",
"84 412 CURVE SMOOTH"
);
},
{
closed = 1;
nodes = (
"390 566 OFFCURVE",
"312 511 OFFCURVE",
"312 415 CURVE SMOOTH",
"312 317 OFFCURVE",
"390 263 OFFCURVE",
"470 263 CURVE SMOOTH",
"538 263 OFFCURVE",
"571 287 OFFCURVE",
"576 290 CURVE",
"600 239 LINE",
"600 239 OFFCURVE",
"546 206 OFFCURVE",
"469 206 CURVE SMOOTH",
"356 206 OFFCURVE",
"251 298 OFFCURVE",
"251 413 CURVE SMOOTH",
"251 530 OFFCURVE",
"356 624 OFFCURVE",
"469 624 CURVE SMOOTH",
"554 624 OFFCURVE",
"597 592 OFFCURVE",
"600 589 CURVE",
"575 537 LINE",
"575 537 OFFCURVE",
"537 566 OFFCURVE",
"470 566 CURVE SMOOTH"
);
}
);
width = 901;
}
);
rightKerningGroup = d;
unicode = 00A9;
},
{
glyphname = registered;
lastChange = "2017-03-27 21:14:58 +0000";
layers = (
{
layerId = "A4E552E4-62BE-43BB-A58F-34F0EE3B77B8";
paths = (
{
closed = 1;
nodes = (
"23 492 OFFCURVE",
"124 392 OFFCURVE",
"246 392 CURVE SMOOTH",
"371 392 OFFCURVE",
"471 492 OFFCURVE",
"471 615 CURVE SMOOTH",
"471 739 OFFCURVE",
"371 840 OFFCURVE",
"246 840 CURVE SMOOTH",
"124 840 OFFCURVE",
"23 739 OFFCURVE",
"23 615 CURVE SMOOTH"
);
},
{
closed = 1;
nodes = (
"83 706 OFFCURVE",
"157 780 OFFCURVE",
"246 780 CURVE SMOOTH",
"338 780 OFFCURVE",
"411 706 OFFCURVE",
"411 615 CURVE SMOOTH",
"411 525 OFFCURVE",
"338 452 OFFCURVE",
"246 452 CURVE SMOOTH",
"157 452 OFFCURVE",
"83 525 OFFCURVE",
"83 615 CURVE SMOOTH"
);
},
{
closed = 1;
nodes = (
"178 513 LINE",
"225 513 LINE",
"225 595 LINE",
"226 595 LINE",
"288 513 LINE",
"350 513 LINE",
"277 599 LINE",
"302 608 OFFCURVE",
"319 627 OFFCURVE",
"319 659 CURVE SMOOTH",
"319 699 OFFCURVE",
"290 720 OFFCURVE",
"251 720 CURVE SMOOTH",
"178 720 LINE"
);
},
{
closed = 1;
nodes = (
"225 683 LINE",
"231 683 LINE SMOOTH",
"248 683 OFFCURVE",
"268 681 OFFCURVE",
"268 655 CURVE SMOOTH",
"268 630 OFFCURVE",
"248 628 OFFCURVE",
"231 628 CURVE SMOOTH",
"225 628 LINE"
);
}
);
width = 494;
},
{
layerId = "7B60DD57-6012-4D0F-BD38-A72A4BAC0E9D";
paths = (
{
closed = 1;
nodes = (
"23 492 OFFCURVE",
"124 392 OFFCURVE",
"246 392 CURVE SMOOTH",
"371 392 OFFCURVE",
"471 492 OFFCURVE",
"471 615 CURVE SMOOTH",
"471 739 OFFCURVE",
"371 840 OFFCURVE",
"246 840 CURVE SMOOTH",
"124 840 OFFCURVE",
"23 739 OFFCURVE",
"23 615 CURVE SMOOTH"
);
},
{
closed = 1;
nodes = (
"55 721 OFFCURVE",
"142 808 OFFCURVE",
"246 808 CURVE SMOOTH",
"354 808 OFFCURVE",
"439 721 OFFCURVE",
"439 615 CURVE SMOOTH",
"439 509 OFFCURVE",
"354 424 OFFCURVE",
"246 424 CURVE SMOOTH",
"142 424 OFFCURVE",
"55 509 OFFCURVE",
"55 615 CURVE SMOOTH"
);
},
{
closed = 1;
nodes = (
"186 513 LINE",
"221 513 LINE",
"221 595 LINE",
"245 595 LINE",
"292 513 LINE",
"335 513 LINE",
"281 599 LINE",
"306 608 OFFCURVE",
"319 627 OFFCURVE",
"319 659 CURVE SMOOTH",
"319 699 OFFCURVE",
"290 720 OFFCURVE",
"251 720 CURVE SMOOTH",
"186 720 LINE"
);
},
{
closed = 1;
nodes = (
"221 691 LINE",
"246 691 LINE SMOOTH",
"273 691 OFFCURVE",
"284 684 OFFCURVE",
"284 658 CURVE SMOOTH",
"284 633 OFFCURVE",
"276 620 OFFCURVE",
"249 620 CURVE SMOOTH",
"221 620 LINE"
);
}
);
width = 494;
}
);
rightKerningGroup = d;
unicode = 00AE;
},
{
glyphname = trademark;
lastChange = "2017-03-27 21:10:55 +0000";
layers = (
{
layerId = "A4E552E4-62BE-43BB-A58F-34F0EE3B77B8";
paths = (
{
closed = 1;
nodes = (
"17 773 LINE",
"78 773 LINE",
"78 567 LINE",
"139 567 LINE",
"139 773 LINE",
"200 773 LINE",
"200 825 LINE",
"17 825 LINE"
);
},
{
closed = 1;
nodes = (
"472 825 LINE",
"409 825 LINE",
"352 677 LINE",
"295 825 LINE",
"232 825 LINE",
"209 567 LINE",
"268 567 LINE",
"281 720 LINE",
"282 720 LINE",
"335 569 LINE",
"370 569 LINE",
"423 720 LINE",
"424 720 LINE",
"436 567 LINE",
"496 567 LINE"
);
}
);
width = 514;
},
{
layerId = "7B60DD57-6012-4D0F-BD38-A72A4BAC0E9D";
paths = (
{
closed = 1;
nodes = (
"17 793 LINE",
"92 793 LINE",
"92 567 LINE",
"125 567 LINE",
"125 793 LINE",
"200 793 LINE",
"200 825 LINE",
"17 825 LINE"
);
},
{
closed = 1;
nodes = (
"405 825 LINE",
"362 825 LINE",
"322 637 LINE",
"281 825 LINE",
"238 825 LINE",
"215 567 LINE",
"248 567 LINE",
"264 770 LINE",
"265 770 LINE",
"302 569 LINE",
"343 569 LINE",
"379 770 LINE",
"380 770 LINE",
"396 567 LINE",
"429 567 LINE"
);
}
);
width = 447;
}
);
rightKerningGroup = d;
unicode = 2122;
},
{
glyphname = degree;
lastChange = "2017-03-27 21:11:54 +0000";
layers = (
{
layerId = "A4E552E4-62BE-43BB-A58F-34F0EE3B77B8";
paths = (
{
closed = 1;
nodes = (
"70 712 OFFCURVE",
"117 669 OFFCURVE",
"186 669 CURVE SMOOTH",
"254 669 OFFCURVE",
"302 712 OFFCURVE",
"302 772 CURVE SMOOTH",
"302 833 OFFCURVE",
"251 875 OFFCURVE",
"186 875 CURVE SMOOTH",
"121 875 OFFCURVE",
"70 833 OFFCURVE",
"70 772 CURVE SMOOTH"
);
},
{
closed = 1;
nodes = (
"143 798 OFFCURVE",
"162 817 OFFCURVE",
"186 817 CURVE SMOOTH",
"211 817 OFFCURVE",
"230 798 OFFCURVE",
"230 772 CURVE SMOOTH",
"230 747 OFFCURVE",
"211 726 OFFCURVE",
"186 726 CURVE SMOOTH",
"160 726 OFFCURVE",
"143 747 OFFCURVE",
"143 772 CURVE SMOOTH"
);
}
);
width = 372;
},
{
layerId = "7B60DD57-6012-4D0F-BD38-A72A4BAC0E9D";
paths = (
{
closed = 1;
nodes = (
"70 723 OFFCURVE",
"106 689 OFFCURVE",
"158 689 CURVE SMOOTH",
"209 689 OFFCURVE",
"246 723 OFFCURVE",
"246 772 CURVE SMOOTH",
"246 822 OFFCURVE",
"207 855 OFFCURVE",
"158 855 CURVE SMOOTH",
"109 855 OFFCURVE",
"70 822 OFFCURVE",
"70 772 CURVE SMOOTH"
);
},
{
closed = 1;
nodes = (
"107 800 OFFCURVE",
"130 822 OFFCURVE",
"158 822 CURVE SMOOTH",
"187 822 OFFCURVE",
"210 800 OFFCURVE",
"210 772 CURVE SMOOTH",
"210 744 OFFCURVE",
"187 721 OFFCURVE",
"158 721 CURVE SMOOTH",
"128 721 OFFCURVE",
"107 744 OFFCURVE",
"107 772 CURVE SMOOTH"
);
}
);
width = 316;
}
);
rightKerningGroup = d;
unicode = 00B0;
},
{
glyphname = bar;
lastChange = "2017-03-27 21:12:39 +0000";
layers = (
{
layerId = "A4E552E4-62BE-43BB-A58F-34F0EE3B77B8";
paths = (
{
closed = 1;
nodes = (
"213 860 LINE",
"60 860 LINE",
"60 0 LINE",
"213 0 LINE"
);
}
);
width = 273;
},
{
layerId = "7B60DD57-6012-4D0F-BD38-A72A4BAC0E9D";
paths = (
{
closed = 1;
nodes = (
"113 860 LINE",
"60 860 LINE",
"60 0 LINE",
"113 0 LINE"
);
}
);
width = 173;
}
);
leftKerningGroup = i;
rightKerningGroup = d;
unicode = 007C;
},
{
glyphname = brokenbar;
lastChange = "2017-03-27 21:12:42 +0000";
layers = (
{
layerId = "A4E552E4-62BE-43BB-A58F-34F0EE3B77B8";
paths = (
{
closed = 1;
nodes = (
"213 860 LINE",
"60 860 LINE",
"60 528 LINE",
"213 528 LINE"
);
},
{
closed = 1;
nodes = (
"213 332 LINE",
"60 332 LINE",
"60 0 LINE",
"213 0 LINE"
);
}
);
width = 273;
},
{
layerId = "7B60DD57-6012-4D0F-BD38-A72A4BAC0E9D";
paths = (
{
closed = 1;
nodes = (
"113 860 LINE",
"60 860 LINE",
"60 528 LINE",
"113 528 LINE"
);
},
{
closed = 1;
nodes = (
"113 332 LINE",
"60 332 LINE",
"60 0 LINE",
"113 0 LINE"
);
}
);
width = 173;
}
);
rightKerningGroup = d;
unicode = 00A6;
},
{
glyphname = acute;
lastChange = "2017-03-22 01:54:18 +0000";
layers = (
{
layerId = "A4E552E4-62BE-43BB-A58F-34F0EE3B77B8";
paths = (
{
closed = 1;
nodes = (
"430 725 LINE",
"339 840 LINE",
"136 664 LINE",
"192 587 LINE"
);
}
);
width = 566;
},
{
layerId = "7B60DD57-6012-4D0F-BD38-A72A4BAC0E9D";
paths = (
{
closed = 1;
nodes = (
"391 746 LINE",
"343 806 LINE",
"159 658 LINE",
"189 618 LINE"
);
}
);
width = 566;
}
);
rightKerningGroup = d;
unicode = 00B4;
},
